<?xml version="1.0" encoding="UTF-8" standalone="no"?>
<!-- Created with Inkscape (http://www.inkscape.org/) -->

<svg
   xmlns:dc="http://purl.org/dc/elements/1.1/"
   xmlns:cc="http://creativecommons.org/ns#"
   xmlns:rdf="http://www.w3.org/1999/02/22-rdf-syntax-ns#"
   xmlns:svg="http://www.w3.org/2000/svg"
   xmlns="http://www.w3.org/2000/svg"
   xmlns:sodipodi="http://sodipodi.sourceforge.net/DTD/sodipodi-0.dtd"
   xmlns:inkscape="http://www.inkscape.org/namespaces/inkscape"
   width="46"
   height="46"
   viewBox="0 0 46 46.000001"
   id="svg2"
   version="1.1"
   inkscape:version="0.92.3 (2405546, 2018-03-11)"
   sodipodi:docname="bright_dis.svg">
  <defs
     id="defs4" />
  <sodipodi:namedview
     id="base"
     pagecolor="#ffffff"
     bordercolor="#666666"
     borderopacity="1.0"
     inkscape:pageopacity="0.0"
     inkscape:pageshadow="2"
     inkscape:zoom="10.24"
     inkscape:cx="23.049609"
     inkscape:cy="13.981924"
     inkscape:document-units="px"
     inkscape:current-layer="g4167"
     showgrid="false"
     units="px"
     inkscape:window-width="1920"
     inkscape:window-height="1027"
     inkscape:window-x="-8"
     inkscape:window-y="-8"
     inkscape:window-maximized="1" />
  <metadata
     id="metadata7">
    <rdf:RDF>
      <cc:Work
         rdf:about="">
        <dc:format>image/svg+xml</dc:format>
        <dc:type
           rdf:resource="http://purl.org/dc/dcmitype/StillImage" />
        <dc:title />
      </cc:Work>
    </rdf:RDF>
  </metadata>
  <g
     inkscape:label="Ebene 1"
     inkscape:groupmode="layer"
     id="layer1"
     transform="translate(0,-1006.3622)">
    <g
       id="g4167"
       transform="translate(1151.4286,-128.57146)">
      <path
         style="fill:#555555;fill-opacity:1;stroke-width:0.66679162"
         d="m -1129.4111,1169.5004 v -2.316 h 0.9475 0.9474 v 2.316 2.316 h -0.9474 -0.9475 z m -8.8537,-1.7584 -0.6206,-0.6215 1.621,-1.6205 1.6209,-1.6205 0.6319,0.6309 0.632,0.6309 -1.6107,1.6111 c -0.8858,0.8861 -1.6204,1.611 -1.6324,1.611 -0.012,0 -0.301,-0.2797 -0.6421,-0.6214 z m 17.3279,-0.9896 -1.6107,-1.6111 0.6427,-0.6416 0.6426,-0.6417 1.6206,1.6209 1.6205,1.6209 -0.6308,0.6318 c -0.3468,0.3475 -0.6405,0.6318 -0.6525,0.6318 -0.012,0 -0.7467,-0.7249 -1.6324,-1.611 z m -8.7058,-1.0221 c -1.6568,-0.2662 -3.1014,-0.9805 -4.2793,-2.1161 -1.9812,-1.9102 -2.8147,-4.5728 -2.2691,-7.2494 0.4627,-2.2709 2.0555,-4.3508 4.1306,-5.3942 1.165,-0.5857 2.2778,-0.8504 3.5759,-0.8504 0.7637,0 1.3116,0.068 1.9963,0.2475 4.5634,1.1968 7.0654,6.1411 5.3145,10.5017 -0.4743,1.1814 -1.3512,2.3717 -2.3357,3.1709 -0.9882,0.8021 -2.2075,1.3735 -3.4803,1.6309 -0.6008,0.1215 -2.0616,0.154 -2.6529,0.059 z m 2.3792,-1.8515 c 0.8352,-0.1824 1.6668,-0.5469 2.3282,-1.0207 0.3978,-0.2849 0.9822,-0.849 1.2672,-1.223 1.401,-1.8391 1.6326,-4.3473 0.5909,-6.3975 -0.8322,-1.638 -2.3443,-2.7924 -4.1885,-3.1975 -0.5077,-0.1116 -1.926,-0.1113 -2.4379,0 -1.7208,0.3756 -3.1611,1.415 -4.0399,2.915 -0.5865,1.0011 -0.8825,2.352 -0.7718,3.5227 0.2637,2.7922 2.3047,4.987 5.0621,5.4437 0.4742,0.079 1.7474,0.054 2.1897,-0.043 z m -15.0751,-5.9374 v -0.9475 h 2.316 2.3159 v 0.9475 0.9474 h -2.3159 -2.316 z m 23.118,0 v -0.9475 h 2.316 2.316 v 0.9475 0.9474 h -2.316 -2.316 z m -18.0549,-7.5275 -1.6105,-1.6109 0.6427,-0.6416 0.6427,-0.6418 1.6104,1.6109 1.6106,1.611 -0.6427,0.6416 -0.6426,0.6417 z m 15.381,0.9795 -0.631,-0.6319 1.6206,-1.6211 1.6208,-1.6211 0.6316,0.6317 0.6317,0.6318 -1.6213,1.6214 -1.6215,1.6213 z m -7.5166,-5.011 v -2.316 h 0.9475 0.9474 v 2.316 2.3159 h -0.9474 -0.9475 z"
         id="path4348"
         inkscape:connector-curvature="0" />
    </g>
  </g>
</svg>
