<?xml version="1.0" encoding="UTF-8" standalone="no"?>
<!-- Created with Inkscape (http://www.inkscape.org/) -->

<svg
   xmlns:dc="http://purl.org/dc/elements/1.1/"
   xmlns:cc="http://creativecommons.org/ns#"
   xmlns:rdf="http://www.w3.org/1999/02/22-rdf-syntax-ns#"
   xmlns:svg="http://www.w3.org/2000/svg"
   xmlns="http://www.w3.org/2000/svg"
   xmlns:sodipodi="http://sodipodi.sourceforge.net/DTD/sodipodi-0.dtd"
   xmlns:inkscape="http://www.inkscape.org/namespaces/inkscape"
   width="46"
   height="46"
   viewBox="0 0 46 46.000001"
   id="svg2"
   version="1.1"
   inkscape:version="0.92.3 (2405546, 2018-03-11)"
   sodipodi:docname="bright_ena.svg">
  <defs
     id="defs4" />
  <sodipodi:namedview
     id="base"
     pagecolor="#ffffff"
     bordercolor="#666666"
     borderopacity="1.0"
     inkscape:pageopacity="0.0"
     inkscape:pageshadow="2"
     inkscape:zoom="10.24"
     inkscape:cx="50.959807"
     inkscape:cy="14.603869"
     inkscape:document-units="px"
     inkscape:current-layer="g4167"
     showgrid="false"
     units="px"
     inkscape:window-width="1920"
     inkscape:window-height="1027"
     inkscape:window-x="-8"
     inkscape:window-y="-8"
     inkscape:window-maximized="1" />
  <metadata
     id="metadata7">
    <rdf:RDF>
      <cc:Work
         rdf:about="">
        <dc:format>image/svg+xml</dc:format>
        <dc:type
           rdf:resource="http://purl.org/dc/dcmitype/StillImage" />
        <dc:title />
      </cc:Work>
    </rdf:RDF>
  </metadata>
  <g
     inkscape:label="Ebene 1"
     inkscape:groupmode="layer"
     id="layer1"
     transform="translate(0,-1006.3622)">
    <g
       id="g4167"
       transform="translate(1151.4286,-128.57146)">
      <path
         style="fill:#c3c3c3;fill-opacity:1;stroke-width:0.66679186"
         d="m -1129.4112,1169.5004 v -2.316 h 0.9475 0.9475 v 2.316 2.316 h -0.9475 -0.9475 z m -8.8537,-1.7583 -0.6206,-0.6215 1.6209,-1.6205 1.6209,-1.6204 0.632,0.6308 0.632,0.631 -1.6106,1.611 c -0.886,0.8861 -1.6205,1.611 -1.6325,1.611 -0.011,0 -0.301,-0.2797 -0.6421,-0.6214 z m 17.3278,-0.9896 -1.6107,-1.611 0.6429,-0.6416 0.6425,-0.6417 1.6207,1.6209 1.6204,1.6209 -0.6309,0.6317 c -0.3467,0.3475 -0.6405,0.6318 -0.6524,0.6318 -0.013,0 -0.7466,-0.7249 -1.6325,-1.611 z m -8.7057,-1.0221 c -1.6569,-0.2662 -3.1015,-0.9805 -4.2793,-2.116 -1.9813,-1.9103 -2.8148,-4.5728 -2.269,-7.2495 0.4626,-2.2709 2.0555,-4.3509 4.1305,-5.3942 1.165,-0.5858 2.2778,-0.8504 3.5759,-0.8504 0.7638,0 1.3116,0.068 1.9963,0.2476 4.5633,1.1967 7.0654,6.141 5.3145,10.5017 -0.4742,1.1812 -1.3512,2.3716 -2.3357,3.1709 -0.9882,0.8019 -2.2075,1.3735 -3.4804,1.6308 -0.6006,0.1215 -2.0615,0.1539 -2.6528,0.059 z m 2.3792,-1.8516 c 0.8353,-0.1824 1.6668,-0.5469 2.3282,-1.0206 0.3978,-0.2849 0.9822,-0.849 1.2672,-1.223 1.401,-1.8391 1.6327,-4.3473 0.591,-6.3975 -0.8323,-1.6381 -2.3443,-2.7924 -4.1886,-3.1975 -0.5078,-0.1116 -1.926,-0.1113 -2.4379,0 -1.7207,0.3755 -3.1612,1.4149 -4.04,2.915 -0.5863,1.0011 -0.8824,2.352 -0.7718,3.5227 0.2639,2.7923 2.3049,4.987 5.0622,5.4437 0.4742,0.078 1.7474,0.054 2.1897,-0.042 z m -15.075,-5.9373 v -0.9475 h 2.3159 2.316 v 0.9475 0.9475 h -2.316 -2.3159 z m 23.1178,0 v -0.9475 h 2.316 2.316 v 0.9475 0.9475 h -2.316 -2.316 z m -18.0548,-7.5275 -1.6105,-1.611 0.6427,-0.6415 0.6426,-0.6418 1.6105,1.611 1.6106,1.6108 -0.6428,0.6416 -0.6426,0.6417 z m 15.381,0.9795 -0.6309,-0.632 1.6206,-1.6211 1.6206,-1.621 0.6317,0.6318 0.6317,0.6316 -1.6214,1.6215 -1.6213,1.6214 z m -7.5166,-5.011 v -2.3159 h 0.9475 0.9475 v 2.3159 2.316 h -0.9475 -0.9475 z"
         id="path4348"
         inkscape:connector-curvature="0" />
    </g>
  </g>
</svg>
