<?xml version="1.0" encoding="UTF-8" standalone="no"?>
<svg
   xmlns:dc="http://purl.org/dc/elements/1.1/"
   xmlns:cc="http://creativecommons.org/ns#"
   xmlns:rdf="http://www.w3.org/1999/02/22-rdf-syntax-ns#"
   xmlns:svg="http://www.w3.org/2000/svg"
   xmlns="http://www.w3.org/2000/svg"
   xmlns:sodipodi="http://sodipodi.sourceforge.net/DTD/sodipodi-0.dtd"
   xmlns:inkscape="http://www.inkscape.org/namespaces/inkscape"
   width="120"
   height="50"
   viewBox="0 0 31.75 13.229167"
   version="1.1"
   id="svg8"
   sodipodi:docname="DR_03.svg"
   inkscape:version="1.0.1 (3bc2e813f5, 2020-09-07)">
  <sodipodi:namedview
     pagecolor="#ffffff"
     bordercolor="#666666"
     borderopacity="1"
     objecttolerance="10"
     gridtolerance="10"
     guidetolerance="10"
     inkscape:pageopacity="0"
     inkscape:pageshadow="2"
     inkscape:window-width="1920"
     inkscape:window-height="1017"
     id="namedview15"
     showgrid="false"
     units="px"
     inkscape:zoom="6.3610147"
     inkscape:cx="107.01987"
     inkscape:cy="35.627205"
     inkscape:window-x="-8"
     inkscape:window-y="-8"
     inkscape:window-maximized="1"
     inkscape:current-layer="svg8" />
  <defs
     id="defs2" />
  <metadata
     id="metadata5">
    <rdf:RDF>
      <cc:Work
         rdf:about="">
        <dc:format>image/svg+xml</dc:format>
        <dc:type
           rdf:resource="http://purl.org/dc/dcmitype/StillImage" />
        <dc:title></dc:title>
      </cc:Work>
    </rdf:RDF>
  </metadata>
  <g
     id="layer1"
     transform="matrix(0.06985735,0,0,0.06985735,8.8829857,-0.35231037)">
    <path
       style="fill:#d0d0d0;fill-opacity:1;stroke-width:0.268817"
       d="m 88.250349,161.16691 c -6.124481,-1.27222 -11.22683,-3.04307 -16.422569,-5.69968 -3.221578,-1.64722 -8.829433,-5.3015 -11.075092,-7.21693 -2.673785,-2.2806 -7.26021,-6.90276 -9.04458,-9.11504 -6.065885,-7.52056 -10.631234,-17.1162 -12.578471,-26.43793 -0.378828,-1.8135 -0.688777,-3.5373 -0.688777,-3.83064 0,-0.5264 0.225403,-0.53336 17.272925,-0.53336 H 72.98671 l 9.474387,9.47721 9.474387,9.47721 v 17.2701 c 0,13.64624 -0.07051,17.26642 -0.336022,17.25254 -0.184811,-0.01 -1.691911,-0.29923 -3.349113,-0.64348 z m -4.648198,-20.23759 v -10.68358 l -6.920105,-6.92394 -6.920105,-6.92395 H 59.074519 c -7.204581,0 -10.687422,0.0909 -10.687422,0.27895 0,0.15342 0.418035,1.36138 0.928968,2.68435 4.902569,12.69437 14.122352,22.90009 26.238311,29.04415 2.352643,1.19304 7.124371,3.16911 7.711753,3.1936 0.263417,0.011 0.336022,-2.29445 0.336022,-10.66958 z m 25.268819,3.64383 v -17.29104 l 9.4772,-9.47439 9.47721,-9.47439 h 17.1357 17.13569 v 0.66777 c 0,0.36727 -0.30716,2.12256 -0.68258,3.90065 -4.10655,19.44966 -17.55092,36.00442 -35.77697,44.05405 -4.48716,1.98178 -10.82233,3.9182 -14.61571,4.46746 -0.66533,0.0963 -1.42138,0.23495 -1.68011,0.30804 -0.44453,0.12557 -0.47043,-0.81908 -0.47043,-17.15815 z m 11.38115,5.96906 c 14.47877,-5.66092 26.06346,-17.42482 31.19129,-31.67382 0.38892,-1.08072 0.70713,-2.07871 0.70713,-2.21774 0,-0.15362 -4.19178,-0.2528 -10.68358,-0.2528 h -10.68359 l -6.92394,6.9201 -6.92395,6.92011 v 10.68742 c 0,7.44506 0.0877,10.68742 0.28908,10.68742 0.15899,0 1.52139,-0.48181 3.02756,-1.07069 z m -28.754658,-41.75794 -8.836172,-8.75536 8.737581,-8.75152 8.737579,-8.751522 8.80277,8.805799 8.80276,8.805803 -8.70417,8.70108 -8.70418,8.70108 z M 38.44086,91.023672 c 0,-0.760745 1.103366,-5.845435 1.76057,-8.113309 2.795543,-9.646831 8.086761,-18.829987 15.146739,-26.287874 1.893804,-2.000537 6.4985,-5.884279 9.25121,-7.802752 7.598519,-5.295705 17.011312,-9.074549 26.193632,-10.515648 l 1.142473,-0.179304 V 55.28693 72.449075 l -9.477207,9.474387 -9.477207,9.474387 H 55.710965 c -14.576116,0 -17.270105,-0.05837 -17.270105,-0.374177 z M 76.812578,76.547675 83.602151,69.762019 V 59.459669 49.157317 l -0.604839,0.179258 c -0.332661,0.09859 -1.693549,0.60678 -3.024194,1.129309 -10.858325,4.263949 -20.260099,12.185323 -26.331013,22.184944 -1.375842,2.266194 -3.562315,6.789798 -4.416256,9.136806 l -0.562389,1.545699 h 10.679771 10.679772 z m 41.263912,5.641744 -9.20552,-9.20843 V 55.576516 c 0,-10.018048 0.10176,-17.404473 0.23977,-17.404473 0.66791,0 5.88939,1.161293 8.42885,1.874629 18.85973,5.297739 34.59809,19.935382 41.46947,38.569169 1.10184,2.987957 2.67377,8.973073 2.96148,11.275839 l 0.18818,1.506169 h -17.43835 -17.43835 z m 33.65754,0.539076 c -0.10116,-0.332662 -0.66571,-1.754033 -1.25455,-3.158603 -4.86734,-11.610094 -14.04468,-21.401233 -25.4209,-27.121083 -2.23363,-1.123048 -7.38176,-3.255261 -7.85968,-3.255261 -0.16743,0 -0.26342,3.754234 -0.26342,10.302452 v 10.302449 l 6.82858,6.767443 6.82859,6.767441 h 10.66265 10.66265 z"
       id="path70" />
  </g>
</svg>
