<?xml version="1.0" encoding="UTF-8" standalone="no"?>
<svg
   xmlns:dc="http://purl.org/dc/elements/1.1/"
   xmlns:cc="http://creativecommons.org/ns#"
   xmlns:rdf="http://www.w3.org/1999/02/22-rdf-syntax-ns#"
   xmlns:svg="http://www.w3.org/2000/svg"
   xmlns="http://www.w3.org/2000/svg"
   xmlns:sodipodi="http://sodipodi.sourceforge.net/DTD/sodipodi-0.dtd"
   xmlns:inkscape="http://www.inkscape.org/namespaces/inkscape"
   width="757"
   height="757"
   viewBox="0 0 200.28958 200.28959"
   version="1.1"
   id="svg8"
   inkscape:version="1.0.1 (3bc2e813f5, 2020-09-07)"
   sodipodi:docname="key_9wxyz.svg">
  <defs
     id="defs2" />
  <sodipodi:namedview
     id="base"
     pagecolor="#ffffff"
     bordercolor="#666666"
     borderopacity="1.0"
     inkscape:pageopacity="0.0"
     inkscape:pageshadow="2"
     inkscape:zoom="0.70710678"
     inkscape:cx="1181.4285"
     inkscape:cy="390.50964"
     inkscape:document-units="mm"
     inkscape:current-layer="g296"
     inkscape:document-rotation="0"
     showgrid="false"
     units="px"
     inkscape:window-width="1920"
     inkscape:window-height="1017"
     inkscape:window-x="-8"
     inkscape:window-y="-8"
     inkscape:window-maximized="1" />
  <metadata
     id="metadata5">
    <rdf:RDF>
      <cc:Work
         rdf:about="">
        <dc:format>image/svg+xml</dc:format>
        <dc:type
           rdf:resource="http://purl.org/dc/dcmitype/StillImage" />
        <dc:title></dc:title>
      </cc:Work>
    </rdf:RDF>
  </metadata>
  <g
     inkscape:label="Ebene 1"
     inkscape:groupmode="layer"
     id="layer1">
    <g
       id="g58">
      <g
         id="g102"
         transform="translate(6.7)">
        <g
           id="g176"
           transform="translate(3.8467722)">
          <g
             id="g206"
             transform="translate(3.4999998)" />
          <g
             id="g266"
             transform="translate(4.2000046)">
            <g
               id="g296"
               transform="translate(5.3064589)">
              <g
                 id="g354"
                 transform="translate(-105.022)">
                <path
                   style="fill:#c2c2c2;stroke-width:0.264583"
                   d="m 233.95685,139.38603 -1.24095,-0.26666 -0.1646,-1.49562 c -0.0905,-0.82259 -0.22154,-1.80195 -0.29114,-2.17636 l -0.12653,-0.68074 2.19354,0.1031 c 3.44894,0.16209 4.311,-0.49312 5.86527,-4.45783 l 0.89249,-2.27663 -5.25788,-13.86296 c -2.89184,-7.62462 -5.3258,-14.07131 -5.4088,-14.325974 -0.13658,-0.41906 0.0876,-0.463021 2.36145,-0.463021 h 2.51236 l 0.5165,1.389065 c 1.69709,4.5642 6.2086,17.36438 6.8186,19.34591 l 0.72231,2.34643 1.38518,-4.19852 c 1.32098,-4.00398 6.62244,-18.593923 6.83278,-18.804267 0.0551,-0.0551 1.11517,-0.06557 2.35567,-0.02326 l 2.25546,0.07693 -5.66549,15.213537 c -7.52076,20.19543 -7.57783,20.32973 -9.59107,22.56494 -1.61406,1.79205 -4.30887,2.56272 -6.96515,1.99192 z M 104.49362,128.84415 c -0.87312,-0.13479 -2.47152,-0.55663 -3.552,-0.93744 -6.14932,-2.1673 -9.75571,-6.74515 -11.257093,-14.28944 l -0.162194,-0.81502 3.741117,-0.32776 c 2.05762,-0.18028 3.79733,-0.27156 3.86604,-0.20286 0.0687,0.0687 0.30501,0.8146 0.52514,1.65755 0.8163,3.12598 2.64382,5.88562 4.69284,7.08643 3.37458,1.97764 8.44303,1.9595 12.17839,-0.0436 1.79614,-0.96318 4.33886,-3.57674 5.37973,-5.52962 2.0258,-3.80078 3.40136,-9.43371 3.68721,-15.09917 0.16747,-3.319181 -6e-5,-3.907414 -0.72634,-2.550336 -0.20334,0.379944 -1.30964,1.575024 -2.45844,2.655736 -1.58062,1.48693 -2.67619,2.24595 -4.50364,3.12013 -3.17011,1.51647 -4.72585,1.86595 -8.23576,1.85011 -3.48696,-0.0157 -5.4686,-0.47952 -8.59896,-2.0125 -1.82994,-0.89616 -2.69527,-1.54907 -4.64445,-3.504382 -2.0177,-2.024047 -2.58931,-2.799437 -3.624421,-4.91657 -1.434831,-2.934687 -1.945508,-4.776332 -2.316483,-8.353883 -0.457383,-4.410868 0.48037,-10.368047 2.155309,-13.691822 0.988045,-1.960687 2.802695,-4.297246 4.705805,-6.059236 4.30339,-3.984282 10.44685,-5.78937 16.56957,-4.868519 5.09736,0.766638 8.60846,2.505538 12.03274,5.9593 3.8937,3.927229 5.81267,8.056873 6.92004,14.892023 0.77097,4.758722 0.83083,16.5963 0.10879,21.514849 -1.13604,7.73864 -2.96543,12.665 -6.33016,17.0464 -2.37142,3.08796 -6.63531,5.82641 -10.76007,6.91055 -2.31395,0.6082 -7.07793,0.8664 -9.39271,0.50907 z m 10.80015,-31.560381 c 2.48262,-1.226976 4.56293,-3.262275 5.70444,-5.580997 2.25589,-4.582366 2.18462,-12.243281 -0.15487,-16.646967 -1.00244,-1.886905 -3.8914,-4.704207 -5.7024,-5.560949 -4.74479,-2.244643 -9.95142,-1.235472 -13.95695,2.705196 -3.08521,3.035252 -4.54625,6.803326 -4.57733,11.805158 -0.0293,4.708395 1.14692,7.836979 4.0199,10.692786 2.9168,2.899357 5.23027,3.765034 9.73456,3.642559 2.79775,-0.07607 3.06353,-0.133014 4.93265,-1.056786 z m 55.08169,30.453821 c -0.0675,-0.18739 -1.9732,-6.4129 -4.23484,-13.83446 -2.26164,-7.42157 -4.17839,-13.70671 -4.25945,-13.966982 -0.13542,-0.434771 0.0523,-0.467024 2.30945,-0.396875 l 2.45685,0.07635 3.05433,11.175117 c 1.67988,6.14632 3.12468,11.17671 3.21066,11.17865 0.086,0.002 0.30833,-0.68108 0.49411,-1.51783 0.18578,-0.83674 1.51441,-5.84853 2.95252,-11.13731 1.43811,-5.28878 2.61474,-9.664329 2.61474,-9.723443 0,-0.05911 1.11276,-0.107476 2.4728,-0.107476 h 2.47279 l 2.4448,9.458859 c 3.21363,12.43342 3.25806,12.5898 3.46215,12.18546 0.0959,-0.18995 1.58922,-5.13762 3.31855,-10.99484 l 3.14424,-10.649479 h 2.3052 2.30519 l -0.50023,1.521359 c -0.27513,0.83674 -2.05971,6.52198 -3.96575,12.63385 -1.90603,6.11188 -3.70833,11.86097 -4.0051,12.77575 l -0.53959,1.66325 -2.42263,-0.0757 -2.42262,-0.0757 -1.53201,-5.68854 c -0.8426,-3.1287 -2.11845,-7.99627 -2.83523,-10.81683 -0.71677,-2.82056 -1.34944,-5.1745 -1.40593,-5.23099 -0.10397,-0.10397 -0.51218,1.37829 -3.98234,14.46032 l -1.93006,7.27604 -2.42992,0.0761 c -1.79767,0.0563 -2.46186,-0.0125 -2.55268,-0.26459 z m 32.74036,-1.3329 c 0.64333,-0.90951 2.91846,-4.12096 5.05586,-7.13657 2.13739,-3.01561 3.95395,-5.65957 4.0368,-5.87545 0.0924,-0.24083 -1.64804,-2.95903 -4.50347,-7.03342 -2.55975,-3.65249 -4.65409,-6.693773 -4.65409,-6.758403 0,-0.06463 1.29822,-0.117512 2.88493,-0.117512 h 2.88493 l 3.11556,4.762505 c 1.71356,2.61937 3.19516,4.7625 3.29243,4.7625 0.0973,0 1.69163,-2.14313 3.543,-4.7625 l 3.36613,-4.762505 h 2.79007 2.79006 l -0.4729,0.727605 c -0.2601,0.40018 -2.30328,3.32161 -4.54041,6.49207 -2.23712,3.17046 -4.13161,5.93154 -4.20997,6.13574 -0.0816,0.21274 1.98538,3.42907 4.8407,7.53225 2.74075,3.93853 5.02286,7.2794 5.07137,7.42415 0.0548,0.16349 -0.97136,0.26319 -2.70891,0.26319 h -2.7971 l -3.73131,-5.5877 -3.7313,-5.5877 -0.83583,1.18011 c -0.45971,0.64906 -2.20067,3.16352 -3.86882,5.58769 l -3.03299,4.4076 h -2.87721 -2.87722 z m 54.96843,-0.34836 v -2.002 l 8.7974,-10.10604 c 4.83857,-5.55833 8.93622,-10.28313 9.10593,-10.49957 0.27199,-0.34691 -0.70705,-0.38337 -8.26823,-0.30791 l -8.57676,0.0856 v -1.87154 -1.871535 h 11.64166 11.64167 v 1.540285 1.54028 l -8.2327,9.63836 c -4.52797,5.3011 -8.7046,10.12876 -9.28142,10.72814 l -1.04876,1.08976 9.6783,-0.13591 9.67833,-0.13591 v 2.155 2.155 h -12.56771 -12.56771 z"
                   id="path356" />
              </g>
            </g>
          </g>
        </g>
      </g>
    </g>
  </g>
</svg>
