<?xml version="1.0" encoding="UTF-8" standalone="no"?>
<svg
   xmlns:dc="http://purl.org/dc/elements/1.1/"
   xmlns:cc="http://creativecommons.org/ns#"
   xmlns:rdf="http://www.w3.org/1999/02/22-rdf-syntax-ns#"
   xmlns:svg="http://www.w3.org/2000/svg"
   xmlns="http://www.w3.org/2000/svg"
   xmlns:sodipodi="http://sodipodi.sourceforge.net/DTD/sodipodi-0.dtd"
   xmlns:inkscape="http://www.inkscape.org/namespaces/inkscape"
   width="757"
   height="757"
   viewBox="0 0 200.28958 200.28959"
   version="1.1"
   id="svg8"
   sodipodi:docname="key_2abc.svg"
   inkscape:version="1.0.1 (3bc2e813f5, 2020-09-07)">
  <sodipodi:namedview
     pagecolor="#ffffff"
     bordercolor="#666666"
     borderopacity="1"
     objecttolerance="10"
     gridtolerance="10"
     guidetolerance="10"
     inkscape:pageopacity="0"
     inkscape:pageshadow="2"
     inkscape:window-width="1920"
     inkscape:window-height="1017"
     id="namedview9"
     showgrid="false"
     inkscape:zoom="0.62724458"
     inkscape:cx="807.5"
     inkscape:cy="378.5"
     inkscape:window-x="-8"
     inkscape:window-y="-8"
     inkscape:window-maximized="1"
     inkscape:current-layer="svg8" />
  <defs
     id="defs2" />
  <metadata
     id="metadata5">
    <rdf:RDF>
      <cc:Work
         rdf:about="">
        <dc:format>image/svg+xml</dc:format>
        <dc:type
           rdf:resource="http://purl.org/dc/dcmitype/StillImage" />
        <dc:title></dc:title>
      </cc:Work>
    </rdf:RDF>
  </metadata>
  <g
     id="layer1"
     transform="translate(-109.53762)">
    <g
       id="g58">
      <g
         id="g102"
         transform="translate(6.7)">
        <path
           style="fill:#c2c2c2;stroke-width:0.264583"
           d="m 209.26633,127.91817 c -3.56803,-0.96079 -5.53614,-2.95971 -6.16167,-6.25812 -0.53379,-2.81463 0.72202,-5.99769 3.02422,-7.6654 2.03899,-1.47703 3.59919,-1.97019 8.2305,-2.60153 2.54333,-0.34671 5.93123,-0.96527 7.47448,-1.3647 1.12164,-0.29031 1.12448,-0.29417 1.12448,-1.53155 0,-0.68228 -0.18419,-1.86074 -0.40931,-2.61879 -0.51318,-1.72806 -1.77969,-2.72569 -4.08006,-3.21386 -1.92003,-0.40746 -5.27755,-0.22566 -6.65091,0.36013 -1.22792,0.52375 -2.42738,1.89922 -3.02827,3.47261 l -0.47522,1.24435 -1.7401,-0.17439 c -2.5779,-0.25834 -2.74113,-0.33284 -2.53965,-1.15915 0.31899,-1.3083 1.3781,-3.36794 2.2319,-4.34036 1.09085,-1.24241 3.47638,-2.429283 6.02016,-2.995222 2.80605,-0.624287 8.05773,-0.423153 10.18121,0.389925 2.12369,0.813167 3.77193,2.350727 4.4432,4.144837 0.46927,1.25426 0.54748,2.08906 0.56305,6.01069 0.01,2.50477 0.11127,6.99492 0.22515,9.97809 0.17269,4.52365 0.29782,5.65613 0.7539,6.82267 l 0.54685,1.3987 -2.42564,-0.0758 -2.42564,-0.0758 -0.44497,-1.7198 c -0.24473,-0.94588 -0.45309,-1.74772 -0.46302,-1.78187 -0.01,-0.0341 -0.60926,0.38539 -1.33186,0.9323 -3.70899,2.80723 -8.6237,3.90425 -12.64278,2.82201 z m 8.11378,-3.74325 c 2.93175,-0.9952 4.78247,-3.09565 5.28864,-6.00229 0.25187,-1.44639 0.41011,-4.93312 0.22344,-4.92348 -0.0364,0.002 -0.81901,0.23941 -1.73917,0.52786 -0.92016,0.28844 -3.36094,0.82689 -5.42395,1.19654 -2.06302,0.36965 -4.14092,0.79719 -4.61756,0.95009 -1.86782,0.59915 -3.23442,2.39127 -3.23442,4.24152 0,1.2513 0.96635,3.03474 1.98575,3.66476 1.77007,1.09396 4.8892,1.23711 7.51727,0.345 z m 27.67094,3.79905 c -1.80148,-0.59883 -2.81425,-1.24104 -4.14356,-2.62748 l -1.2804,-1.33544 v 1.89339 1.89338 h -2.11667 -2.11667 V 108.08636 88.374902 h 2.24896 2.24896 v 7.011458 c 0,3.856302 0.0957,7.01146 0.21268,7.01146 0.11698,0 0.62299,-0.4275 1.12448,-0.95 1.47525,-1.537053 3.70782,-2.522716 6.08278,-2.685498 5.87707,-0.402823 10.15002,2.810208 12.06636,9.073288 0.37007,1.20944 0.48241,2.46161 0.48535,5.41012 0.003,3.28922 -0.0846,4.11952 -0.61595,5.82084 -1.2024,3.84983 -3.45946,6.56803 -6.84701,8.24592 -1.37609,0.68159 -2.02792,0.83177 -3.96875,0.91441 -1.48137,0.0631 -2.70544,-0.0285 -3.38056,-0.25293 z m 5.29944,-4.08383 c 1.33299,-0.68313 2.93507,-2.27862 3.60971,-3.59485 1.67567,-3.26925 1.67382,-10.58385 -0.004,-13.83452 -2.32084,-4.49782 -8.03245,-5.37967 -11.53322,-1.78071 -1.79203,1.8423 -2.47142,3.76156 -2.70431,7.63963 -0.19357,3.22323 0.2127,6.12063 1.12093,7.99424 0.78335,1.61598 2.60154,3.31513 4.16445,3.89177 1.45386,0.53642 3.97376,0.38768 5.34595,-0.31556 z m 24.27296,4.17555 c -2.83631,-0.60437 -5.7829,-2.55849 -7.29655,-4.83891 -0.52554,-0.79176 -1.27908,-2.37913 -1.67452,-3.52749 -0.6491,-1.88493 -0.72044,-2.46092 -0.73372,-5.92439 -0.0109,-2.84708 0.10279,-4.26562 0.44093,-5.5006 1.69127,-6.17662 6.03575,-9.580648 12.22764,-9.580648 5.09516,0 8.77943,2.095458 10.49224,5.967548 0.50924,1.15123 1.05418,2.75633 0.94009,2.76899 -0.0262,0.003 -1.01582,0.16275 -2.19909,0.35519 l -2.1514,0.34991 -0.59383,-1.43277 c -0.80026,-1.93074 -1.70093,-2.93634 -3.29462,-3.67847 -2.49206,-1.16045 -5.77361,-0.68375 -8.05045,1.16946 -4.15708,3.38359 -4.31962,14.77722 -0.2631,18.44204 1.26682,1.14451 2.57132,1.69905 4.45616,1.89433 3.80712,0.39443 6.86644,-1.8434 7.71721,-5.64497 l 0.32157,-1.43695 0.9466,0.14076 c 0.52062,0.0774 1.51215,0.21701 2.20337,0.31018 1.44201,0.19439 1.49929,0.36167 0.81323,2.37514 -1.2191,3.57787 -3.52997,6.01953 -6.96479,7.35904 -1.3871,0.54094 -5.64925,0.79225 -7.33697,0.43261 z M 126.6546,127.07021 c 0.019,-3.01839 2.20256,-8.13004 5.11416,-11.97239 2.03832,-2.68992 6.74121,-7.3205 11.28541,-11.1119 11.20499,-9.348754 15.52543,-14.035718 17.77989,-19.288277 0.8067,-1.879483 0.86359,-2.211035 0.86825,-5.059555 0.005,-2.942783 -0.0265,-3.112172 -0.90396,-4.894792 -3.32378,-6.75227 -12.63174,-8.829042 -19.36732,-4.321201 -2.71905,1.819746 -4.54228,5.1586 -4.89617,8.966311 -0.15296,1.645838 -0.23082,1.842116 -0.72858,1.836864 -1.17528,-0.01241 -7.33439,-0.729871 -7.47531,-0.870786 -0.22273,-0.222734 0.64999,-4.29877 1.36081,-6.355611 0.90882,-2.629792 2.13698,-4.56106 4.23426,-6.658346 3.86596,-3.865951 8.8674,-5.691552 15.57893,-5.686544 3.18195,0.0024 5.28135,0.312711 8.04459,1.189157 8.29274,2.630297 13.45731,10.738784 12.26562,19.257303 -1.01081,7.225591 -4.84501,12.552392 -16.03827,22.281747 -10.65533,9.26178 -12.55197,11.00682 -14.22847,13.09118 -0.98227,1.22123 -1.78594,2.31742 -1.78594,2.43598 0,0.11855 7.26281,0.21555 16.13959,0.21555 h 16.13958 v 3.83646 3.83646 H 148.34584 126.65 l 0.005,-0.72761 z"
           id="path112" />
      </g>
    </g>
  </g>
</svg>
