<?xml version="1.0" encoding="UTF-8" standalone="no"?>
<svg
   xmlns:dc="http://purl.org/dc/elements/1.1/"
   xmlns:cc="http://creativecommons.org/ns#"
   xmlns:rdf="http://www.w3.org/1999/02/22-rdf-syntax-ns#"
   xmlns:svg="http://www.w3.org/2000/svg"
   xmlns="http://www.w3.org/2000/svg"
   xmlns:sodipodi="http://sodipodi.sourceforge.net/DTD/sodipodi-0.dtd"
   xmlns:inkscape="http://www.inkscape.org/namespaces/inkscape"
   width="757"
   height="757"
   viewBox="0 0 200.28958 200.28959"
   version="1.1"
   id="svg8"
   inkscape:version="1.0.1 (3bc2e813f5, 2020-09-07)"
   sodipodi:docname="key_3def.svg">
  <defs
     id="defs2" />
  <sodipodi:namedview
     id="base"
     pagecolor="#ffffff"
     bordercolor="#666666"
     borderopacity="1.0"
     inkscape:pageopacity="0.0"
     inkscape:pageshadow="2"
     inkscape:zoom="0.70710678"
     inkscape:cx="827.00274"
     inkscape:cy="392.28672"
     inkscape:document-units="mm"
     inkscape:current-layer="g146"
     inkscape:document-rotation="0"
     showgrid="false"
     units="px"
     inkscape:window-width="1920"
     inkscape:window-height="1017"
     inkscape:window-x="-8"
     inkscape:window-y="-8"
     inkscape:window-maximized="1" />
  <metadata
     id="metadata5">
    <rdf:RDF>
      <cc:Work
         rdf:about="">
        <dc:format>image/svg+xml</dc:format>
        <dc:type
           rdf:resource="http://purl.org/dc/dcmitype/StillImage" />
        <dc:title></dc:title>
      </cc:Work>
    </rdf:RDF>
  </metadata>
  <g
     inkscape:label="Ebene 1"
     inkscape:groupmode="layer"
     id="layer1">
    <g
       id="g58">
      <g
         id="g102"
         transform="translate(6.7)">
        <g
           id="g146"
           transform="translate(7.7)">
          <path
             style="fill:#c2c2c2;stroke-width:0.264583"
             d="M 30.61477,128.57006 C 22.30376,127.28182 15.6941,121.0209 14.00326,112.83505 13.78147,111.76127 13.6,110.77867 13.6,110.65149 c 0,-0.2289 7.59928,-1.29362 7.76759,-1.0883 0.0481,0.0586 0.41671,1.17816 0.81922,2.48785 0.40252,1.30969 1.00689,2.92408 1.34306,3.58754 2.19284,4.32778 6.08202,6.66139 11.05262,6.63188 3.92632,-0.0233 6.83634,-1.17358 9.4544,-3.73713 2.50814,-2.45591 3.82249,-5.31959 4.11268,-8.96061 0.48426,-6.07598 -2.83565,-11.393051 -8.31646,-13.319398 -2.01422,-0.707943 -5.49991,-0.877935 -7.97686,-0.389019 -1.09141,0.215426 -2.03173,0.346186 -2.08961,0.290573 -0.11067,-0.106328 0.45926,-5.51321 0.65316,-6.196544 0.0844,-0.297371 0.56517,-0.407376 1.91766,-0.438759 3.41222,-0.07918 7.3022,-1.442032 9.72271,-3.406343 2.27783,-1.848528 3.57556,-5.806959 3.02781,-9.235689 -0.81104,-5.07697 -4.38898,-8.287811 -9.78336,-8.779597 -6.20765,-0.565931 -11.01325,3.212793 -12.62466,9.926986 -0.40544,1.689328 -0.52043,1.89402 -0.99876,1.777937 -0.29732,-0.07216 -2.05648,-0.394126 -3.90924,-0.715492 l -3.36867,-0.584303 0.15706,-0.688517 c 0.0864,-0.378682 0.50801,-1.760077 0.93694,-3.069765 2.54454,-7.769529 8.91176,-12.603024 17.15271,-13.020989 9.97361,-0.505839 17.97662,4.686056 20.11574,13.049956 0.9301,3.63665 0.53389,7.380809 -1.10678,10.459027 -1.07359,2.014249 -3.54828,4.48746 -5.68679,5.683384 -0.93932,0.525299 -1.6485,1.01445 -1.57594,1.087004 0.0726,0.07255 0.88475,0.394978 1.80487,0.716494 5.18721,1.812555 8.75821,5.877404 9.89339,11.261584 0.55612,2.6377 0.36694,7.90915 -0.36637,10.20847 -0.85303,2.67474 -2.41098,5.3166 -4.37636,7.42111 -4.42794,4.7414 -9.23217,6.88587 -15.92364,7.10786 -1.74625,0.0579 -3.91226,-0.009 -4.81335,-0.14863 z m 67.58685,-0.51883 c -2.74586,-0.68918 -5.81081,-3.00375 -7.26625,-5.48728 -3.7805,-6.45093 -2.76241,-16.72641 2.09175,-21.11186 0.59027,-0.53327 1.86181,-1.34323 2.82565,-1.799899 1.63394,-0.77417 1.94924,-0.830318 4.66286,-0.830318 3.32304,0 4.17743,0.311357 6.68073,2.434617 l 1.38906,1.17818 v -7.031922 -7.031916 h 2.38125 2.38125 v 19.711458 19.71146 h -2.11667 -2.11667 v -1.85209 c 0,-1.01864 -0.0528,-1.85208 -0.11731,-1.85208 -0.0645,0 -0.7251,0.64265 -1.46796,1.42811 -1.78246,1.88469 -3.43717,2.60443 -6.21993,2.70545 -1.16417,0.0423 -2.56266,-0.0351 -3.10776,-0.17191 z m 5.1939,-3.80693 c 3.90674,-1.17576 6.08964,-5.82587 5.60465,-11.93928 -0.29545,-3.72426 -1.05599,-5.82437 -2.75901,-7.61859 -1.28063,-1.34921 -2.72347,-2.05826 -4.51576,-2.21916 -5.18096,-0.46513 -8.32137,3.65096 -8.32137,10.90669 0,4.8423 1.29359,8.10878 3.90318,9.85602 2.09723,1.4042 3.83233,1.69327 6.08831,1.01432 z m 26.88573,3.91308 c -4.76304,-0.92155 -8.03607,-3.68518 -9.71236,-8.20079 -0.92072,-2.48025 -1.16062,-7.76844 -0.4893,-10.78589 0.65665,-2.9515 1.97519,-5.39409 3.84759,-7.1276 2.58263,-2.391051 5.10316,-3.340583 8.86761,-3.340583 3.82752,0 6.49767,1.027401 8.90043,3.424623 2.49954,2.49381 3.67125,5.45523 4.05725,10.25463 l 0.17555,2.18281 h -10.77148 -10.7715 l 0.16291,1.55868 c 0.36781,3.51897 2.12968,6.26877 4.88281,7.62074 1.30528,0.64097 1.81936,0.74099 3.76091,0.73173 1.90956,-0.009 2.45455,-0.11754 3.61125,-0.7185 1.55961,-0.81028 2.79119,-2.1785 3.46379,-3.84812 l 0.46558,-1.15569 1.5875,0.16517 c 0.87313,0.0908 1.96797,0.23195 2.43301,0.31357 l 0.84547,0.14841 -0.52276,1.32629 c -0.68204,1.73038 -1.75342,3.26575 -3.22599,4.62311 -2.18757,2.01642 -4.18293,2.71779 -8.12868,2.85722 -1.52797,0.054 -3.07579,0.0406 -3.43959,-0.0298 z m 10.45652,-18.54334 c -0.7184,-4.79063 -3.95739,-7.49206 -8.5846,-7.15988 -3.88712,0.27905 -6.87889,3.14607 -7.33926,7.03322 l -0.16262,1.37303 h 8.13669 8.13669 z m 12.49868,5.67815 -0.0687,-12.50157 -2.18281,-0.0768 -2.18281,-0.0768 v -1.70909 -1.709092 h 2.24895 2.24896 l 0.0116,-3.108854 c 0.0172,-4.577768 0.82196,-6.278626 3.61847,-7.646839 1.34025,-0.655714 1.81256,-0.742513 4.03709,-0.741889 1.3856,2.65e-4 2.9491,0.08946 3.47443,0.197935 l 0.95515,0.197231 -0.23376,1.384019 c -0.45257,2.67947 -0.18328,2.444541 -2.8008,2.443385 -3.72727,-0.0016 -4.56427,0.918483 -4.56427,5.017556 v 2.257456 h 2.77812 2.77813 v 1.719792 1.71979 h -2.77813 -2.77812 v 12.56771 12.56771 h -2.24637 -2.24637 l -0.0687,-12.50156 z"
             id="path158" />
        </g>
      </g>
    </g>
  </g>
</svg>
