<?xml version="1.0" encoding="UTF-8" standalone="no"?>
<svg
   xmlns:dc="http://purl.org/dc/elements/1.1/"
   xmlns:cc="http://creativecommons.org/ns#"
   xmlns:rdf="http://www.w3.org/1999/02/22-rdf-syntax-ns#"
   xmlns:svg="http://www.w3.org/2000/svg"
   xmlns="http://www.w3.org/2000/svg"
   xmlns:sodipodi="http://sodipodi.sourceforge.net/DTD/sodipodi-0.dtd"
   xmlns:inkscape="http://www.inkscape.org/namespaces/inkscape"
   width="757"
   height="757"
   viewBox="0 0 200.28958 200.28959"
   version="1.1"
   id="svg8"
   inkscape:version="1.0.1 (3bc2e813f5, 2020-09-07)"
   sodipodi:docname="key_8tuv.svg">
  <defs
     id="defs2" />
  <sodipodi:namedview
     id="base"
     pagecolor="#ffffff"
     bordercolor="#666666"
     borderopacity="1.0"
     inkscape:pageopacity="0.0"
     inkscape:pageshadow="2"
     inkscape:zoom="0.70710678"
     inkscape:cx="964.76389"
     inkscape:cy="356.71852"
     inkscape:document-units="mm"
     inkscape:current-layer="g296"
     inkscape:document-rotation="0"
     showgrid="false"
     units="px"
     inkscape:window-width="1920"
     inkscape:window-height="1017"
     inkscape:window-x="-8"
     inkscape:window-y="-8"
     inkscape:window-maximized="1" />
  <metadata
     id="metadata5">
    <rdf:RDF>
      <cc:Work
         rdf:about="">
        <dc:format>image/svg+xml</dc:format>
        <dc:type
           rdf:resource="http://purl.org/dc/dcmitype/StillImage" />
        <dc:title></dc:title>
      </cc:Work>
    </rdf:RDF>
  </metadata>
  <g
     inkscape:label="Ebene 1"
     inkscape:groupmode="layer"
     id="layer1">
    <g
       id="g58">
      <g
         id="g102"
         transform="translate(6.7)">
        <g
           id="g176"
           transform="translate(3.8467722)">
          <g
             id="g206"
             transform="translate(3.4999998)" />
          <g
             id="g266"
             transform="translate(4.2000046)">
            <g
               id="g296"
               transform="translate(5.3064589)">
              <g
                 id="g334"
                 transform="translate(-104.519)">
                <path
                   style="fill:#c2c2c2;stroke-width:0.264583"
                   d="m 132.18705,128.83679 c -6.93902,-0.9371 -12.91132,-4.98409 -15.8169,-10.71796 -1.48659,-2.93366 -1.91066,-4.96244 -1.90432,-9.11049 0.007,-4.29756 0.29823,-5.65737 1.89242,-8.823 1.8573,-3.688093 4.51973,-5.773639 9.98473,-7.821276 0.40258,-0.150839 0.10532,-0.382431 -1.45521,-1.133742 -1.88439,-0.90723 -4.27818,-2.731127 -5.31581,-4.05026 -0.84727,-1.077127 -2.05323,-3.918014 -2.36274,-5.565887 -0.44371,-2.362462 -0.15095,-6.246458 0.63228,-8.388501 1.33173,-3.642103 3.96261,-6.854618 7.2018,-8.793972 4.43335,-2.654313 11.71017,-3.419782 17.3118,-1.821074 2.20463,0.6292 5.29154,2.318681 6.97012,3.81477 1.84448,1.643963 3.90134,4.674545 4.68422,6.901749 0.73357,2.08692 1.01091,6.533084 0.54692,8.768104 -0.80472,3.876289 -3.48459,7.199718 -7.34338,9.106835 l -1.91139,0.94466 2.64978,1.29994 c 4.48036,2.197995 7.4132,5.489329 8.79771,9.873104 1.4973,4.74086 0.98992,10.56338 -1.30267,14.94896 -2.60913,4.99113 -7.41048,8.6786 -13.07933,10.04502 -2.62848,0.63357 -7.50586,0.88416 -10.18003,0.52302 z m 8.80458,-7.13441 c 6.56642,-2.27987 9.96697,-9.75647 7.72887,-16.99303 -2.59946,-8.404986 -13.8981,-11.836124 -21.11399,-6.41184 -3.06685,2.30539 -4.79276,5.7246 -5.00583,9.91708 -0.34355,6.76013 3.20714,11.87323 9.58637,13.80465 2.16729,0.65618 6.4455,0.50222 8.80458,-0.31686 z m -2.64257,-32.791814 c 3.04237,-0.576977 5.69852,-2.545866 7.2199,-5.351817 0.88244,-1.627515 0.90552,-1.747978 0.90284,-4.712914 -0.003,-2.791619 -0.0638,-3.167529 -0.74266,-4.555271 -2.79294,-5.709478 -10.11395,-7.736991 -15.75484,-4.363215 -4.48944,2.685109 -6.06957,8.518089 -3.68668,13.609215 1.88605,4.029601 7.04054,6.326195 12.06144,5.374002 z m 75.03528,39.320554 c -1.81517,-0.46324 -4.02577,-1.74502 -4.92444,-2.85536 -0.40374,-0.49883 -0.99499,-1.61737 -1.31389,-2.48563 -0.55415,-1.50878 -0.58461,-2.06185 -0.68817,-12.49273 l -0.10835,-10.914065 h 2.38433 2.38433 l 0.10577,10.384895 c 0.11633,11.42173 0.10993,11.37521 1.80257,13.09557 0.85022,0.86414 2.86868,1.65495 4.2241,1.65495 1.09217,0 3.41709,-0.77135 4.51515,-1.49801 1.14022,-0.75457 2.16404,-2.17916 2.6487,-3.68553 0.23218,-0.72166 0.36556,-3.89245 0.44139,-10.49302 l 0.10866,-9.458855 h 2.36076 2.36076 v 14.287505 14.2875 h -2.11667 -2.11666 v -2.15219 -2.15219 l -1.43795,1.49655 c -2.01794,2.10019 -4.21909,3.10048 -7.10557,3.22906 -1.25471,0.0559 -2.74343,-0.049 -3.52482,-0.24845 z m -17.37877,-0.26688 c -1.35549,-0.38397 -2.60476,-1.39433 -3.3187,-2.68403 -0.38496,-0.6954 -0.45016,-2.12962 -0.52627,-11.57552 l -0.0869,-10.78177 h -1.83136 -1.83136 v -1.71979 -1.719795 h 1.85208 1.85209 V 95.8393 92.195265 l 2.3151,-1.377291 2.31511,-1.377294 0.0719,5.021329 0.0719,5.021326 h 2.37554 2.37554 v 1.719795 1.71979 h -2.39045 -2.39046 l 0.0754,9.91269 c 0.088,11.57397 -0.12368,10.77765 2.9209,10.98939 l 1.90221,0.13229 0.30368,1.98438 c 0.16702,1.09141 0.27746,2.01616 0.24542,2.05501 -0.24489,0.29688 -5.22931,0.27122 -6.30126,-0.0324 z m 44.04002,-13.98532 c -2.93738,-7.75429 -5.33885,-14.192476 -5.33659,-14.307077 0.002,-0.114602 1.09853,-0.174133 2.43617,-0.132292 l 2.43208,0.07608 2.99233,8.334369 c 1.64576,4.58391 3.42196,9.68052 3.94713,11.32581 0.52517,1.64529 0.99566,2.95063 1.0455,2.90076 0.0499,-0.0499 0.51359,-1.33649 1.03048,-2.85914 0.51689,-1.52266 2.33487,-6.60824 4.03997,-11.30128 l 3.10018,-8.532811 h 2.42501 2.42504 l -3.82894,10.120311 c -2.10593,5.56617 -4.52017,11.96578 -5.36499,14.22135 l -1.53604,4.10104 -2.23332,0.0758 -2.23332,0.0758 z"
                   id="path336" />
              </g>
            </g>
          </g>
        </g>
      </g>
    </g>
  </g>
</svg>
