<?xml version="1.0" encoding="UTF-8" standalone="no"?>
<svg
   xmlns:dc="http://purl.org/dc/elements/1.1/"
   xmlns:cc="http://creativecommons.org/ns#"
   xmlns:rdf="http://www.w3.org/1999/02/22-rdf-syntax-ns#"
   xmlns:svg="http://www.w3.org/2000/svg"
   xmlns="http://www.w3.org/2000/svg"
   xmlns:sodipodi="http://sodipodi.sourceforge.net/DTD/sodipodi-0.dtd"
   xmlns:inkscape="http://www.inkscape.org/namespaces/inkscape"
   width="757"
   height="757"
   viewBox="0 0 200.28958 200.28959"
   version="1.1"
   id="svg8"
   inkscape:version="1.0.1 (3bc2e813f5, 2020-09-07)"
   sodipodi:docname="key_7pqrs.svg">
  <defs
     id="defs2" />
  <sodipodi:namedview
     id="base"
     pagecolor="#ffffff"
     bordercolor="#666666"
     borderopacity="1.0"
     inkscape:pageopacity="0.0"
     inkscape:pageshadow="2"
     inkscape:zoom="0.5"
     inkscape:cx="1071.1392"
     inkscape:cy="612.24636"
     inkscape:document-units="mm"
     inkscape:current-layer="g296"
     inkscape:document-rotation="0"
     showgrid="false"
     units="px"
     inkscape:window-width="1920"
     inkscape:window-height="1017"
     inkscape:window-x="-8"
     inkscape:window-y="-8"
     inkscape:window-maximized="1" />
  <metadata
     id="metadata5">
    <rdf:RDF>
      <cc:Work
         rdf:about="">
        <dc:format>image/svg+xml</dc:format>
        <dc:type
           rdf:resource="http://purl.org/dc/dcmitype/StillImage" />
        <dc:title></dc:title>
      </cc:Work>
    </rdf:RDF>
  </metadata>
  <g
     inkscape:label="Ebene 1"
     inkscape:groupmode="layer"
     id="layer1">
    <g
       id="g58">
      <g
         id="g102"
         transform="translate(6.7)">
        <g
           id="g176"
           transform="translate(3.8467722)">
          <g
             id="g206"
             transform="translate(3.4999998)" />
          <g
             id="g266"
             transform="translate(4.2000046)">
            <g
               id="g296"
               transform="translate(5.3064589)">
              <path
                 style="fill:#c2c2c2;stroke-width:0.264583"
                 d="M 66.846764,119.19479 V 99.483335 h 2.11667 2.11666 v 1.884135 1.88413 l 1.82495,-1.72156 c 2.6374,-2.48799 5.33195,-3.230943 8.968206,-2.472761 6.11847,1.275741 9.68822,6.608781 9.67162,14.448971 -0.0108,5.13006 -1.4728,9.09069 -4.333,11.73873 -4.39888,4.07258 -10.407876,4.35929 -14.392176,0.6867 l -1.21043,-1.11574 v 7.04516 7.04515 h -2.38125 -2.38125 z m 14.934496,4.92845 c 2.83714,-1.255 4.45714,-4.00378 4.96587,-8.426 0.58828,-5.11366 -0.7452,-9.73884 -3.40532,-11.81132 -3.641166,-2.83681 -8.472396,-1.50801 -10.786326,2.96671 -2.02375,3.91357 -1.86393,11.32994 0.313,14.52463 2.13461,3.13258 5.61483,4.20482 8.912776,2.74598 z m 34.278,7.74907 v -7.03395 l -1.25677,1.11784 c -6.33467,5.63441 -16.02487,1.46391 -18.20901,-7.83683 -0.58062,-2.47245 -0.58471,-7.13188 -0.008,-9.37562 1.42775,-5.55702 4.77508,-8.933152 9.70692,-9.790428 1.31154,-0.227981 2.15834,-0.22741 3.42519,0.0024 2.21436,0.401537 3.47859,1.076538 5.33791,2.850028 l 1.53315,1.46238 v -1.89235 -1.892363 h 2.11667 2.11667 v 19.711463 19.71146 h -2.38125 -2.38125 v -7.03395 z m -5.40374,-7.37708 c 2.63019,-0.78108 4.35412,-2.63249 5.33155,-5.72582 0.62539,-1.97919 0.61501,-7.70969 -0.0177,-9.78239 -1.45293,-4.75949 -5.37132,-7.42956 -9.3308,-6.35819 -2.49213,0.67433 -4.61033,3.27364 -5.41432,6.64409 -0.44837,1.8796 -0.44623,6.60056 0.004,8.46667 0.83288,3.45343 2.66598,5.71093 5.40643,6.65813 1.66862,0.57675 2.35152,0.59331 4.02104,0.0975 z m 43.53023,3.81875 c -2.06505,-0.29993 -4.42027,-1.29977 -5.69979,-2.41969 -1.12313,-0.98304 -2.45515,-3.19538 -3.05697,-5.07729 -0.40103,-1.25404 -0.2749,-1.36064 1.90137,-1.60686 0.86514,-0.0979 1.73527,-0.24024 1.93366,-0.31637 0.24045,-0.0923 0.44902,0.18148 0.62566,0.82122 0.45958,1.66443 1.57554,3.26589 2.75526,3.95387 1.65071,0.96266 4.23244,1.33935 6.52704,0.95232 2.88454,-0.48655 4.4555,-1.83246 4.70312,-4.0294 0.2752,-2.44141 -0.68516,-3.24288 -5.49081,-4.58246 -7.58381,-2.11397 -9.65528,-3.00233 -10.94563,-4.69406 -2.99381,-3.92508 -1.16689,-9.73195 3.62595,-11.525183 4.50014,-1.683718 10.3168,-1.129861 13.61618,1.296523 1.08704,0.79943 2.45065,3.11839 2.81649,4.78975 0.16806,0.76784 0.30779,0.71436 -3.04057,1.16384 l -1.21192,0.16269 -0.4589,-1.20161 c -0.5421,-1.41948 -1.86904,-2.67041 -3.2816,-3.09363 -1.52886,-0.45805 -5.77757,-0.21844 -7.02992,0.39647 -2.63218,1.2924 -2.69002,4.53192 -0.10478,5.8688 0.44522,0.23022 3.0243,1.05224 5.73133,1.82671 5.73966,1.64208 7.00569,2.14548 8.33813,3.31539 1.36657,1.19986 2.06449,2.70191 2.20588,4.74749 0.43585,6.30515 -6.07269,10.46952 -14.45918,9.25148 z M 0.025654,125.34636 c 0.27345,-3.58411 1.36692,-9.79259 2.56783,-14.57955 3.40958,-13.590954 9.93505,-26.920125 18.50933,-37.807867 1.00271,-1.27326 1.82312,-2.374588 1.82312,-2.447396 0,-0.07281 -7.26282,-0.132379 -16.13959,-0.132379 H -9.3532357 v -3.704167 -3.704167 h 21.2989597 21.29896 v 2.913862 2.913862 l -2.33621,2.840826 c -10.68555,12.99365 -19.42713,31.919196 -21.84332,47.290826 -0.6311,4.01498 -0.95589,6.67354 -0.95589,7.82435 v 1.03919 h -4.13517 -4.13517 z M 128.49468,113.63854 V 99.483335 h 2.10597 2.10596 l 0.0769,2.182815 0.0768,2.18281 0.44418,-0.81033 c 0.24429,-0.44568 0.99934,-1.42778 1.67786,-2.18245 1.5507,-1.724751 3.21725,-2.319485 5.36064,-1.912997 1.13094,0.214476 3.49753,1.168367 3.49753,1.409727 0,0.0358 -0.34684,0.95611 -0.77076,2.04515 -0.50408,1.29499 -0.89312,1.94457 -1.12448,1.87747 -3.49146,-1.01269 -4.97228,-0.83508 -6.59884,0.79146 -1.80271,1.80271 -1.91444,2.53429 -2.02644,13.26791 l -0.0987,9.45885 h -2.36331 -2.36331 z"
                 id="path304" />
              <path
                 style="fill:#bfc0c0;stroke-width:0.264583"
                 d="m 255.12823,100.70636 c 0,-0.055 0.20836,-0.2633 0.46302,-0.46303 0.41965,-0.329103 0.42899,-0.319744 0.0999,0.0999 -0.34565,0.44073 -0.56292,0.58089 -0.56292,0.36313 z"
                 id="path302" />
              <path
                 style="fill:#bbbcbc;stroke-width:0.264583"
                 d="m 192.81885,101.6 c 0.26339,-0.29104 0.53842,-0.52916 0.61118,-0.52916 0.0728,0 -0.0832,0.23812 -0.3466,0.52916 -0.26339,0.29104 -0.53842,0.52917 -0.61118,0.52917 -0.0728,0 0.0832,-0.23813 0.3466,-0.52917 z"
                 id="path300" />
            </g>
          </g>
        </g>
      </g>
    </g>
  </g>
</svg>
