<?xml version="1.0" encoding="UTF-8" standalone="no"?>
<svg
   xmlns:dc="http://purl.org/dc/elements/1.1/"
   xmlns:cc="http://creativecommons.org/ns#"
   xmlns:rdf="http://www.w3.org/1999/02/22-rdf-syntax-ns#"
   xmlns:svg="http://www.w3.org/2000/svg"
   xmlns="http://www.w3.org/2000/svg"
   xmlns:sodipodi="http://sodipodi.sourceforge.net/DTD/sodipodi-0.dtd"
   xmlns:inkscape="http://www.inkscape.org/namespaces/inkscape"
   width="210.40511"
   height="226"
   viewBox="0 0 55.669682 59.795835"
   version="1.1"
   id="svg8"
   inkscape:version="1.0.1 (3bc2e813f5, 2020-09-07)"
   sodipodi:docname="key_BrakeType_8.svg">
  <defs
     id="defs2" />
  <sodipodi:namedview
     id="base"
     pagecolor="#ffffff"
     bordercolor="#666666"
     borderopacity="1.0"
     inkscape:pageopacity="0.0"
     inkscape:pageshadow="2"
     inkscape:zoom="1.4142136"
     inkscape:cx="32.217917"
     inkscape:cy="122.99608"
     inkscape:document-units="mm"
     inkscape:current-layer="g296"
     inkscape:document-rotation="0"
     showgrid="false"
     units="px"
     inkscape:window-width="2876"
     inkscape:window-height="1368"
     inkscape:window-x="548"
     inkscape:window-y="0"
     inkscape:window-maximized="0"
     fit-margin-top="0"
     fit-margin-left="0"
     fit-margin-right="0"
     fit-margin-bottom="0"
     lock-margins="false"
     showguides="false" />
  <metadata
     id="metadata5">
    <rdf:RDF>
      <cc:Work
         rdf:about="">
        <dc:format>image/svg+xml</dc:format>
        <dc:type
           rdf:resource="http://purl.org/dc/dcmitype/StillImage" />
        <dc:title />
      </cc:Work>
    </rdf:RDF>
  </metadata>
  <g
     inkscape:label="Ebene 1"
     inkscape:groupmode="layer"
     id="layer1"
     transform="translate(343.97119,-0.52071071)">
    <g
       id="g58">
      <g
         id="g102"
         transform="translate(6.7)">
        <g
           id="g176"
           transform="translate(3.8467722)">
          <g
             id="g206"
             transform="translate(3.4999998)" />
          <g
             id="g266"
             transform="translate(4.2000046)">
            <g
               id="g296"
               transform="translate(5.3064589)">
              <g
                 id="g857"
                 style="opacity:1"
                 transform="matrix(0.30941927,0,0,1,-232.16605,0)">
                <path
                   style="color:#000000;font-style:normal;font-variant:normal;font-weight:normal;font-stretch:normal;font-size:medium;line-height:normal;font-family:sans-serif;font-variant-ligatures:normal;font-variant-position:normal;font-variant-caps:normal;font-variant-numeric:normal;font-variant-alternates:normal;font-variant-east-asian:normal;font-feature-settings:normal;font-variation-settings:normal;text-indent:0;text-align:start;text-decoration:none;text-decoration-line:none;text-decoration-style:solid;text-decoration-color:#000000;letter-spacing:normal;word-spacing:normal;text-transform:none;writing-mode:lr-tb;direction:ltr;text-orientation:mixed;dominant-baseline:auto;baseline-shift:baseline;text-anchor:start;white-space:normal;shape-padding:0;shape-margin:0;inline-size:0;clip-rule:nonzero;display:inline;overflow:visible;visibility:visible;isolation:auto;mix-blend-mode:normal;color-interpolation:sRGB;color-interpolation-filters:linearRGB;solid-color:#000000;solid-opacity:1;vector-effect:none;fill:#031122;fill-opacity:1;fill-rule:nonzero;stroke:none;stroke-width:6.01797;stroke-linecap:butt;stroke-linejoin:miter;stroke-miterlimit:5.7;stroke-dasharray:none;stroke-dashoffset:0;stroke-opacity:1;color-rendering:auto;image-rendering:auto;shape-rendering:auto;text-rendering:auto;enable-background:accumulate;stop-color:#000000;stop-opacity:1"
                   d="m -426.14791,0.52071071 h 179.91666 v 6.88e-6 59.79581941 7e-6 h -179.91666 c -10e-6,0 -10e-6,-3e-6 -10e-6,-7e-6 V 0.52071759 c 0,-3.93e-6 0,-6.88e-6 10e-6,-6.88e-6 z"
                   id="path859" />
              </g>
              <g
                 aria-label="P/R"
                 id="text865"
                 style="font-size:22.5778px;line-height:1.25;font-family:FreeSans;-inkscape-font-specification:FreeSans;fill:#c2c2c2;fill-opacity:1;stroke-width:0.264583">
                <path
                   d="m -341.61955,26.896492 q 0,2.099735 -1.28693,3.38667 -1.26436,1.264357 -3.31894,1.264357 h -5.17031 v 6.97654 h -2.09974 V 22.064843 h 6.79592 q 2.4384,0 3.74791,1.264356 1.33209,1.241779 1.33209,3.567293 z m -9.77618,2.799647 h 4.38009 q 1.51271,0 2.34809,-0.767645 0.85796,-0.767645 0.85796,-2.122313 0,-1.354668 -0.85796,-2.122314 -0.83538,-0.767645 -2.34809,-0.767645 h -4.38009 z"
                   style="font-size:22.5778px;fill:#c2c2c2;fill-opacity:1;stroke-width:0.264583"
                   id="path1470" />
                <path
                   d="m -335.32034,22.064843 h 1.24178 l -5.35094,16.910772 h -1.24178 z"
                   style="font-size:22.5778px;fill:#c2c2c2;fill-opacity:1;stroke-width:0.264583"
                   id="path1472" />
                <path
                   d="m -322.11233,30.396051 q 0.72249,0.316089 1.19662,0.745067 0.49671,0.428979 0.69991,0.970846 0.22578,0.541867 0.29351,1.016001 0.0677,0.474134 0.0677,1.12889 0,0.2032 -0.0226,0.587023 0,0.383822 0,0.564445 0,0.92569 0.2032,1.557868 0.2032,0.632178 0.79022,1.038579 v 0.519289 h -2.55129 q -0.45156,-1.038579 -0.45156,-2.686758 v -1.467557 q 0,-1.512713 -0.65475,-2.212625 -0.65476,-0.722489 -2.05458,-0.722489 h -5.41867 v 7.089429 h -2.09974 V 22.064843 h 7.58614 q 2.41583,0 3.70276,1.151467 1.30951,1.12889 1.30951,3.251204 0,1.399823 -0.6096,2.325513 -0.6096,0.92569 -1.98684,1.603024 z m 0.4064,-3.635026 q 0,-1.625602 -0.85796,-2.235202 -0.85796,-0.609601 -2.37067,-0.609601 h -5.08 v 5.667028 h 5.08 q 1.67076,0 2.4384,-0.677334 0.79023,-0.677334 0.79023,-2.144891 z"
                   style="font-size:22.5778px;fill:#c2c2c2;fill-opacity:1;stroke-width:0.264583"
                   id="path1474" />
              </g>
            </g>
          </g>
        </g>
      </g>
    </g>
  </g>
</svg>
