<?xml version="1.0" encoding="UTF-8" standalone="no"?>
<svg
   xmlns:dc="http://purl.org/dc/elements/1.1/"
   xmlns:cc="http://creativecommons.org/ns#"
   xmlns:rdf="http://www.w3.org/1999/02/22-rdf-syntax-ns#"
   xmlns:svg="http://www.w3.org/2000/svg"
   xmlns="http://www.w3.org/2000/svg"
   xmlns:sodipodi="http://sodipodi.sourceforge.net/DTD/sodipodi-0.dtd"
   xmlns:inkscape="http://www.inkscape.org/namespaces/inkscape"
   width="757"
   height="757"
   viewBox="0 0 200.28958 200.28959"
   version="1.1"
   id="svg8"
   inkscape:version="1.0.1 (3bc2e813f5, 2020-09-07)"
   sodipodi:docname="key_6mno.svg">
  <defs
     id="defs2" />
  <sodipodi:namedview
     id="base"
     pagecolor="#ffffff"
     bordercolor="#666666"
     borderopacity="1.0"
     inkscape:pageopacity="0.0"
     inkscape:pageshadow="2"
     inkscape:zoom="0.70710678"
     inkscape:cx="1034.5964"
     inkscape:cy="484.86452"
     inkscape:document-units="mm"
     inkscape:current-layer="g266"
     inkscape:document-rotation="0"
     showgrid="false"
     units="px"
     inkscape:window-width="1920"
     inkscape:window-height="1017"
     inkscape:window-x="-8"
     inkscape:window-y="-8"
     inkscape:window-maximized="1" />
  <metadata
     id="metadata5">
    <rdf:RDF>
      <cc:Work
         rdf:about="">
        <dc:format>image/svg+xml</dc:format>
        <dc:type
           rdf:resource="http://purl.org/dc/dcmitype/StillImage" />
        <dc:title></dc:title>
      </cc:Work>
    </rdf:RDF>
  </metadata>
  <g
     inkscape:label="Ebene 1"
     inkscape:groupmode="layer"
     id="layer1">
    <g
       id="g58">
      <g
         id="g102"
         transform="translate(6.7)">
        <g
           id="g176"
           transform="translate(3.8467722)">
          <g
             id="g206"
             transform="translate(3.4999998)" />
          <g
             id="g266"
             transform="translate(4.2000046)">
            <path
               style="fill:#c2c2c2;stroke-width:0.264583"
               d="M 16.10715,128.4717 C 10.37663,127.27213 5.12247,123.47795 2.30154,118.50229 -0.09657991,114.27238 -1.3884199,109.03567 -1.88437,101.53386 -2.55144,91.443827 -1.1340899,81.125326 1.82482,74.530491 4.56229,68.429165 9.61217,64.027078 15.738,62.402057 c 3.08774,-0.819095 8.44645,-0.81815 11.35776,0.0021 3.44532,0.970587 5.32615,2.043469 7.71913,4.403233 1.71453,1.690727 2.36677,2.569228 3.24125,4.365625 0.99482,2.04361 1.7287,4.342794 1.94241,6.085416 0.0799,0.651714 0.046,0.664028 -2.30013,0.835922 -1.30969,0.09595 -3.04739,0.241025 -3.86155,0.322382 L 32.35658,78.564653 31.8994,76.920291 C 30.53853,72.025507 27.24546,68.927565 22.74125,68.304786 15.15777,67.25625 8.79357,73.178845 6.75086,83.185638 6.23839,85.696092 5.83122,89.667414 5.82589,92.20739 l -0.004,1.852083 0.71872,-0.926041 c 2.52026,-3.247232 5.18824,-5.312008 8.49953,-6.577873 11.32933,-4.331047 23.19928,2.434032 25.74117,14.670741 1.065,5.12695 0.33663,11.38298 -1.88188,16.1635 -1.70885,3.6823 -5.05023,7.37427 -8.18725,9.04628 -3.02106,1.61021 -5.36943,2.19232 -9.28574,2.30174 -2.38642,0.0667 -4.15186,-0.0216 -5.3194,-0.26602 z m 9.34509,-7.08512 c 5.60969,-2.67297 8.61174,-9.38718 7.60481,-17.00845 -0.95611,-7.236662 -5.22644,-11.669004 -11.7628,-12.209069 -3.91768,-0.323699 -7.31793,0.949079 -10.16909,3.806492 -2.93201,2.93843 -3.98612,5.777527 -3.98612,10.736017 0,7.57298 4.07058,13.62636 10.34847,15.38926 0.94639,0.26575 2.20049,0.36733 3.7314,0.30222 1.96745,-0.0837 2.58881,-0.23286 4.23333,-1.01647 z m 134.5362,6.64648 c -2.72346,-0.64092 -5.69529,-2.7513 -7.31245,-5.19279 -0.45135,-0.68141 -1.13403,-2.19712 -1.51709,-3.36824 -0.60823,-1.85961 -0.69816,-2.58174 -0.71012,-5.70119 -0.0153,-4.01485 0.34431,-5.81687 1.69527,-8.4931 3.68247,-7.294936 14.92554,-8.847197 20.88875,-2.88399 1.44483,1.44483 2.26306,2.82419 3.09684,5.22062 0.64667,1.85871 0.71461,2.40993 0.70988,5.75959 -0.008,5.47744 -0.85416,8.17388 -3.44353,10.97072 -1.49881,1.6189 -3.58412,2.8755 -5.90132,3.55613 -1.57229,0.46183 -5.79001,0.53614 -7.50623,0.13225 z m 6.41268,-3.85566 c 2.5431,-0.82134 4.41354,-3.03346 5.33154,-6.30552 0.56856,-2.02657 0.48877,-7.30517 -0.13801,-9.12813 -1.12895,-3.28356 -2.9537,-5.12605 -5.93502,-5.99274 -3.17688,-0.92354 -7.02419,0.55628 -8.75364,3.36699 -1.27278,2.06852 -1.7123,3.95617 -1.72034,7.38825 -0.0106,4.53367 0.94916,7.31659 3.16529,9.17789 2.20778,1.85432 5.20866,2.41096 8.05018,1.49326 z M 75.13696,113.50625 V 99.218752 h 2.11667 2.11666 v 2.025678 2.02567 l 1.32004,-1.37677 c 3.65324,-3.810257 10.25849,-4.283438 13.56983,-0.9721 0.64332,0.64331 1.32013,1.53292 1.50404,1.9769 l 0.33437,0.80725 1.62388,-1.66685 c 2.64668,-2.716694 5.4212,-3.688665 9.04086,-3.1672 2.37643,0.34236 4.05451,1.2679 5.32945,2.93946 1.49554,1.96079 1.51275,2.11646 1.60739,14.53973 l 0.0872,11.44323 h -2.25956 -2.25956 l -0.0158,-9.85573 c -0.009,-5.42065 -0.10785,-10.41466 -0.22041,-11.0978 -0.25937,-1.57432 -1.22007,-2.99516 -2.40965,-3.56378 -2.97233,-1.42078 -7.26852,-0.0457 -8.71484,2.78932 -0.90311,1.77022 -1.07475,3.83247 -1.07475,12.91304 v 8.81495 h -2.22991 -2.22991 l -0.10544,-10.38489 c -0.11397,-11.22545 -0.17176,-11.71916 -1.55635,-13.29612 -1.79579,-2.04529 -5.80967,-1.91654 -8.36209,0.26824 -2.23743,1.91515 -2.70275,4.76542 -2.71002,16.59975 l -0.004,6.81302 H 77.3861 75.13714 Z m 46.30209,0 V 99.218752 h 1.98437 1.98438 v 2.164918 2.16491 l 1.38906,-1.48863 c 2.66661,-2.857743 6.55926,-3.951496 10.64358,-2.990619 3.29139,0.774329 5.14239,2.281889 6.248,5.088669 0.59275,1.50477 0.61042,1.81701 0.71303,12.5894 l 0.10525,11.04635 h -2.40573 -2.40569 v -9.77656 c 0,-6.15333 -0.10864,-10.28309 -0.29311,-11.14332 -0.60534,-2.82252 -3.23954,-4.47477 -6.57788,-4.12585 -2.99798,0.31335 -5.13054,1.82879 -6.13925,4.36265 -0.5743,1.44263 -0.60115,1.87245 -0.69304,11.09194 l -0.0956,9.59114 h -2.22869 -2.22868 z"
               id="path278" />
          </g>
        </g>
      </g>
    </g>
  </g>
</svg>
