<?xml version="1.0" encoding="UTF-8" standalone="no"?>
<svg
   xmlns:dc="http://purl.org/dc/elements/1.1/"
   xmlns:cc="http://creativecommons.org/ns#"
   xmlns:rdf="http://www.w3.org/1999/02/22-rdf-syntax-ns#"
   xmlns:svg="http://www.w3.org/2000/svg"
   xmlns="http://www.w3.org/2000/svg"
   xmlns:sodipodi="http://sodipodi.sourceforge.net/DTD/sodipodi-0.dtd"
   xmlns:inkscape="http://www.inkscape.org/namespaces/inkscape"
   width="139.58598"
   height="226"
   viewBox="0 0 36.932123 59.795835"
   version="1.1"
   id="svg8"
   inkscape:version="1.0.1 (3bc2e813f5, 2020-09-07)"
   sodipodi:docname="key_BrakeType_1.svg">
  <defs
     id="defs2" />
  <sodipodi:namedview
     id="base"
     pagecolor="#ffffff"
     bordercolor="#666666"
     borderopacity="1.0"
     inkscape:pageopacity="0.0"
     inkscape:pageshadow="2"
     inkscape:zoom="1.4142136"
     inkscape:cx="166.51397"
     inkscape:cy="122.99608"
     inkscape:document-units="mm"
     inkscape:current-layer="g296"
     inkscape:document-rotation="0"
     showgrid="false"
     units="px"
     inkscape:window-width="2876"
     inkscape:window-height="1368"
     inkscape:window-x="548"
     inkscape:window-y="0"
     inkscape:window-maximized="0"
     fit-margin-top="0"
     fit-margin-left="0"
     fit-margin-right="0"
     fit-margin-bottom="0"
     lock-margins="false"
     showguides="false" />
  <metadata
     id="metadata5">
    <rdf:RDF>
      <cc:Work
         rdf:about="">
        <dc:format>image/svg+xml</dc:format>
        <dc:type
           rdf:resource="http://purl.org/dc/dcmitype/StillImage" />
        <dc:title />
      </cc:Work>
    </rdf:RDF>
  </metadata>
  <g
     inkscape:label="Ebene 1"
     inkscape:groupmode="layer"
     id="layer1"
     transform="translate(334.60241,-0.52071071)">
    <g
       id="g58">
      <g
         id="g102"
         transform="translate(6.7)">
        <g
           id="g176"
           transform="translate(3.8467722)">
          <g
             id="g206"
             transform="translate(3.4999998)" />
          <g
             id="g266"
             transform="translate(4.2000046)">
            <g
               id="g296"
               transform="translate(5.3064589)">
              <g
                 id="g857"
                 style="opacity:1"
                 transform="matrix(0.20527351,0,0,1,-267.17877,0)">
                <path
                   style="color:#000000;font-style:normal;font-variant:normal;font-weight:normal;font-stretch:normal;font-size:medium;line-height:normal;font-family:sans-serif;font-variant-ligatures:normal;font-variant-position:normal;font-variant-caps:normal;font-variant-numeric:normal;font-variant-alternates:normal;font-variant-east-asian:normal;font-feature-settings:normal;font-variation-settings:normal;text-indent:0;text-align:start;text-decoration:none;text-decoration-line:none;text-decoration-style:solid;text-decoration-color:#000000;letter-spacing:normal;word-spacing:normal;text-transform:none;writing-mode:lr-tb;direction:ltr;text-orientation:mixed;dominant-baseline:auto;baseline-shift:baseline;text-anchor:start;white-space:normal;shape-padding:0;shape-margin:0;inline-size:0;clip-rule:nonzero;display:inline;overflow:visible;visibility:visible;isolation:auto;mix-blend-mode:normal;color-interpolation:sRGB;color-interpolation-filters:linearRGB;solid-color:#000000;solid-opacity:1;vector-effect:none;fill:#031122;fill-opacity:1;fill-rule:nonzero;stroke:none;stroke-width:6.01797;stroke-linecap:butt;stroke-linejoin:miter;stroke-miterlimit:5.7;stroke-dasharray:none;stroke-dashoffset:0;stroke-opacity:1;color-rendering:auto;image-rendering:auto;shape-rendering:auto;text-rendering:auto;enable-background:accumulate;stop-color:#000000;stop-opacity:1"
                   d="m -426.14791,0.52071071 h 179.91666 v 6.88e-6 59.79581941 7e-6 h -179.91666 c -10e-6,0 -10e-6,-3e-6 -10e-6,-7e-6 V 0.52071759 c 0,-3.93e-6 0,-6.88e-6 10e-6,-6.88e-6 z"
                   id="path859" />
              </g>
              <g
                 aria-label="G"
                 id="text865"
                 style="font-size:22.5778px;line-height:1.25;font-family:FreeSans;-inkscape-font-specification:FreeSans;fill:#c2c2c2;fill-opacity:1;stroke-width:0.264583">
                <path
                   d="m -341.59697,30.350895 q 0,0.857957 0.15805,1.738491 0.15804,0.857957 0.56444,1.806224 0.4064,0.948268 1.03858,1.670757 0.65476,0.699912 1.71592,1.174046 1.06115,0.451556 2.41582,0.451556 2.25778,0 3.70276,-1.422401 1.46756,-1.422402 1.46756,-3.635026 v -0.451556 h -5.01228 v -1.85138 h 6.86366 v 8.782764 h -1.33209 l -0.51929,-2.190046 q -2.34809,2.619025 -5.62188,2.619025 -3.34151,0 -5.44125,-2.393247 -2.09973,-2.393247 -2.09973,-6.186318 0,-1.083734 0.2032,-2.167468 0.2032,-1.106313 0.76764,-2.302936 0.56445,-1.196624 1.39983,-2.099736 0.85795,-0.903112 2.28036,-1.490134 1.44497,-0.609601 3.2512,-0.609601 2.82222,0 4.62845,1.377246 1.8288,1.377246 2.25778,3.883382 h -2.14489 q -0.33867,-1.580447 -1.6256,-2.483559 -1.26436,-0.925689 -3.13832,-0.925689 -2.61902,0 -4.19947,1.851379 -1.58045,1.828802 -1.58045,4.854227 z"
                   style="font-size:22.5778px;fill:#c2c2c2;fill-opacity:1;stroke-width:0.264583"
                   id="path5091" />
              </g>
            </g>
          </g>
        </g>
      </g>
    </g>
  </g>
</svg>
