<?xml version="1.0" encoding="UTF-8" standalone="no"?>
<svg
   xmlns:dc="http://purl.org/dc/elements/1.1/"
   xmlns:cc="http://creativecommons.org/ns#"
   xmlns:rdf="http://www.w3.org/1999/02/22-rdf-syntax-ns#"
   xmlns:svg="http://www.w3.org/2000/svg"
   xmlns="http://www.w3.org/2000/svg"
   xmlns:sodipodi="http://sodipodi.sourceforge.net/DTD/sodipodi-0.dtd"
   xmlns:inkscape="http://www.inkscape.org/namespaces/inkscape"
   width="757"
   height="757"
   viewBox="0 0 200.28958 200.28959"
   version="1.1"
   id="svg8"
   inkscape:version="1.0.1 (3bc2e813f5, 2020-09-07)"
   sodipodi:docname="key_5jkl.svg">
  <defs
     id="defs2" />
  <sodipodi:namedview
     id="base"
     pagecolor="#ffffff"
     bordercolor="#666666"
     borderopacity="1.0"
     inkscape:pageopacity="0.0"
     inkscape:pageshadow="2"
     inkscape:zoom="0.70710678"
     inkscape:cx="1035.4303"
     inkscape:cy="476.30915"
     inkscape:document-units="mm"
     inkscape:current-layer="g236"
     inkscape:document-rotation="0"
     showgrid="false"
     units="px"
     inkscape:window-width="1920"
     inkscape:window-height="1017"
     inkscape:window-x="-8"
     inkscape:window-y="-8"
     inkscape:window-maximized="1" />
  <metadata
     id="metadata5">
    <rdf:RDF>
      <cc:Work
         rdf:about="">
        <dc:format>image/svg+xml</dc:format>
        <dc:type
           rdf:resource="http://purl.org/dc/dcmitype/StillImage" />
        <dc:title></dc:title>
      </cc:Work>
    </rdf:RDF>
  </metadata>
  <g
     inkscape:label="Ebene 1"
     inkscape:groupmode="layer"
     id="layer1">
    <g
       id="g58">
      <g
         id="g102"
         transform="translate(6.7)">
        <g
           id="g176"
           transform="translate(3.8467722)">
          <g
             id="g206"
             transform="translate(3.4999998)" />
          <g
             id="g236"
             transform="translate(2.5999978)">
            <path
               style="fill:#c2c2c2;stroke-width:0.264583"
               d="m 96.17875,139.20215 c -0.47867,-0.09 -0.87865,-0.25536 -0.88883,-0.3675 -0.0102,-0.11215 0.12786,-0.97964 0.30676,-1.92778 l 0.32527,-1.72387 1.48959,0.15264 c 1.85777,0.19037 2.63458,-0.17943 3.34168,-1.59085 0.50942,-1.01682 0.53251,-1.68085 0.61874,-17.79114 l 0.0896,-16.734898 h 2.22553 2.22552 v 15.996488 c 0,16.84805 -0.11776,18.96933 -1.16916,21.06077 -1.28408,2.55424 -4.57039,3.67702 -8.56468,2.92614 z m -55.13382,-10.6052 c -2.27877,-0.41327 -4.30565,-1.10801 -6.43754,-2.20659 -2.94116,-1.51559 -6.20855,-4.78474 -7.73555,-7.73971 -1.09101,-2.11126 -2.08304,-5.21137 -2.23821,-6.99444 l -0.0804,-0.92401 3.43958,-0.31103 c 4.953,-0.44788 4.89479,-0.45026 4.89479,0.20009 0,1.01626 0.84244,3.52515 1.8048,5.3749 3.21524,6.18007 10.83248,8.31502 17.32341,4.85539 5.62087,-2.99589 8.58426,-10.35028 7.31716,-18.15933 -0.80241,-4.945168 -4.12611,-9.088247 -8.51266,-10.61126 -2.1119,-0.733253 -6.64501,-1.015593 -8.69987,-0.541864 -3.1568,0.727776 -6.47092,2.844379 -8.32862,5.319173 l -0.51211,0.682225 -3.52558,-0.461928 C 27.81506,96.824505 26.17025,96.55834 26.099,96.48709 26.0278,96.41584 27.38246,88.8753 29.10948,79.730334 l 3.14002,-16.627208 16.32634,-0.06817 16.32635,-0.06816 v 3.706185 3.706186 H 51.71193 38.52169 l -1.77727,8.889087 c -0.9775,4.888998 -1.71624,8.950111 -1.64166,9.024697 0.0746,0.07459 0.46989,-0.100423 0.87845,-0.388908 2.93301,-2.071 6.65942,-3.252179 10.82805,-3.432226 4.01214,-0.173286 6.41878,0.300122 9.75854,1.9196 9.28881,4.504217 13.51851,15.187593 10.42817,26.339453 -2.01924,7.28669 -8.01811,13.45129 -14.92608,15.33846 -2.34054,0.63941 -8.72402,0.9449 -11.02496,0.52762 z m 72.54058,-20.51466 V 88.370835 h 2.38125 2.38125 v 11.244792 c 0,6.184633 0.036,11.244793 0.0801,11.244793 0.044,0 2.68962,-2.61938 5.87903,-5.82083 l 5.79893,-5.820838 2.91837,0.01336 2.91836,0.01336 -5.36161,5.212148 c -2.94889,2.86668 -5.3599,5.30279 -5.35781,5.41356 0.002,0.1108 2.62317,4.12782 5.82463,8.92674 3.20146,4.79892 5.82084,8.78617 5.82084,8.86057 0,0.0744 -1.22926,0.13526 -2.73168,0.13526 h -2.73168 l -4.70157,-7.27604 c -2.58586,-4.00182 -4.76135,-7.27604 -4.83443,-7.27604 -0.0731,0 -0.8953,0.66938 -1.82717,1.48752 l -1.69431,1.48752 v 5.78852 5.78852 h -2.38125 -2.38125 z m 27.51667,0 V 88.370835 h 2.38125 2.38125 v 19.711455 19.71146 h -2.38125 -2.38125 z m -39.6875,-16.93333 v -2.778125 h 2.24896 2.24895 v 2.778125 2.778125 h -2.24895 -2.24896 z"
               id="path248" />
            <path
               style="fill:#9ea1a4;stroke-width:0.264583"
               d="m 173.3049,95.051564 c -0.32911,-0.419645 -0.31975,-0.429003 0.0999,-0.0999 0.25466,0.199721 0.46302,0.40808 0.46302,0.463021 0,0.217763 -0.21727,0.07761 -0.56291,-0.363125 z"
               id="path238" />
          </g>
        </g>
      </g>
    </g>
  </g>
</svg>
