<?xml version="1.0" encoding="UTF-8" standalone="no"?>
<svg
   xmlns:dc="http://purl.org/dc/elements/1.1/"
   xmlns:cc="http://creativecommons.org/ns#"
   xmlns:rdf="http://www.w3.org/1999/02/22-rdf-syntax-ns#"
   xmlns:svg="http://www.w3.org/2000/svg"
   xmlns="http://www.w3.org/2000/svg"
   xmlns:sodipodi="http://sodipodi.sourceforge.net/DTD/sodipodi-0.dtd"
   xmlns:inkscape="http://www.inkscape.org/namespaces/inkscape"
   width="757"
   height="757"
   viewBox="0 0 200.28958 200.28959"
   version="1.1"
   id="svg8"
   inkscape:version="1.0.1 (3bc2e813f5, 2020-09-07)"
   sodipodi:docname="key_4ghi.svg">
  <defs
     id="defs2" />
  <sodipodi:namedview
     id="base"
     pagecolor="#ffffff"
     bordercolor="#666666"
     borderopacity="1.0"
     inkscape:pageopacity="0.0"
     inkscape:pageshadow="2"
     inkscape:zoom="0.5"
     inkscape:cx="916.00834"
     inkscape:cy="99.627881"
     inkscape:document-units="mm"
     inkscape:current-layer="g176"
     inkscape:document-rotation="0"
     showgrid="false"
     units="px"
     inkscape:window-width="1920"
     inkscape:window-height="1017"
     inkscape:window-x="-8"
     inkscape:window-y="-8"
     inkscape:window-maximized="1" />
  <metadata
     id="metadata5">
    <rdf:RDF>
      <cc:Work
         rdf:about="">
        <dc:format>image/svg+xml</dc:format>
        <dc:type
           rdf:resource="http://purl.org/dc/dcmitype/StillImage" />
        <dc:title></dc:title>
      </cc:Work>
    </rdf:RDF>
  </metadata>
  <g
     inkscape:label="Ebene 1"
     inkscape:groupmode="layer"
     id="layer1">
    <g
       id="g58">
      <g
         id="g102"
         transform="translate(6.7)">
        <g
           id="g176"
           transform="translate(3.8467722)">
          <path
             style="fill:#c2c2c2;stroke-width:0.264583"
             d="m 105.512,139.05228 c -4.36043,-0.9935 -6.863437,-3.46737 -7.369714,-7.28389 -0.18481,-1.39315 -0.18066,-1.40438 0.459067,-1.24382 0.355057,0.0891 1.334421,0.24299 2.176367,0.34194 l 1.53081,0.17992 0.60806,1.37494 c 0.73735,1.66727 1.67391,2.37659 3.88632,2.94339 3.17959,0.81457 7.04102,-0.0405 8.69625,-1.92573 1.34521,-1.53211 1.64721,-2.57044 1.7874,-6.14556 l 0.12856,-3.2784 -1.5781,1.3133 c -3.0102,2.50511 -7.14703,3.12446 -11.05597,1.65525 -3.14138,-1.18073 -6.066927,-4.94449 -7.185341,-9.24403 -0.976524,-3.7541 -0.33201,-9.5297 1.424881,-12.76851 3.60951,-6.6541 12.38818,-8.365438 17.45804,-3.40332 0.61285,0.59982 1.17839,1.09058 1.25678,1.09058 0.0784,0 0.14251,-0.77391 0.14251,-1.7198 v -1.719788 h 2.11667 2.11666 v 14.003768 c 0,14.49929 -0.13735,16.94374 -1.09601,19.506 -1.01661,2.71714 -3.51723,4.98052 -6.56667,5.94368 -2.25926,0.71359 -6.65273,0.90045 -8.93657,0.38008 z m 6.21645,-15.31915 c 3.68198,-0.9551 5.60555,-3.83446 6.03712,-9.03688 0.59379,-7.15797 -2.7583,-12.18781 -8.08973,-12.13869 -2.07817,0.0192 -3.29201,0.50371 -4.84298,1.93335 -2.18591,2.0149 -3.30867,5.90379 -2.94655,10.20597 0.43089,5.11926 2.35661,8.07265 5.8825,9.02172 1.63599,0.44036 2.3085,0.44283 3.95964,0.0145 z m -63.700232,-3.87688 v -7.9375 h -14.28749 -14.2875 l 0.01,-3.63802 0.01,-3.63802 15.00898,-21.298959 15.008954,-21.298958 3.237542,-0.07429 3.237529,-0.07429 V 83.335608 104.775 h 4.497886 4.497893 v 3.57188 3.57187 h -4.497893 -4.497886 v 7.9375 7.9375 h -3.968726 -3.968729 v -7.9375 z m 0,-30.086904 c 0,-12.768493 -0.0544,-14.947893 -0.365087,-14.61823 -0.324467,0.344324 -19.885303,28.470564 -20.372383,29.293154 -0.15532,0.26231 1.96944,0.33073 10.27082,0.33073 h 10.46665 z M 129.78417,108.08229 V 88.370835 h 2.24896 2.24896 v 7.14375 c 0,3.929062 0.0654,7.143755 0.1454,7.143755 0.08,0 0.58599,-0.42864 1.12448,-0.95252 4.68915,-4.561939 13.5076,-3.75456 16.18336,1.48168 0.94422,1.8477 1.06759,3.48522 1.06759,14.16823 v 10.43802 h -2.23231 -2.23232 l -0.0828,-10.38489 c -0.0793,-9.94701 -0.10657,-10.43631 -0.64667,-11.60422 -0.94157,-2.0361 -2.90282,-3.1463 -5.55818,-3.1463 -2.73358,0 -5.48542,1.54818 -6.57552,3.69939 -0.94949,1.87372 -1.19304,4.60629 -1.19304,13.38538 v 8.05064 h -2.24896 -2.24896 z m 30.95625,5.42396 V 99.218752 h 2.24896 2.24896 v 14.287498 14.2875 h -2.24896 -2.24896 z m 0,-22.489582 v -2.645833 h 2.24896 2.24896 v 2.645833 2.645834 h -2.24896 -2.24896 z"
             id="path188" />
          <path
             style="fill:#bfc0c0;stroke-width:0.264583"
             d="m 273.88177,113.50625 c 0,-7.93088 0.0337,-11.17534 0.0748,-7.20989 0.0412,3.96544 0.0412,10.45435 0,14.41979 -0.0411,3.96544 -0.0748,0.72099 -0.0748,-7.2099 z m -0.0257,-22.489582 c 0,-1.527969 0.0437,-2.153047 0.0972,-1.389062 0.0534,0.763984 0.0534,2.01414 0,2.778125 -0.0534,0.763984 -0.0972,0.138906 -0.0972,-1.389063 z"
             id="path186" />
          <path
             style="fill:#bbbbbc;stroke-width:0.264583"
             d="m 214.19334,124.42031 c -0.32911,-0.41964 -0.31975,-0.429 0.0999,-0.0999 0.44073,0.34564 0.58089,0.56292 0.36313,0.56292 -0.0549,0 -0.2633,-0.20836 -0.46302,-0.46303 z"
             id="path184" />
          <path
             style="fill:#b2b3b4;stroke-width:0.264583"
             d="m 213.9625,102.29386 c 0,-0.0549 0.20836,-0.2633 0.46302,-0.46303 0.41965,-0.3291 0.42901,-0.31974 0.0999,0.0999 -0.34564,0.44073 -0.56292,0.58089 -0.56292,0.36313 z"
             id="path182" />
        </g>
      </g>
    </g>
  </g>
</svg>
