<?xml version="1.0" encoding="UTF-8" standalone="no"?>
<svg
   xmlns:dc="http://purl.org/dc/elements/1.1/"
   xmlns:cc="http://creativecommons.org/ns#"
   xmlns:rdf="http://www.w3.org/1999/02/22-rdf-syntax-ns#"
   xmlns:svg="http://www.w3.org/2000/svg"
   xmlns="http://www.w3.org/2000/svg"
   xmlns:sodipodi="http://sodipodi.sourceforge.net/DTD/sodipodi-0.dtd"
   xmlns:inkscape="http://www.inkscape.org/namespaces/inkscape"
   width="517.83307"
   height="226"
   viewBox="0 0 137.00999 59.795835"
   version="1.1"
   id="svg8"
   inkscape:version="1.0.1 (3bc2e813f5, 2020-09-07)"
   sodipodi:docname="key_BrakeType_3.svg">
  <defs
     id="defs2" />
  <sodipodi:namedview
     id="base"
     pagecolor="#ffffff"
     bordercolor="#666666"
     borderopacity="1.0"
     inkscape:pageopacity="0.0"
     inkscape:pageshadow="2"
     inkscape:zoom="1.4142136"
     inkscape:cx="325.19134"
     inkscape:cy="184.99564"
     inkscape:document-units="mm"
     inkscape:current-layer="g296"
     inkscape:document-rotation="0"
     showgrid="false"
     units="px"
     inkscape:window-width="2876"
     inkscape:window-height="1368"
     inkscape:window-x="548"
     inkscape:window-y="0"
     inkscape:window-maximized="0"
     fit-margin-top="0"
     fit-margin-left="0"
     fit-margin-right="0"
     fit-margin-bottom="0"
     lock-margins="false"
     showguides="false" />
  <metadata
     id="metadata5">
    <rdf:RDF>
      <cc:Work
         rdf:about="">
        <dc:format>image/svg+xml</dc:format>
        <dc:type
           rdf:resource="http://purl.org/dc/dcmitype/StillImage" />
        <dc:title />
      </cc:Work>
    </rdf:RDF>
  </metadata>
  <g
     inkscape:label="Ebene 1"
     inkscape:groupmode="layer"
     id="layer1"
     transform="translate(384.64135,-0.52071071)">
    <g
       id="g58">
      <g
         id="g102"
         transform="translate(6.7)">
        <g
           id="g176"
           transform="translate(3.8467722)">
          <g
             id="g206"
             transform="translate(3.4999998)" />
          <g
             id="g266"
             transform="translate(4.2000046)">
            <g
               id="g296"
               transform="translate(5.3064589)">
              <g
                 id="g857"
                 style="opacity:1"
                 transform="matrix(0.76151924,0,0,1,-80.174746,0)">
                <path
                   style="color:#000000;font-style:normal;font-variant:normal;font-weight:normal;font-stretch:normal;font-size:medium;line-height:normal;font-family:sans-serif;font-variant-ligatures:normal;font-variant-position:normal;font-variant-caps:normal;font-variant-numeric:normal;font-variant-alternates:normal;font-variant-east-asian:normal;font-feature-settings:normal;font-variation-settings:normal;text-indent:0;text-align:start;text-decoration:none;text-decoration-line:none;text-decoration-style:solid;text-decoration-color:#000000;letter-spacing:normal;word-spacing:normal;text-transform:none;writing-mode:lr-tb;direction:ltr;text-orientation:mixed;dominant-baseline:auto;baseline-shift:baseline;text-anchor:start;white-space:normal;shape-padding:0;shape-margin:0;inline-size:0;clip-rule:nonzero;display:inline;overflow:visible;visibility:visible;isolation:auto;mix-blend-mode:normal;color-interpolation:sRGB;color-interpolation-filters:linearRGB;solid-color:#000000;solid-opacity:1;vector-effect:none;fill:#031122;fill-opacity:1;fill-rule:nonzero;stroke:none;stroke-width:6.01797;stroke-linecap:butt;stroke-linejoin:miter;stroke-miterlimit:5.7;stroke-dasharray:none;stroke-dashoffset:0;stroke-opacity:1;color-rendering:auto;image-rendering:auto;shape-rendering:auto;text-rendering:auto;enable-background:accumulate;stop-color:#000000;stop-opacity:1"
                   d="m -426.14791,0.52071071 h 179.91666 v 6.88e-6 59.79581941 7e-6 h -179.91666 c -10e-6,0 -10e-6,-3e-6 -10e-6,-7e-6 V 0.52071759 c 0,-3.93e-6 0,-6.88e-6 10e-6,-6.88e-6 z"
                   id="path859" />
              </g>
              <g
                 aria-label="G Scheibenbremsen"
                 id="text865"
                 style="font-size:22.5778px;line-height:0;font-family:FreeSans;-inkscape-font-specification:FreeSans;fill:#c2c2c2;fill-opacity:1;stroke-width:0.264583">
                <path
                   d="m -341.99209,22.372483 q 0,0.857956 0.15804,1.73849 0.15804,0.857957 0.56444,1.806225 0.40641,0.948267 1.03858,1.670757 0.65476,0.699912 1.71592,1.174045 1.06115,0.451556 2.41582,0.451556 2.25778,0 3.70276,-1.422401 1.46756,-1.422401 1.46756,-3.635026 v -0.451556 h -5.01227 v -1.85138 h 6.86365 v 8.782765 h -1.33209 l -0.51929,-2.190047 q -2.34809,2.619025 -5.62187,2.619025 -3.34152,0 -5.44125,-2.393247 -2.09974,-2.393247 -2.09974,-6.186317 0,-1.083735 0.2032,-2.167469 0.2032,-1.106312 0.76765,-2.302936 0.56444,-1.196623 1.39982,-2.099735 0.85796,-0.903112 2.28036,-1.490135 1.44498,-0.609601 3.2512,-0.609601 2.82223,0 4.62845,1.377246 1.8288,1.377246 2.25778,3.883382 h -2.14489 q -0.33867,-1.580446 -1.6256,-2.483558 -1.26436,-0.92569 -3.13832,-0.92569 -2.61902,0 -4.19947,1.85138 -1.58044,1.828801 -1.58044,4.854227 z"
                   style="font-size:22.5778px;line-height:0.9;text-align:center;text-anchor:middle;fill:#c2c2c2;fill-opacity:1;stroke-width:0.264583"
                   id="path3878" />
                <path
                   d="m -397.68557,45.633227 q 0.94826,0 1.60866,-0.220133 0.6604,-0.220133 0.9652,-0.575732 0.32173,-0.3556 0.44026,-0.694266 0.13547,-0.355599 0.13547,-0.745065 0,-1.405464 -2.26906,-1.998129 l -3.06493,-0.812799 q -2.42146,-0.626532 -2.42146,-2.878661 0,-1.676396 1.1684,-2.641595 1.18533,-0.982131 3.21732,-0.982131 2.1336,0 3.31893,1.015998 1.18533,0.999065 1.20226,2.810928 h -1.49013 q -0.0169,-1.202264 -0.81279,-1.84573 -0.79587,-0.660399 -2.26907,-0.660399 -1.25306,0 -2.01506,0.575733 -0.74506,0.575732 -0.74506,1.507063 0,0.711199 0.45719,1.117598 0.4572,0.406399 1.5748,0.711199 l 3.0988,0.829731 q 1.25306,0.338666 1.93039,1.151465 0.69427,0.812798 0.69427,1.947329 0,0.491066 -0.13547,0.982132 -0.11853,0.474132 -0.4572,0.999064 -0.33866,0.507999 -0.8636,0.897465 -0.52493,0.389466 -1.40546,0.643466 -0.8636,0.253999 -1.96426,0.253999 -0.69427,0 -1.33773,-0.118533 -0.62654,-0.1016 -1.28694,-0.389466 -0.66039,-0.304799 -1.13453,-0.761998 -0.47413,-0.474133 -0.79586,-1.253064 -0.3048,-0.778932 -0.32173,-1.79493 h 1.49013 v 0.08467 q 0,0.524933 0.1524,0.982132 0.16933,0.457199 0.52493,0.897465 0.37253,0.440265 1.08373,0.711198 0.72813,0.254 1.7272,0.254 z"
                   style="font-size:16.9333px;line-height:0.9;text-align:center;text-anchor:middle;fill:#c2c2c2;fill-opacity:1;stroke-width:0.264583"
                   id="path3880" />
                <path
                   d="m -384.20667,40.739503 h -1.4224 q -0.13546,-0.931332 -0.67733,-1.422397 -0.54186,-0.507999 -1.4224,-0.507999 -1.15146,0 -1.81186,0.948265 -0.64346,0.931331 -0.64346,2.590794 0,1.574797 0.66039,2.472262 0.6604,0.897465 1.8288,0.897465 1.81186,0 2.16746,-2.133596 h 1.4224 q -0.13547,1.625597 -1.08373,2.539995 -0.94827,0.897465 -2.54,0.897465 -1.81186,0 -2.87866,-1.253064 -1.04986,-1.269997 -1.04986,-3.420527 0,-2.201329 1.0668,-3.522126 1.08373,-1.320797 2.87866,-1.320797 1.54093,0 2.45533,0.829731 0.93133,0.829732 1.04986,2.404529 z"
                   style="font-size:16.9333px;line-height:0.9;text-align:center;text-anchor:middle;fill:#c2c2c2;fill-opacity:1;stroke-width:0.264583"
                   id="path3882" />
                <path
                   d="m -376.89152,40.485503 q 0,-0.931331 -0.57573,-1.33773 -0.5588,-0.406399 -1.25306,-0.406399 -1.08373,0 -1.74413,0.829731 -0.6604,0.812799 -0.6604,2.167463 v 4.893723 h -1.40547 V 34.287916 h 1.40547 v 4.690524 q 0.62653,-0.812799 1.25306,-1.134531 0.64347,-0.338666 1.59173,-0.338666 1.28693,0 2.032,0.660398 0.762,0.643466 0.762,1.761064 v 6.705586 h -1.40547 z"
                   style="font-size:16.9333px;line-height:0.9;text-align:center;text-anchor:middle;fill:#c2c2c2;fill-opacity:1;stroke-width:0.264583"
                   id="path3884" />
                <path
                   d="m -365.86796,42.669899 h -6.53626 q 0.0169,1.219198 0.47414,1.89653 0.72813,1.151464 2.13359,1.151464 1.7272,0 2.31986,-1.777996 h 1.4224 q -0.27093,1.456263 -1.27,2.269062 -0.99906,0.812798 -2.52306,0.812798 -1.86266,0 -2.94639,-1.253064 -1.08373,-1.269997 -1.08373,-3.454393 0,-2.184396 1.10066,-3.48826 1.1176,-1.320797 2.96333,-1.320797 1.25306,0 2.20133,0.626532 0.96519,0.626532 1.38853,1.710263 0.3556,0.931332 0.3556,2.827861 z m -6.50239,-1.151464 h 4.97839 q 0.0169,-0.03387 0.0169,-0.1016 0,-1.100665 -0.7112,-1.84573 -0.71119,-0.761998 -1.74413,-0.761998 -1.06679,0 -1.76106,0.745065 -0.69426,0.728132 -0.77893,1.964263 z"
                   style="font-size:16.9333px;line-height:0.9;text-align:center;text-anchor:middle;fill:#c2c2c2;fill-opacity:1;stroke-width:0.264583"
                   id="path3886" />
                <path
                   d="m -362.59984,37.759242 v 8.873049 h -1.40547 v -8.873049 z m 0,-3.471326 v 1.777996 h -1.4224 v -1.777996 z"
                   style="font-size:16.9333px;line-height:0.9;text-align:center;text-anchor:middle;fill:#c2c2c2;fill-opacity:1;stroke-width:0.264583"
                   id="path3888" />
                <path
                   d="m -360.46628,34.287916 h 1.40547 v 4.67359 q 0.9652,-1.456263 2.74319,-1.456263 1.76107,0 2.77706,1.253064 1.016,1.253064 1.016,3.403593 0,2.201329 -1.04986,3.53906 -1.04987,1.320797 -2.81093,1.320797 -1.81186,0 -2.81093,-1.523997 v 1.134531 h -1.27 z m 3.87773,4.538124 q -1.1176,0 -1.79493,0.948265 -0.67733,0.931331 -0.67733,2.489195 0,1.557864 0.67733,2.506128 0.67733,0.931332 1.79493,0.931332 1.15146,0 1.86266,-0.931332 0.72813,-0.948264 0.72813,-2.455328 0,-1.59173 -0.71119,-2.539995 -0.69427,-0.948265 -1.8796,-0.948265 z"
                   style="font-size:16.9333px;line-height:0.9;text-align:center;text-anchor:middle;fill:#c2c2c2;fill-opacity:1;stroke-width:0.264583"
                   id="path3890" />
                <path
                   d="m -343.27898,42.669899 h -6.53626 q 0.0169,1.219198 0.47414,1.89653 0.72813,1.151464 2.13359,1.151464 1.7272,0 2.31986,-1.777996 h 1.4224 q -0.27093,1.456263 -1.27,2.269062 -0.99906,0.812798 -2.52306,0.812798 -1.86266,0 -2.94639,-1.253064 -1.08373,-1.269997 -1.08373,-3.454393 0,-2.184396 1.10066,-3.48826 1.1176,-1.320797 2.96333,-1.320797 1.25306,0 2.20133,0.626532 0.9652,0.626532 1.38853,1.710263 0.3556,0.931332 0.3556,2.827861 z m -6.50239,-1.151464 h 4.97839 q 0.0169,-0.03387 0.0169,-0.1016 0,-1.100665 -0.71119,-1.84573 -0.7112,-0.761998 -1.74413,-0.761998 -1.0668,0 -1.76107,0.745065 -0.69426,0.728132 -0.77893,1.964263 z"
                   style="font-size:16.9333px;line-height:0.9;text-align:center;text-anchor:middle;fill:#c2c2c2;fill-opacity:1;stroke-width:0.264583"
                   id="path3892" />
                <path
                   d="m -341.7042,37.759242 h 1.30387 v 1.490131 q 0.59266,-0.931332 1.26999,-1.337731 0.69427,-0.406399 1.6764,-0.406399 1.28693,0 2.04893,0.660398 0.762,0.660399 0.762,1.761064 v 6.705586 h -1.40546 v -6.146788 q 0,-0.795865 -0.49107,-1.269997 -0.49107,-0.474132 -1.33773,-0.474132 -1.08373,0 -1.74413,0.829731 -0.6604,0.812799 -0.6604,2.167463 v 4.893723 h -1.4224 z"
                   style="font-size:16.9333px;line-height:0.9;text-align:center;text-anchor:middle;fill:#c2c2c2;fill-opacity:1;stroke-width:0.264583"
                   id="path3894" />
                <path
                   d="m -332.56022,34.287916 h 1.40546 v 4.67359 q 0.9652,-1.456263 2.7432,-1.456263 1.76106,0 2.77706,1.253064 1.016,1.253064 1.016,3.403593 0,2.201329 -1.04987,3.53906 -1.04986,1.320797 -2.81092,1.320797 -1.81187,0 -2.81093,-1.523997 v 1.134531 h -1.27 z m 3.87773,4.538124 q -1.1176,0 -1.79493,0.948265 -0.67734,0.931331 -0.67734,2.489195 0,1.557864 0.67734,2.506128 0.67733,0.931332 1.79493,0.931332 1.15146,0 1.86266,-0.931332 0.72813,-0.948264 0.72813,-2.455328 0,-1.59173 -0.7112,-2.539995 -0.69426,-0.948265 -1.87959,-0.948265 z"
                   style="font-size:16.9333px;line-height:0.9;text-align:center;text-anchor:middle;fill:#c2c2c2;fill-opacity:1;stroke-width:0.264583"
                   id="path3896" />
                <path
                   d="m -318.79345,38.995373 q -1.4224,0.03387 -2.1336,0.660399 -0.7112,0.626532 -0.7112,2.370662 v 4.605857 h -1.4224 v -8.873049 h 1.30387 v 1.608664 q 0.6096,-0.999065 1.1684,-1.422398 0.57573,-0.440265 1.25306,-0.440265 0.18627,0 0.54187,0.0508 z"
                   style="font-size:16.9333px;line-height:0.9;text-align:center;text-anchor:middle;fill:#c2c2c2;fill-opacity:1;stroke-width:0.264583"
                   id="path3898" />
                <path
                   d="m -310.24217,42.669899 h -6.53626 q 0.0169,1.219198 0.47413,1.89653 0.72814,1.151464 2.1336,1.151464 1.7272,0 2.31986,-1.777996 h 1.4224 q -0.27093,1.456263 -1.27,2.269062 -0.99906,0.812798 -2.52306,0.812798 -1.86266,0 -2.94639,-1.253064 -1.08373,-1.269997 -1.08373,-3.454393 0,-2.184396 1.10066,-3.48826 1.1176,-1.320797 2.96333,-1.320797 1.25306,0 2.20133,0.626532 0.96519,0.626532 1.38853,1.710263 0.3556,0.931332 0.3556,2.827861 z m -6.50239,-1.151464 h 4.97839 q 0.0169,-0.03387 0.0169,-0.1016 0,-1.100665 -0.7112,-1.84573 -0.71119,-0.761998 -1.74413,-0.761998 -1.06679,0 -1.76106,0.745065 -0.69426,0.728132 -0.77893,1.964263 z"
                   style="font-size:16.9333px;line-height:0.9;text-align:center;text-anchor:middle;fill:#c2c2c2;fill-opacity:1;stroke-width:0.264583"
                   id="path3900" />
                <path
                   d="m -308.66739,37.759242 h 1.30386 v 1.253064 q 0.57573,-0.795865 1.20227,-1.151464 0.64346,-0.355599 1.52399,-0.355599 1.64253,0 2.3876,1.354664 0.62653,-0.745066 1.23613,-1.049865 0.6096,-0.304799 1.49013,-0.304799 1.23613,0 1.89653,0.643465 0.67733,0.626532 0.67733,1.828796 v 6.654787 h -1.4224 V 40.51937 q 0,-0.846665 -0.44026,-1.303864 -0.42333,-0.474132 -1.20227,-0.474132 -0.86359,0 -1.47319,0.677332 -0.6096,0.677332 -0.6096,1.64253 v 5.571055 h -1.4224 V 40.51937 q 0,-0.846665 -0.44027,-1.303864 -0.42333,-0.474132 -1.20226,-0.474132 -0.8636,0 -1.4732,0.677332 -0.6096,0.677332 -0.6096,1.64253 v 5.571055 h -1.42239 z"
                   style="font-size:16.9333px;line-height:0.9;text-align:center;text-anchor:middle;fill:#c2c2c2;fill-opacity:1;stroke-width:0.264583"
                   id="path3902" />
                <path
                   d="m -294.02012,43.990697 q 0.1016,0.795865 0.54186,1.269997 0.4572,0.457199 1.6256,0.457199 0.93133,0 1.49013,-0.372532 0.57573,-0.389466 0.57573,-1.015998 0,-0.491066 -0.32173,-0.778932 -0.32173,-0.287866 -1.04986,-0.457199 l -1.3208,-0.321733 q -1.5748,-0.372533 -2.20133,-0.931332 -0.6096,-0.575732 -0.6096,-1.625596 0,-1.236131 0.93133,-1.964263 0.93133,-0.745065 2.47226,-0.745065 1.54093,0 2.37067,0.711198 0.82973,0.711199 0.84666,2.015063 h -1.49013 q -0.0508,-1.422397 -1.778,-1.422397 -0.86359,0 -1.37159,0.372532 -0.508,0.3556 -0.508,0.965198 0,0.474133 0.38946,0.778932 0.38947,0.287866 1.25307,0.491066 l 1.35466,0.321733 q 1.3208,0.321732 1.91346,0.914398 0.59267,0.575732 0.59267,1.557863 0,1.286931 -0.99906,2.04893 -0.98214,0.761998 -2.65853,0.761998 -3.43746,0 -3.53906,-3.03106 z"
                   style="font-size:16.9333px;line-height:0.9;text-align:center;text-anchor:middle;fill:#c2c2c2;fill-opacity:1;stroke-width:0.264583"
                   id="path3904" />
                <path
                   d="m -278.93258,42.669899 h -6.53625 q 0.0169,1.219198 0.47413,1.89653 0.72813,1.151464 2.13359,1.151464 1.7272,0 2.31987,-1.777996 h 1.42239 q -0.27093,1.456263 -1.26999,2.269062 -0.99907,0.812798 -2.52307,0.812798 -1.86266,0 -2.94639,-1.253064 -1.08373,-1.269997 -1.08373,-3.454393 0,-2.184396 1.10066,-3.48826 1.1176,-1.320797 2.96333,-1.320797 1.25306,0 2.20133,0.626532 0.9652,0.626532 1.38853,1.710263 0.3556,0.931332 0.3556,2.827861 z m -6.50239,-1.151464 h 4.97839 q 0.0169,-0.03387 0.0169,-0.1016 0,-1.100665 -0.7112,-1.84573 -0.7112,-0.761998 -1.74413,-0.761998 -1.0668,0 -1.76107,0.745065 -0.69426,0.728132 -0.77893,1.964263 z"
                   style="font-size:16.9333px;line-height:0.9;text-align:center;text-anchor:middle;fill:#c2c2c2;fill-opacity:1;stroke-width:0.264583"
                   id="path3906" />
                <path
                   d="m -277.3578,37.759242 h 1.30386 v 1.490131 q 0.59267,-0.931332 1.27,-1.337731 0.69427,-0.406399 1.6764,-0.406399 1.28693,0 2.04893,0.660398 0.762,0.660399 0.762,1.761064 v 6.705586 h -1.40547 v -6.146788 q 0,-0.795865 -0.49106,-1.269997 -0.49107,-0.474132 -1.33773,-0.474132 -1.08373,0 -1.74413,0.829731 -0.6604,0.812799 -0.6604,2.167463 v 4.893723 h -1.4224 z"
                   style="font-size:16.9333px;line-height:0.9;text-align:center;text-anchor:middle;fill:#c2c2c2;fill-opacity:1;stroke-width:0.264583"
                   id="path3908" />
              </g>
            </g>
          </g>
        </g>
      </g>
    </g>
  </g>
</svg>
