<?xml version="1.0" encoding="UTF-8" standalone="no"?>
<!-- Created with Inkscape (http://www.inkscape.org/) -->

<svg
   xmlns:dc="http://purl.org/dc/elements/1.1/"
   xmlns:cc="http://creativecommons.org/ns#"
   xmlns:rdf="http://www.w3.org/1999/02/22-rdf-syntax-ns#"
   xmlns:svg="http://www.w3.org/2000/svg"
   xmlns="http://www.w3.org/2000/svg"
   xmlns:sodipodi="http://sodipodi.sourceforge.net/DTD/sodipodi-0.dtd"
   xmlns:inkscape="http://www.inkscape.org/namespaces/inkscape"
   width="46"
   height="46"
   viewBox="0 0 46 46.000001"
   id="svg2"
   version="1.1"
   inkscape:version="0.92.3 (2405546, 2018-03-11)"
   sodipodi:docname="lang_dis.svg">
  <defs
     id="defs4" />
  <sodipodi:namedview
     id="base"
     pagecolor="#ffffff"
     bordercolor="#666666"
     borderopacity="1.0"
     inkscape:pageopacity="0.0"
     inkscape:pageshadow="2"
     inkscape:zoom="7.2407734"
     inkscape:cx="-2.791899"
     inkscape:cy="17.528847"
     inkscape:document-units="px"
     inkscape:current-layer="g4167"
     showgrid="false"
     units="px"
     inkscape:window-width="1920"
     inkscape:window-height="1027"
     inkscape:window-x="-8"
     inkscape:window-y="-8"
     inkscape:window-maximized="1" />
  <metadata
     id="metadata7">
    <rdf:RDF>
      <cc:Work
         rdf:about="">
        <dc:format>image/svg+xml</dc:format>
        <dc:type
           rdf:resource="http://purl.org/dc/dcmitype/StillImage" />
        <dc:title />
      </cc:Work>
    </rdf:RDF>
  </metadata>
  <g
     inkscape:label="Ebene 1"
     inkscape:groupmode="layer"
     id="layer1"
     transform="translate(0,-1006.3622)">
    <g
       id="g4167"
       transform="translate(1151.4286,-128.57146)">
      <g
         id="g4216"
         transform="translate(1936,1224)">
        <path
           style="fill:#fefefe"
           d="m -2750.4287,396.93361 0,-432.000001 535,0 535,0 0,432.000001 0,432 -535,0 -535,0 0,-432 z"
           id="path4220"
           inkscape:connector-curvature="0" />
      </g>
      <path
         style="fill:#555555;fill-opacity:1;stroke-width:0.62721872"
         d="m -1141.5413,1158.4229 v -10.8781 h 0.9392 0.9392 v 10.8781 10.878 h -0.9392 -0.9392 z m 20.0088,3.2885 c -0.053,-0.01 -0.2117,-0.024 -0.3539,-0.041 -0.6509,-0.075 -1.5481,-0.297 -2.2718,-0.5627 -0.9979,-0.3662 -1.6897,-0.7374 -2.477,-1.3291 -1.3074,-0.9828 -3.3377,-1.7163 -5.039,-1.8205 -0.8746,-0.054 -1.6692,0.022 -2.5714,0.2447 -1.2084,0.2983 -2.4713,0.8496 -3.2879,1.4353 -0.1238,0.089 -0.231,0.1615 -0.2381,0.1615 -0.01,0 -0.013,-2.5438 -0.013,-5.6527 0,-5.5108 0,-5.6537 0.052,-5.6801 0.028,-0.015 0.1966,-0.126 0.3742,-0.247 0.5757,-0.3915 1.5536,-0.8527 2.3648,-1.1153 1.9027,-0.6157 3.5251,-0.6362 5.4037,-0.068 1.2172,0.368 2.1955,0.8568 3.1098,1.5538 0.9288,0.7083 2.4219,1.3488 3.8185,1.6378 0.6751,0.1398 0.9372,0.1656 1.6878,0.1663 0.7149,0 0.8734,-0.012 1.4973,-0.1271 1.3642,-0.25 2.9393,-0.888 3.8816,-1.5723 l 0.2066,-0.15 0.018,1.3794 c 0.01,0.7587 0.018,3.3004 0.016,5.6481 v 4.2686 l -0.1823,0.1228 c -1.3225,0.8909 -2.8275,1.47 -4.4114,1.6973 -0.2735,0.039 -1.3758,0.074 -1.5829,0.05 z m 1.3339,-1.8845 c 0.8439,-0.089 1.8888,-0.3542 2.77,-0.7042 l 0.1973,-0.078 v -3.7945 c 0,-2.0869 -0.01,-3.7945 -0.011,-3.7945 -0.01,0 -0.1543,0.056 -0.3296,0.1246 -1.3098,0.5121 -2.6799,0.7531 -3.8476,0.6767 -1.7185,-0.1124 -3.7293,-0.8277 -5.0039,-1.7799 -0.9183,-0.6863 -1.7829,-1.1304 -2.9408,-1.5108 -1.8755,-0.6159 -3.4983,-0.6372 -5.4124,-0.071 -0.3337,0.099 -0.9653,0.325 -1.0782,0.3861 -0.05,0.028 -0.052,0.1283 -0.052,3.8135 0,2.0822 0.01,3.7858 0.021,3.7858 0.011,0 0.1308,-0.044 0.2654,-0.097 0.825,-0.3283 1.8532,-0.5863 2.6813,-0.6732 0.3329,-0.035 1.1915,-0.035 1.5245,0 0.6604,0.069 1.4322,0.2435 2.1506,0.4852 1.0724,0.361 1.9396,0.809 2.7328,1.4121 1.1668,0.8872 3.0125,1.6034 4.6486,1.8038 0.3673,0.045 1.3198,0.054 1.6838,0.016 z"
         id="path4244"
         inkscape:connector-curvature="0" />
    </g>
  </g>
</svg>
