<?xml version="1.0" encoding="UTF-8" standalone="no"?>
<!-- Created with Inkscape (http://www.inkscape.org/) -->

<svg
   xmlns:dc="http://purl.org/dc/elements/1.1/"
   xmlns:cc="http://creativecommons.org/ns#"
   xmlns:rdf="http://www.w3.org/1999/02/22-rdf-syntax-ns#"
   xmlns:svg="http://www.w3.org/2000/svg"
   xmlns="http://www.w3.org/2000/svg"
   xmlns:sodipodi="http://sodipodi.sourceforge.net/DTD/sodipodi-0.dtd"
   xmlns:inkscape="http://www.inkscape.org/namespaces/inkscape"
   width="46"
   height="46"
   viewBox="0 0 46 46.000001"
   id="svg2"
   version="1.1"
   inkscape:version="0.92.3 (2405546, 2018-03-11)"
   sodipodi:docname="lang_ena.svg">
  <defs
     id="defs4" />
  <sodipodi:namedview
     id="base"
     pagecolor="#ffffff"
     bordercolor="#666666"
     borderopacity="1.0"
     inkscape:pageopacity="0.0"
     inkscape:pageshadow="2"
     inkscape:zoom="14.481547"
     inkscape:cx="3.6088057"
     inkscape:cy="20.590954"
     inkscape:document-units="px"
     inkscape:current-layer="g4167"
     showgrid="false"
     units="px"
     inkscape:window-width="1920"
     inkscape:window-height="1027"
     inkscape:window-x="-8"
     inkscape:window-y="-8"
     inkscape:window-maximized="1" />
  <metadata
     id="metadata7">
    <rdf:RDF>
      <cc:Work
         rdf:about="">
        <dc:format>image/svg+xml</dc:format>
        <dc:type
           rdf:resource="http://purl.org/dc/dcmitype/StillImage" />
        <dc:title />
      </cc:Work>
    </rdf:RDF>
  </metadata>
  <g
     inkscape:label="Ebene 1"
     inkscape:groupmode="layer"
     id="layer1"
     transform="translate(0,-1006.3622)">
    <g
       id="g4167"
       transform="translate(1151.4286,-128.57146)">
      <g
         id="g4216"
         transform="translate(1936,1224)">
        <path
           style="fill:#fefefe"
           d="m -2750.4287,396.93361 0,-432.000001 535,0 535,0 0,432.000001 0,432 -535,0 -535,0 0,-432 z"
           id="path4220"
           inkscape:connector-curvature="0" />
      </g>
      <path
         style="fill:#c3c3c3;fill-opacity:1;stroke-width:0.62943727"
         d="m -1141.5876,1158.4245 v -10.9165 h 0.9425 0.9425 v 10.9165 10.9165 h -0.9425 -0.9425 z m 20.0796,3.3001 c -0.053,-0.01 -0.2125,-0.024 -0.3551,-0.041 -0.6533,-0.075 -1.5537,-0.2981 -2.2799,-0.5646 -1.0015,-0.3676 -1.6957,-0.7401 -2.4857,-1.3339 -1.3121,-0.9862 -3.3496,-1.7224 -5.0569,-1.8269 -0.8777,-0.054 -1.6751,0.022 -2.5805,0.2456 -1.2127,0.2993 -2.48,0.8526 -3.2995,1.4403 -0.1242,0.089 -0.2318,0.1621 -0.239,0.1621 -0.01,0 -0.013,-2.5528 -0.013,-5.6727 0,-5.5303 0,-5.6737 0.052,-5.7002 0.028,-0.015 0.1974,-0.1265 0.3756,-0.2478 0.5777,-0.393 1.5591,-0.8558 2.3731,-1.1193 1.9095,-0.6179 3.5376,-0.6384 5.4229,-0.068 1.2215,0.3693 2.2032,0.8598 3.1207,1.5594 0.9322,0.7108 2.4305,1.3535 3.8321,1.6436 0.6774,0.1402 0.9405,0.1661 1.6937,0.1668 0.7174,0 0.8765,-0.013 1.5026,-0.1275 1.3691,-0.2509 2.9497,-0.8911 3.8954,-1.5779 l 0.2073,-0.1505 0.018,1.3843 c 0.01,0.7614 0.018,3.312 0.016,5.6681 v 4.2836 l -0.1829,0.1233 c -1.3272,0.894 -2.8376,1.4752 -4.4271,1.7033 -0.2744,0.039 -1.3806,0.074 -1.5884,0.05 z m 1.3386,-1.8911 c 0.8469,-0.089 1.8954,-0.3554 2.7798,-0.7067 l 0.198,-0.079 v -3.8079 c 0,-2.0943 -0.01,-3.8079 -0.011,-3.8079 -0.01,0 -0.1549,0.057 -0.3308,0.125 -1.3144,0.5139 -2.6894,0.7558 -3.8613,0.6791 -1.7245,-0.1128 -3.7425,-0.8306 -5.0215,-1.7862 -0.9216,-0.6887 -1.7893,-1.1344 -2.9512,-1.5161 -1.8822,-0.6181 -3.5107,-0.6395 -5.4316,-0.071 -0.3349,0.099 -0.9687,0.3261 -1.082,0.3875 -0.05,0.028 -0.052,0.1287 -0.052,3.827 0,2.0895 0.01,3.7991 0.021,3.7991 0.011,0 0.1313,-0.044 0.2663,-0.098 0.8279,-0.3294 1.8598,-0.5883 2.6908,-0.6755 0.3341,-0.035 1.1958,-0.035 1.5299,0 0.6628,0.07 1.4373,0.2443 2.1582,0.4869 1.0762,0.3622 1.9464,0.8119 2.7425,1.4171 1.1709,0.8903 3.0232,1.6091 4.665,1.8102 0.3687,0.045 1.3245,0.054 1.6897,0.016 z"
         id="path4244"
         inkscape:connector-curvature="0" />
    </g>
  </g>
</svg>
