<?xml version="1.0" encoding="UTF-8" standalone="no"?>
<svg
   xmlns:dc="http://purl.org/dc/elements/1.1/"
   xmlns:cc="http://creativecommons.org/ns#"
   xmlns:rdf="http://www.w3.org/1999/02/22-rdf-syntax-ns#"
   xmlns:svg="http://www.w3.org/2000/svg"
   xmlns="http://www.w3.org/2000/svg"
   xmlns:sodipodi="http://sodipodi.sourceforge.net/DTD/sodipodi-0.dtd"
   xmlns:inkscape="http://www.inkscape.org/namespaces/inkscape"
   width="350"
   height="142"
   viewBox="0 0 350 142"
   id="svg2"
   version="1.1"
   inkscape:version="1.0.1 (3bc2e813f5, 2020-09-07)"
   sodipodi:docname="LE_01.svg">
  <defs
     id="defs4" />
  <sodipodi:namedview
     id="base"
     pagecolor="#ffffff"
     bordercolor="#666666"
     borderopacity="1.0"
     inkscape:pageopacity="0.0"
     inkscape:pageshadow="2"
     inkscape:zoom="2.8"
     inkscape:cx="183.14993"
     inkscape:cy="132.06398"
     inkscape:document-units="px"
     inkscape:current-layer="text54"
     showgrid="false"
     inkscape:window-width="1587"
     inkscape:window-height="1198"
     inkscape:window-x="351"
     inkscape:window-y="94"
     inkscape:window-maximized="0"
     units="px"
     inkscape:document-rotation="0" />
  <metadata
     id="metadata7">
    <rdf:RDF>
      <cc:Work
         rdf:about="">
        <dc:format>image/svg+xml</dc:format>
        <dc:type
           rdf:resource="http://purl.org/dc/dcmitype/StillImage" />
        <dc:title />
      </cc:Work>
    </rdf:RDF>
  </metadata>
  <g
     inkscape:label="Ebene 1"
     inkscape:groupmode="layer"
     id="layer1"
     transform="translate(0,-910.3621)">
    <path
       style="fill:#000000"
       d=""
       id="path4220"
       inkscape:connector-curvature="0" />
    <path
       style="fill:#000000"
       d=""
       id="path4218"
       inkscape:connector-curvature="0" />
    <rect
       style="fill:#c3c3c3;fill-opacity:1"
       id="rect31"
       width="302.85715"
       height="55.357117"
       x="25.142857"
       y="990.86212"
       ry="0.048698898" />
    <rect
       style="fill:#031122;fill-opacity:1;stroke-width:1.03505"
       id="rect50"
       width="269"
       height="27"
       x="40"
       y="1005.3621"
       ry="0" />
    <g
       aria-label="0"
       id="text54"
       style="font-size:87.2646px;line-height:1.25;font-family:FreeSans;-inkscape-font-specification:FreeSans;fill:#c3c3c3;fill-opacity:1;stroke-width:2.18162">
      <path
         d="m 172.76805,980.24531 c 17.19112,0 21.29256,-14.83499 21.29256,-32.20064 0,-11.3444 -1.39624,-19.02369 -4.36323,-23.82324 -3.66511,-5.93399 -9.68637,-9.16278 -16.92933,-9.16278 -6.63211,0 -12.30431,2.79247 -16.05669,7.94108 -3.57785,4.79955 -5.23588,12.74063 -5.23588,24.69588 0,17.97651 4.27597,32.5497 21.29257,32.5497 z m 9.07551,-32.46244 c 0,6.89391 -0.69811,13.87508 -1.57076,16.31848 -1.39623,3.66512 -4.01417,5.6722 -7.50475,5.6722 -5.6722,0 -9.07552,-3.75237 -9.07552,-22.16521 0,-17.54018 2.79246,-22.68879 9.07552,-22.68879 5.58493,0 9.07551,3.57785 9.07551,22.86332 z"
         style="font-style:normal;font-variant:normal;font-weight:bold;font-stretch:normal;font-family:FreeSans;-inkscape-font-specification:'FreeSans Bold';fill:#c3c3c3;fill-opacity:1;stroke-width:2.18162"
         id="path56" />
    </g>
  </g>
</svg>
