<?xml version="1.0" encoding="UTF-8" standalone="no"?>
<svg
   xmlns:dc="http://purl.org/dc/elements/1.1/"
   xmlns:cc="http://creativecommons.org/ns#"
   xmlns:rdf="http://www.w3.org/1999/02/22-rdf-syntax-ns#"
   xmlns:svg="http://www.w3.org/2000/svg"
   xmlns="http://www.w3.org/2000/svg"
   xmlns:sodipodi="http://sodipodi.sourceforge.net/DTD/sodipodi-0.dtd"
   xmlns:inkscape="http://www.inkscape.org/namespaces/inkscape"
   width="350"
   height="142"
   viewBox="0 0 350 142"
   id="svg2"
   version="1.1"
   inkscape:version="1.0.1 (3bc2e813f5, 2020-09-07)"
   sodipodi:docname="LE_05.svg">
  <defs
     id="defs4" />
  <sodipodi:namedview
     id="base"
     pagecolor="#ffffff"
     bordercolor="#666666"
     borderopacity="1.0"
     inkscape:pageopacity="0.0"
     inkscape:pageshadow="2"
     inkscape:zoom="5.6"
     inkscape:cx="217.79965"
     inkscape:cy="94.810555"
     inkscape:document-units="px"
     inkscape:current-layer="text44"
     showgrid="false"
     inkscape:window-width="3440"
     inkscape:window-height="1377"
     inkscape:window-x="-8"
     inkscape:window-y="-8"
     inkscape:window-maximized="1"
     units="px"
     inkscape:document-rotation="0" />
  <metadata
     id="metadata7">
    <rdf:RDF>
      <cc:Work
         rdf:about="">
        <dc:format>image/svg+xml</dc:format>
        <dc:type
           rdf:resource="http://purl.org/dc/dcmitype/StillImage" />
        <dc:title></dc:title>
      </cc:Work>
    </rdf:RDF>
  </metadata>
  <g
     inkscape:label="Ebene 1"
     inkscape:groupmode="layer"
     id="layer1"
     transform="translate(0,-910.3621)">
    <path
       style="fill:#000000"
       d=""
       id="path4220"
       inkscape:connector-curvature="0" />
    <path
       style="fill:#000000"
       d=""
       id="path4218"
       inkscape:connector-curvature="0" />
    <rect
       style="fill:#c3c3c3;fill-opacity:1"
       id="rect31"
       width="302.85715"
       height="55.357117"
       x="25.142857"
       y="992.86212"
       ry="0.048698898" />
    <g
       aria-label="2"
       id="text37"
       style="font-size:88.3578px;line-height:1.25;font-family:FreeSans;-inkscape-font-specification:FreeSans;fill:#c3c3c3;fill-opacity:1;stroke-width:2.20895">
      <g
         aria-label="3"
         id="text44"
         style="font-size:85.8979px;line-height:1.25;font-family:FreeSans;-inkscape-font-specification:FreeSans;fill:#c3c3c3;fill-opacity:1;stroke-width:4.7436">
        <path
           d="m 154.9688,937.60065 v 1.03078 h 11.16673 c 0.17179,-6.52824 1.54616,-10.73724 8.3321,-10.73724 4.81028,0 7.55901,2.92053 7.55901,7.9885 0,6.09875 -3.52181,9.19108 -10.65134,9.19108 h -1.03077 v 8.0744 c 4.20899,0 4.98207,0.0859 7.04362,0.60129 4.03721,1.11667 6.61414,4.63848 6.61414,9.10518 0,5.32567 -3.7795,9.19107 -9.01928,9.19107 -5.66926,0 -8.76158,-3.26412 -9.10517,-9.53467 h -11.68212 c 0.0859,12.19751 8.0744,19.84242 20.5296,19.84242 12.97058,0 21.30268,-7.64491 21.30268,-19.49882 0,-7.12953 -3.09232,-11.76802 -9.96416,-15.11804 5.66926,-3.52181 7.98851,-7.38722 7.98851,-12.97058 0,-10.13595 -7.55902,-16.57829 -19.32703,-16.57829 -7.81671,0 -19.75652,2.92052 -19.75652,19.41292 z"
           style="font-style:normal;font-variant:normal;font-weight:bold;font-stretch:normal;font-family:FreeSans;-inkscape-font-specification:'FreeSans Bold';fill:#c3c3c3;fill-opacity:1;stroke-width:4.7436"
           id="path46" />
      </g>
    </g>
  </g>
</svg>
