<?xml version="1.0" encoding="UTF-8" standalone="no"?>
<!-- Created with Inkscape (http://www.inkscape.org/) -->

<svg
   xmlns:dc="http://purl.org/dc/elements/1.1/"
   xmlns:cc="http://creativecommons.org/ns#"
   xmlns:rdf="http://www.w3.org/1999/02/22-rdf-syntax-ns#"
   xmlns:svg="http://www.w3.org/2000/svg"
   xmlns="http://www.w3.org/2000/svg"
   xmlns:sodipodi="http://sodipodi.sourceforge.net/DTD/sodipodi-0.dtd"
   xmlns:inkscape="http://www.inkscape.org/namespaces/inkscape"
   width="37"
   height="50"
   viewBox="0 0 37 50"
   id="svg2"
   version="1.1"
   inkscape:version="0.91 r13725"
   sodipodi:docname="Lm55_off.svg">
  <defs
     id="defs4" />
  <sodipodi:namedview
     id="base"
     pagecolor="#ffffff"
     bordercolor="#666666"
     borderopacity="1.0"
     inkscape:pageopacity="0"
     inkscape:pageshadow="2"
     inkscape:zoom="16"
     inkscape:cx="-10.387514"
     inkscape:cy="25.614769"
     inkscape:document-units="px"
     inkscape:current-layer="layer1"
     showgrid="false"
     inkscape:window-width="1920"
     inkscape:window-height="1029"
     inkscape:window-x="0"
     inkscape:window-y="0"
     inkscape:window-maximized="1"
     units="px" />
  <metadata
     id="metadata7">
    <rdf:RDF>
      <cc:Work
         rdf:about="">
        <dc:format>image/svg+xml</dc:format>
        <dc:type
           rdf:resource="http://purl.org/dc/dcmitype/StillImage" />
        <dc:title />
      </cc:Work>
    </rdf:RDF>
  </metadata>
  <g
     inkscape:label="Ebene 1"
     inkscape:groupmode="layer"
     id="layer1"
     transform="translate(0,-1002.3621)">
    <rect
       style="opacity:1;fill:#0000ff;fill-opacity:1;fill-rule:nonzero;stroke:none;stroke-width:0;stroke-miterlimit:4;stroke-dasharray:none;stroke-opacity:1"
       id="rect4197"
       width="37"
       height="50"
       x="1.602695e-06"
       y="1002.4246"
       ry="0.16140208" />
    <g
       style="font-style:normal;font-variant:normal;font-weight:normal;font-stretch:normal;font-size:27.90181541px;line-height:125%;font-family:FreeSans;-inkscape-font-specification:FreeSans;letter-spacing:0px;word-spacing:0px;fill:#ffffff;fill-opacity:1;stroke:none;stroke-width:1px;stroke-linecap:butt;stroke-linejoin:miter;stroke-opacity:1"
       id="text4191">
      <path
         d="m 16.28459,1016.762 0,2.4275 -8.2310355,0 -0.7812508,5.5246 q 1.6462071,-1.1998 3.6551383,-1.1998 2.845985,0 4.603799,1.8415 1.785716,1.8136 1.785716,4.7433 0,3.125 -1.897323,5.106 -1.897324,1.9811 -4.882818,1.9811 -1.1439743,0 -2.1205379,-0.2511 -0.9486617,-0.2512 -1.5904034,-0.586 -0.61384,-0.3627 -1.1439745,-0.9207 -0.5022327,-0.586 -0.7812508,-1.0045 -0.2511164,-0.4464 -0.5022327,-1.0882 -0.2232145,-0.6696 -0.2790181,-0.9207 -0.055804,-0.2512 -0.1395091,-0.7255 l 2.4553597,0 q 0.8649563,3.3203 4.0457628,3.3203 2.008931,0 3.152906,-1.2276 1.171876,-1.2277 1.171876,-3.3483 0,-2.2042 -1.171876,-3.4598 -1.171877,-1.2835 -3.152906,-1.2835 -1.143974,0 -1.9531266,0.4186 -0.8091527,0.3906 -1.6741089,1.4229 l -2.2600471,0 1.4787962,-10.7701 10.2120644,0 z"
         style=""
         id="path6883" />
      <path
         d="m 31.815874,1016.762 0,2.4275 -8.231035,0 -0.781251,5.5246 q 1.646207,-1.1998 3.655138,-1.1998 2.845985,0 4.603799,1.8415 1.785717,1.8136 1.785717,4.7433 0,3.125 -1.897324,5.106 -1.897323,1.9811 -4.882818,1.9811 -1.143974,0 -2.120538,-0.2511 -0.948661,-0.2512 -1.590403,-0.586 -0.61384,-0.3627 -1.143974,-0.9207 -0.502233,-0.586 -0.781251,-1.0045 -0.251117,-0.4464 -0.502233,-1.0882 -0.223214,-0.6696 -0.279018,-0.9207 -0.0558,-0.2512 -0.139509,-0.7255 l 2.45536,0 q 0.864956,3.3203 4.045763,3.3203 2.008931,0 3.152905,-1.2276 1.171876,-1.2277 1.171876,-3.3483 0,-2.2042 -1.171876,-3.4598 -1.171876,-1.2835 -3.152905,-1.2835 -1.143975,0 -1.953127,0.4186 -0.809153,0.3906 -1.674109,1.4229 l -2.260047,0 1.478796,-10.7701 10.212064,0 z"
         style=""
         id="path6885" />
    </g>
    <path
       style="opacity:1;fill:#000000;fill-opacity:1;fill-rule:nonzero;stroke:none;stroke-width:0;stroke-miterlimit:4;stroke-dasharray:none;stroke-opacity:1"
       d="M 0.05391116,49.932106 C 0.03760263,49.889138 0.03145408,38.660231 0.04024771,24.978981 l 0.01598844,-24.87499963 18.43749985,0 18.4375,0 0.0157,24.95312463 0.0157,24.953125 -18.439539,0 c -14.6941501,0 -18.44556176,-0.01587 -18.46919084,-0.07813 z M 11.907424,34.730996 c 2.68715,-0.470605 4.678231,-2.464042 5.277019,-5.283265 0.135123,-0.636189 0.18462,-2.023492 0.0974,-2.729925 -0.3328,-2.695481 -2.031482,-4.69912 -4.561926,-5.380912 -0.542256,-0.146103 -0.711446,-0.161956 -1.72618,-0.161745 -0.964243,1.87e-4 -1.1964474,0.01983 -1.6249999,0.137401 -0.5254075,0.144139 -1.2348093,0.456594 -1.734375,0.763903 -0.2044943,0.125795 -0.296875,0.155941 -0.296875,0.09688 0,-0.113387 0.6790788,-4.966303 0.7202344,-5.147026 l 0.031922,-0.140176 4.1082966,-0.01607 4.108297,-0.01607 0.01695,-1.234375 0.01695,-1.234375 -5.157572,0 c -4.1338834,0 -5.1575709,0.01579 -5.1575709,0.07956 0,0.04376 -0.3234375,2.434063 -0.71875,5.311792 -0.3953125,2.87773 -0.71875,5.274742 -0.71875,5.326694 0,0.08085 0.1654777,0.09446 1.1487212,0.09446 l 1.1487213,0 0.2321288,-0.283282 c 0.5411125,-0.660357 1.4799075,-1.257675 2.2673025,-1.442593 0.6558911,-0.154035 2.0231131,-0.09209 2.6286201,0.119104 1.852098,0.645979 2.867178,2.431894 2.742734,4.825521 -0.06949,1.336662 -0.433122,2.233555 -1.230061,3.033956 -0.808311,0.811822 -1.660599,1.140741 -2.969417,1.145972 C 9.2094718,32.601791 8.4351493,32.314282 7.6499718,31.517296 7.145828,31.00557 6.8894818,30.58122 6.6168605,29.807106 l -0.1705831,-0.484375 -1.2418957,0 c -0.9520833,0 -1.2417934,0.01823 -1.2414577,0.07813 9.225e-4,0.164598 0.2479873,1.098728 0.4091276,1.546875 0.2575739,0.716338 0.4772507,1.112162 0.9513093,1.714114 0.9026159,1.146126 1.990319,1.756447 3.6703752,2.059483 0.6715569,0.12113 2.2473809,0.126359 2.9136879,0.0097 z m 15.696653,-0.03665 c 1.232029,-0.251071 2.246052,-0.774116 3.12057,-1.609626 1.293008,-1.235332 1.943337,-2.655058 2.113347,-4.613623 0.11489,-1.323571 -0.105174,-2.758958 -0.580813,-3.788418 -0.629244,-1.361917 -1.897726,-2.578516 -3.232195,-3.099995 -0.970599,-0.379288 -2.482772,-0.54933 -3.486357,-0.392037 -0.69476,0.10889 -1.549802,0.407754 -2.138643,0.747522 -0.292187,0.168596 -0.536167,0.302769 -0.542177,0.298162 -0.006,-0.0046 0.155515,-1.175333 0.358946,-2.601614 0.20343,-1.426282 0.370066,-2.628193 0.370302,-2.670915 3.13e-4,-0.06095 0.885551,-0.08114 4.109804,-0.09375 l 4.109375,-0.01608 0.01695,-1.234375 0.01695,-1.234375 -5.121355,0 -5.121356,0 -0.03539,0.171875 c -0.01946,0.09453 -0.345773,2.45 -0.725129,5.234375 -0.379357,2.784375 -0.705402,5.139844 -0.724543,5.234375 l -0.0348,0.171875 1.139461,0 1.139461,0 0.570113,-0.551532 c 0.670786,-0.648925 1.19486,-0.962355 1.912593,-1.143854 0.438708,-0.11094 0.646112,-0.126374 1.367111,-0.101734 0.977777,0.03341 1.426622,0.149335 2.059153,0.5318 1.168293,0.70642 1.868077,1.920093 2.002997,3.473907 0.182357,2.100125 -0.506403,3.771256 -1.903231,4.61779 -1.457625,0.88338 -3.713285,0.770983 -4.95551,-0.246928 -0.536448,-0.439579 -1.139783,-1.4228 -1.325391,-2.159916 l -0.07416,-0.294533 -1.267647,0 -1.267645,0 0.117941,0.546875 c 0.247037,1.145469 0.609583,1.960112 1.22254,2.747051 0.747496,0.959667 1.415226,1.431864 2.537858,1.794692 0.963333,0.311342 1.539765,0.39921 2.661975,0.405774 0.73854,0.0043 1.103719,-0.0239 1.588908,-0.122773 z"
       id="path4258"
       inkscape:connector-curvature="0"
       transform="translate(0,1002.3621)" />
    <path
       style="opacity:1;fill:#031122;fill-opacity:1;fill-rule:nonzero;stroke:none;stroke-width:0;stroke-miterlimit:4;stroke-dasharray:none;stroke-opacity:1"
       d="M 4.0896551,1052.3152 0,1052.2985 l 0,-24.9682 0,-24.9682 18.45829,0 18.45829,0 2.5e-5,16.3065 c 1.4e-5,8.9684 0.01878,20.2184 0.04171,25 l 0.04169,8.6935 -14.410344,-0.015 c -7.925691,-0.01 -16.2506906,-0.023 -18.5000009,-0.032 z m 8.2889939,-15.3621 c 2.06834,-0.5753 3.623598,-1.9701 4.406245,-3.9519 0.409191,-1.0361 0.478917,-1.4651 0.478685,-2.9449 -1.89e-4,-1.2618 -0.01071,-1.3855 -0.166228,-1.9552 -0.620474,-2.2728 -2.169965,-3.8579 -4.405318,-4.5063 -0.449067,-0.1302 -0.63228,-0.1456 -1.754948,-0.1471 -1.2186162,0 -1.2691192,0 -1.8130282,0.1817 -0.3077213,0.1008 -0.8243391,0.3194 -1.1480392,0.4856 -0.3237001,0.1662 -0.6007626,0.3022 -0.6156947,0.3022 -0.014931,0 -0.027149,-0.069 -0.027149,-0.1541 0,-0.1372 0.4402105,-3.3618 0.6311814,-4.6234 l 0.0735,-0.4856 4.1290437,0 4.129044,0 0,-1.2532 0,-1.2531 -5.131816,0 c -4.031997,0 -5.1445418,0.017 -5.1911977,0.078 -0.049667,0.065 -1.3265165,9.2822 -1.4409062,10.401 l -0.036839,0.3602 1.1542932,0 1.1542932,0 0.499739,-0.4898 c 0.5520658,-0.5412 1.1636413,-0.933 1.7846114,-1.1435 0.3439234,-0.1166 0.5392315,-0.1374 1.2535331,-0.1339 1.045275,0.01 1.392056,0.071 2.061715,0.3909 0.738707,0.3531 1.390908,1.0067 1.748561,1.7523 0.425461,0.887 0.482563,1.1834 0.482838,2.5062 1.89e-4,1.0403 -0.01481,1.2074 -0.146478,1.6291 -0.23117,0.7404 -0.492315,1.1728 -1.043298,1.7276 -0.88444,0.8904 -1.803489,1.2071 -3.291368,1.134 -1.2061565,-0.059 -1.9150232,-0.3723 -2.6571573,-1.1736 -0.4295611,-0.4638 -0.6229739,-0.7887 -0.8863941,-1.4887 l -0.2046494,-0.5439 -1.2597345,-0.017 -1.2597344,-0.017 4.48e-5,0.1424 c 6.89e-5,0.2119 0.2987563,1.2613 0.5124008,1.8001 0.3514386,0.8864 1.2102902,1.9917 1.9327088,2.4873 0.4258944,0.2921 1.1118101,0.6207 1.6149122,0.7735 0.8665112,0.2631 1.2888112,0.3091 2.6463401,0.2886 1.096969,-0.017 1.358202,-0.04 1.786286,-0.1589 z m 15.120734,0.089 c 0.968616,-0.1837 1.918291,-0.588 2.616804,-1.1142 0.501654,-0.3778 1.262521,-1.1724 1.595197,-1.6657 1.373161,-2.0367 1.574145,-5.284 0.463819,-7.4939 -0.584371,-1.1631 -1.695543,-2.2473 -2.862829,-2.7934 -0.753573,-0.3525 -1.523984,-0.5082 -2.674774,-0.5405 -0.959183,-0.027 -1.07961,-0.017 -1.660933,0.1318 -0.391515,0.1005 -0.905764,0.2995 -1.370083,0.5302 l -0.743316,0.3695 0.03368,-0.2278 c 0.01852,-0.1253 0.182134,-1.3021 0.363577,-2.6151 l 0.329896,-2.3873 0.975167,-0.04 c 0.536344,-0.022 2.392445,-0.04 4.124673,-0.041 l 3.149505,-2e-4 0,-1.2532 0,-1.2531 -5.141457,0 c -4.057294,0 -5.147027,0.016 -5.167872,0.078 -0.02943,0.087 -1.474381,10.5591 -1.474082,10.6829 1.26e-4,0.06 0.270615,0.078 1.14404,0.078 l 1.14385,-4e-4 0.556451,-0.5068 c 0.698124,-0.6357 1.090853,-0.8877 1.704384,-1.0936 0.427613,-0.1434 0.581875,-0.1621 1.317832,-0.1594 1.321019,0.01 1.879375,0.1675 2.702563,0.7861 0.958435,0.7202 1.539733,1.9525 1.627267,3.4495 0.121399,2.0762 -0.690258,3.7394 -2.184066,4.4755 -0.638924,0.3148 -1.209689,0.4405 -2.006739,0.442 -1.232906,0 -2.254257,-0.3746 -2.897138,-1.0688 -0.42538,-0.4593 -0.857465,-1.1776 -1.00496,-1.6708 -0.05938,-0.1984 -0.118851,-0.3961 -0.132169,-0.4392 -0.01834,-0.059 -0.336279,-0.078 -1.311053,-0.078 -0.707762,0 -1.286642,0.021 -1.2864,0.047 8.78e-4,0.094 0.255827,1.12 0.354132,1.4254 0.159536,0.4957 0.569343,1.2785 0.909014,1.7366 0.437138,0.5896 1.15763,1.2419 1.662061,1.505 0.616163,0.3214 1.65475,0.6416 2.464551,0.7598 0.464808,0.068 2.22221,0.032 2.679407,-0.055 l 0,0 z"
       id="path4260"
       inkscape:connector-curvature="0" />
  </g>
</svg>
