<?xml version="1.0" encoding="UTF-8" standalone="no"?>
<svg
   xmlns:dc="http://purl.org/dc/elements/1.1/"
   xmlns:cc="http://creativecommons.org/ns#"
   xmlns:rdf="http://www.w3.org/1999/02/22-rdf-syntax-ns#"
   xmlns:svg="http://www.w3.org/2000/svg"
   xmlns="http://www.w3.org/2000/svg"
   xmlns:sodipodi="http://sodipodi.sourceforge.net/DTD/sodipodi-0.dtd"
   xmlns:inkscape="http://www.inkscape.org/namespaces/inkscape"
   width="37"
   height="50"
   viewBox="0 0 37 50"
   id="svg2"
   version="1.1"
   inkscape:version="1.0.1 (3bc2e813f5, 2020-09-07)"
   sodipodi:docname="Lm60_on.svg">
  <defs
     id="defs4" />
  <sodipodi:namedview
     id="base"
     pagecolor="#ffffff"
     bordercolor="#666666"
     borderopacity="1.0"
     inkscape:pageopacity="0"
     inkscape:pageshadow="2"
     inkscape:zoom="22.627417"
     inkscape:cx="25.592897"
     inkscape:cy="21.388808"
     inkscape:document-units="px"
     inkscape:current-layer="text13"
     showgrid="false"
     inkscape:window-width="1920"
     inkscape:window-height="1017"
     inkscape:window-x="-8"
     inkscape:window-y="-8"
     inkscape:window-maximized="1"
     units="px"
     inkscape:document-rotation="0" />
  <metadata
     id="metadata7">
    <rdf:RDF>
      <cc:Work
         rdf:about="">
        <dc:format>image/svg+xml</dc:format>
        <dc:type
           rdf:resource="http://purl.org/dc/dcmitype/StillImage" />
        <dc:title />
      </cc:Work>
    </rdf:RDF>
  </metadata>
  <g
     inkscape:label="Ebene 1"
     inkscape:groupmode="layer"
     id="layer1"
     transform="translate(0,-1002.3621)">
    <rect
       style="opacity:1;fill:#0000ea;fill-opacity:1;fill-rule:nonzero;stroke:none;stroke-width:0;stroke-miterlimit:4;stroke-dasharray:none;stroke-opacity:1"
       id="rect4197"
       width="37"
       height="50"
       x="0"
       y="1002.3621"
       ry="0.16140208" />
    <g
       aria-label="0"
       id="text13"
       style="font-size:27.8647px;line-height:1.25;font-family:FreeSans;-inkscape-font-specification:FreeSans;fill:#ffffff;stroke-width:0.696618">
      <path
         d="m 19.228093,1026.9363 q 0,-2.48 0.417971,-4.3748 0.41797,-1.8948 1.058858,-2.9536 0.640888,-1.0867 1.532559,-1.7555 0.89167,-0.6687 1.699747,-0.8917 0.835941,-0.2229 1.755476,-0.2229 6.46461,0 6.46461,10.3657 0,4.8763 -1.671882,7.4677 -1.644017,2.5636 -4.792728,2.5636 -3.176576,0 -4.820594,-2.5914 -1.644017,-2.6193 -1.644017,-7.6071 z m 10.421398,-0.056 q 0,-7.9693 -3.956787,-7.9693 -3.956788,0 -3.956788,8.0529 0,8.1365 3.901058,8.1365 2.061988,0 3.037253,-2.0063 0.975264,-2.0063 0.975264,-6.2138 z"
         style="fill:#ffffff;stroke-width:0.696618"
         id="path24" />
    </g>
    <g
       aria-label="65"
       id="text15"
       style="font-size:27.7955px;line-height:1.25;font-family:FreeSans;-inkscape-font-specification:FreeSans;fill:#ffffff;stroke-width:0.694887">
      <path
         d="m 4.3427056,1027.4735 q 0,-2.6128 0.4725235,-4.5863 0.4725235,-2.0013 1.167411,-3.1409 0.722683,-1.1396 1.6955255,-1.8345 1.0006379,-0.7227 1.8622984,-0.945 0.889456,-0.2224 1.862299,-0.2224 2.251435,0 3.724596,1.362 1.500957,1.362 1.862299,3.7802 h -2.446004 q -0.30575,-1.4176 -1.167411,-2.1959 -0.86166,-0.7782 -2.140253,-0.7782 -2.1124585,0 -3.252074,1.9456 -1.1118199,1.9179 -1.1396154,5.5313 1.6121389,-2.1958 4.5306664,-2.1958 2.640573,0 4.336098,1.7511 1.695525,1.7511 1.695525,4.5029 0,2.8907 -1.834503,4.7808 -1.806707,1.8623 -4.614052,1.8623 -6.6153294,0 -6.6153294,-9.6172 z m 6.7265114,-1.1119 q -1.806708,0 -2.9463235,1.1675 -1.1396154,1.1396 -1.1396154,2.9741 0,1.8901 1.1396154,3.1687 1.1396155,1.2508 2.8629365,1.2508 1.695526,0 2.807346,-1.1952 1.11182,-1.223 1.11182,-3.0853 0,-1.9735 -1.028434,-3.1131 -1.028433,-1.1675 -2.807345,-1.1675 z"
         style="stroke-width:0.694887"
         id="path842" />
    </g>
  </g>
</svg>
