<?xml version="1.0" encoding="UTF-8" standalone="no"?>
<!-- Created with Inkscape (http://www.inkscape.org/) -->

<svg
   xmlns:dc="http://purl.org/dc/elements/1.1/"
   xmlns:cc="http://creativecommons.org/ns#"
   xmlns:rdf="http://www.w3.org/1999/02/22-rdf-syntax-ns#"
   xmlns:svg="http://www.w3.org/2000/svg"
   xmlns="http://www.w3.org/2000/svg"
   xmlns:sodipodi="http://sodipodi.sourceforge.net/DTD/sodipodi-0.dtd"
   xmlns:inkscape="http://www.inkscape.org/namespaces/inkscape"
   width="37"
   height="50"
   viewBox="0 0 37 50"
   id="svg2"
   version="1.1"
   inkscape:version="0.91 r13725"
   sodipodi:docname="Lm70_on.svg">
  <defs
     id="defs4" />
  <sodipodi:namedview
     id="base"
     pagecolor="#ffffff"
     bordercolor="#666666"
     borderopacity="1.0"
     inkscape:pageopacity="0"
     inkscape:pageshadow="2"
     inkscape:zoom="16"
     inkscape:cx="-21.700014"
     inkscape:cy="25.489769"
     inkscape:document-units="px"
     inkscape:current-layer="layer1"
     showgrid="false"
     inkscape:window-width="1920"
     inkscape:window-height="1029"
     inkscape:window-x="0"
     inkscape:window-y="0"
     inkscape:window-maximized="1"
     units="px" />
  <metadata
     id="metadata7">
    <rdf:RDF>
      <cc:Work
         rdf:about="">
        <dc:format>image/svg+xml</dc:format>
        <dc:type
           rdf:resource="http://purl.org/dc/dcmitype/StillImage" />
        <dc:title />
      </cc:Work>
    </rdf:RDF>
  </metadata>
  <g
     inkscape:label="Ebene 1"
     inkscape:groupmode="layer"
     id="layer1"
     transform="translate(0,-1002.3621)">
    <rect
       style="opacity:1;fill:#0000ea;fill-opacity:1;fill-rule:nonzero;stroke:none;stroke-width:0;stroke-miterlimit:4;stroke-dasharray:none;stroke-opacity:1"
       id="rect4197"
       width="37"
       height="50"
       x="1.602695e-06"
       y="1002.3621"
       ry="0.16140208" />
    <g
       style="font-style:normal;font-variant:normal;font-weight:normal;font-stretch:normal;font-size:27.90181541px;line-height:125%;font-family:FreeSans;-inkscape-font-specification:FreeSans;letter-spacing:0px;word-spacing:0px;fill:#ffffff;fill-opacity:1;stroke:none;stroke-width:1px;stroke-linecap:butt;stroke-linejoin:miter;stroke-opacity:1"
       id="text4191">
      <path
         d="m 17.51227,1016.762 0,2.0648 q -3.348218,4.4643 -5.301345,8.7332 -1.925225,4.2411 -2.7343779,8.9844 l -2.6227706,0 q 1.1160726,-4.8828 2.8459851,-8.5937 1.7299124,-3.711 5.2734434,-8.7612 l -10.6863956,0 0,-2.4275 13.2254606,0 z"
         style=""
         id="path6340" />
      <path
         d="m 19.734388,1026.9741 q 0,-2.4833 0.418528,-4.3806 0.418527,-1.8973 1.060269,-2.9576 0.641741,-1.0881 1.534599,-1.7578 0.892858,-0.6696 1.702011,-0.8928 0.837055,-0.2233 1.757815,-0.2233 6.473221,0 6.473221,10.3795 0,4.8828 -1.674109,7.4777 -1.646207,2.567 -4.799112,2.567 -3.180807,0 -4.827015,-2.5949 -1.646207,-2.6228 -1.646207,-7.6172 z m 10.435279,-0.056 q 0,-7.9799 -3.962057,-7.9799 -3.962058,0 -3.962058,8.0636 0,8.1473 3.906254,8.1473 2.064734,0 3.041298,-2.0089 0.976563,-2.0089 0.976563,-6.2221 z"
         style=""
         id="path6342" />
    </g>
  </g>
</svg>
