<?xml version="1.0" encoding="UTF-8" standalone="no"?>
<svg
   xmlns:dc="http://purl.org/dc/elements/1.1/"
   xmlns:cc="http://creativecommons.org/ns#"
   xmlns:rdf="http://www.w3.org/1999/02/22-rdf-syntax-ns#"
   xmlns:svg="http://www.w3.org/2000/svg"
   xmlns="http://www.w3.org/2000/svg"
   xmlns:sodipodi="http://sodipodi.sourceforge.net/DTD/sodipodi-0.dtd"
   xmlns:inkscape="http://www.inkscape.org/namespaces/inkscape"
   width="37"
   height="50"
   viewBox="0 0 37 50"
   id="svg2"
   version="1.1"
   inkscape:version="1.0.1 (3bc2e813f5, 2020-09-07)"
   sodipodi:docname="Lm75_off.svg">
  <defs
     id="defs4" />
  <sodipodi:namedview
     id="base"
     pagecolor="#ffffff"
     bordercolor="#666666"
     borderopacity="1.0"
     inkscape:pageopacity="0"
     inkscape:pageshadow="2"
     inkscape:zoom="11.313709"
     inkscape:cx="20.21569"
     inkscape:cy="22.674084"
     inkscape:document-units="px"
     inkscape:current-layer="text15"
     showgrid="false"
     inkscape:window-width="1920"
     inkscape:window-height="1017"
     inkscape:window-x="-8"
     inkscape:window-y="-8"
     inkscape:window-maximized="1"
     units="px"
     inkscape:document-rotation="0" />
  <metadata
     id="metadata7">
    <rdf:RDF>
      <cc:Work
         rdf:about="">
        <dc:format>image/svg+xml</dc:format>
        <dc:type
           rdf:resource="http://purl.org/dc/dcmitype/StillImage" />
        <dc:title />
      </cc:Work>
    </rdf:RDF>
  </metadata>
  <g
     inkscape:label="Ebene 1"
     inkscape:groupmode="layer"
     id="layer1"
     transform="translate(0,-1002.3621)">
    <rect
       style="fill:#031122;fill-opacity:1;stroke-width:6.02007"
       id="rect17"
       width="37"
       height="50"
       x="0"
       y="1002.3621" />
    <g
       aria-label="75"
       id="text15"
       style="font-size:27.7955px;line-height:1.25;font-family:FreeSans;-inkscape-font-specification:FreeSans;fill:#ffffff;stroke-width:0.694887">
      <path
         d="m 17.601159,1016.7444 v 2.0569 q -3.33546,4.4473 -5.281145,8.7 -1.917889,4.2249 -2.723959,8.9501 H 6.9832781 q 1.1118199,-4.8642 2.8351409,-8.561 1.723321,-3.6968 5.253349,-8.7278 H 4.4260921 v -2.4182 z"
         style="stroke-width:0.694887"
         id="path855" />
      <path
         d="m 31.832448,1016.7444 v 2.4182 h -8.199672 l -0.778274,5.5035 q 1.639934,-1.1952 3.64121,-1.1952 2.835141,0 4.586258,1.8345 1.778912,1.8067 1.778912,4.7253 0,3.1131 -1.890094,5.0865 -1.890094,1.9735 -4.864213,1.9735 -1.139615,0 -2.112458,-0.2501 -0.945047,-0.2502 -1.584343,-0.5838 -0.611501,-0.3613 -1.139616,-0.9172 -0.500319,-0.5837 -0.778274,-1.0006 -0.250159,-0.4448 -0.500319,-1.0841 -0.222364,-0.6671 -0.277955,-0.9172 -0.05559,-0.2502 -0.138977,-0.7227 h 2.446004 q 0.86166,3.3077 4.030347,3.3077 2.001276,0 3.140892,-1.223 1.167411,-1.223 1.167411,-3.3355 0,-2.1958 -1.167411,-3.4466 -1.167411,-1.2786 -3.140892,-1.2786 -1.139615,0 -1.945685,0.4169 -0.806069,0.3891 -1.66773,1.4176 h -2.251435 l 1.473161,-10.7291 z"
         style="stroke-width:0.694887"
         id="path857" />
    </g>
  </g>
</svg>
