<?xml version="1.0" encoding="UTF-8" standalone="no"?>
<!-- Created with Inkscape (http://www.inkscape.org/) -->

<svg
   xmlns:dc="http://purl.org/dc/elements/1.1/"
   xmlns:cc="http://creativecommons.org/ns#"
   xmlns:rdf="http://www.w3.org/1999/02/22-rdf-syntax-ns#"
   xmlns:svg="http://www.w3.org/2000/svg"
   xmlns="http://www.w3.org/2000/svg"
   xmlns:sodipodi="http://sodipodi.sourceforge.net/DTD/sodipodi-0.dtd"
   xmlns:inkscape="http://www.inkscape.org/namespaces/inkscape"
   width="37"
   height="50"
   viewBox="0 0 37 50"
   id="svg2"
   version="1.1"
   inkscape:version="0.91 r13725"
   sodipodi:docname="LmBef40_on.svg">
  <defs
     id="defs4" />
  <sodipodi:namedview
     id="base"
     pagecolor="#ffffff"
     bordercolor="#666666"
     borderopacity="1.0"
     inkscape:pageopacity="0"
     inkscape:pageshadow="2"
     inkscape:zoom="16"
     inkscape:cx="-3.927386"
     inkscape:cy="23.832969"
     inkscape:document-units="px"
     inkscape:current-layer="layer1"
     showgrid="false"
     inkscape:window-width="1920"
     inkscape:window-height="1029"
     inkscape:window-x="0"
     inkscape:window-y="0"
     inkscape:window-maximized="1"
     units="px" />
  <metadata
     id="metadata7">
    <rdf:RDF>
      <cc:Work
         rdf:about="">
        <dc:format>image/svg+xml</dc:format>
        <dc:type
           rdf:resource="http://purl.org/dc/dcmitype/StillImage" />
        <dc:title />
      </cc:Work>
    </rdf:RDF>
  </metadata>
  <g
     inkscape:label="Ebene 1"
     inkscape:groupmode="layer"
     id="layer1"
     transform="translate(0,-1002.3621)">
    <rect
       style="opacity:1;fill:#ffffff;fill-opacity:1;fill-rule:nonzero;stroke:none;stroke-width:0;stroke-miterlimit:4;stroke-dasharray:none;stroke-opacity:1"
       id="rect4188"
       width="37"
       height="50"
       x="0"
       y="1002.3621" />
    <g
       style="font-style:normal;font-weight:normal;font-size:40px;line-height:108.00000429%;font-family:sans-serif;letter-spacing:0px;word-spacing:0px;fill:#000000;fill-opacity:1;stroke:none;stroke-width:1px;stroke-linecap:butt;stroke-linejoin:miter;stroke-opacity:1"
       id="text4180">
      <path
         d="m 14.960821,1021.6897 q 0,1.2925 -0.81125,2.0762 -0.81125,0.7838 -2.145,0.7838 l -4.5237498,0 0,-10.0238 4.0699998,0 q 0.83875,0 1.4575,0.2475 0.61875,0.2475 0.92125,0.66 0.31625,0.3988 0.45375,0.8113 0.1375,0.3987 0.1375,0.825 0,1.54 -1.38875,2.1862 0.9625,0.3713 1.38875,0.9488 0.44,0.5775 0.44,1.485 z m -3.72625,-2.8463 q 2.0075,0 2.0075,-1.595 0,-1.595 -2.0075,-1.595 l -2.4749998,0 0,3.19 2.4749998,0 z m 0.64625,4.5788 q 0.67375,0 1.1,-0.2888 0.42625,-0.3025 0.56375,-0.66 0.1375,-0.3575 0.1375,-0.77 0,-0.7837 -0.4675,-1.2512 -0.4675,-0.4813 -1.33375,-0.4813 l -3.1212498,0 0,3.4513 3.1212498,0 z"
         style="font-style:normal;font-variant:normal;font-weight:normal;font-stretch:normal;font-size:13.75px;line-height:108.00000429%;font-family:FreeSans;-inkscape-font-specification:FreeSans;text-align:center;text-anchor:middle"
         id="path6911" />
      <path
         d="m 22.427931,1021.3322 -5.3075,0 q 0.0275,1.1275 0.5775,1.8012 0.56375,0.6738 1.54,0.6738 1.4025,0 1.88375,-1.4438 l 1.155,0 q -0.22,1.1825 -1.03125,1.8425 -0.81125,0.66 -2.04875,0.66 -1.5125,0 -2.3925,-1.0175 -0.88,-1.0312 -0.88,-2.805 0,-1.7737 0.89375,-2.8325 0.9075,-1.0725 2.40625,-1.0725 3.20375,0 3.20375,4.1938 z m -5.28,-0.935 4.05625,0 q 0,-0.935 -0.56375,-1.5675 -0.56375,-0.6325 -1.43,-0.6325 -0.86625,0 -1.43,0.605 -0.56375,0.5912 -0.6325,1.595 z"
         style="font-style:normal;font-variant:normal;font-weight:normal;font-stretch:normal;font-size:13.75px;line-height:108.00000429%;font-family:FreeSans;-inkscape-font-specification:FreeSans;text-align:center;text-anchor:middle"
         id="path6913" />
      <path
         d="m 26.418224,1017.3447 0,0.935 -1.19625,0 0,6.27 -1.14125,0 0,-6.27 -0.9625,0 0,-0.935 0.9625,0 0,-1.2238 q 0,-0.77 0.44,-1.1962 0.45375,-0.44 1.25125,-0.44 0.31625,0 0.64625,0.069 l 0,0.9488 q -0.26125,-0.014 -0.39875,-0.014 -0.7975,0 -0.7975,0.7288 l 0,1.1275 1.19625,0 z"
         style="font-style:normal;font-variant:normal;font-weight:normal;font-stretch:normal;font-size:13.75px;line-height:108.00000429%;font-family:FreeSans;-inkscape-font-specification:FreeSans;text-align:center;text-anchor:middle"
         id="path6915" />
      <path
         d="m 29.213556,1023.1197 0,1.43 -1.43,0 0,-1.43 1.43,0 z"
         style="font-style:normal;font-variant:normal;font-weight:normal;font-stretch:normal;font-size:13.75px;line-height:108.00000429%;font-family:FreeSans;-inkscape-font-specification:FreeSans;text-align:center;text-anchor:middle"
         id="path6917" />
      <path
         d="m 15.09338,1037.0622 -4.11125,0 0,-1.2788 4.4275,-6.1325 0.89375,0 0,6.325 1.44375,0 0,1.0863 -1.44375,0 0,2.3375 -1.21,0 0,-2.3375 z m 0,-1.0863 0,-4.2625 -3.0525,4.2625 3.0525,0 z"
         style="font-style:normal;font-variant:normal;font-weight:normal;font-stretch:normal;font-size:13.75px;line-height:108.00000429%;font-family:FreeSans;-inkscape-font-specification:FreeSans;text-align:center;text-anchor:middle"
         id="path6919" />
      <path
         d="m 18.842188,1034.6834 q 0,-1.2237 0.20625,-2.1587 0.20625,-0.935 0.5225,-1.4575 0.31625,-0.5363 0.75625,-0.8663 0.44,-0.33 0.83875,-0.44 0.4125,-0.11 0.86625,-0.11 3.19,0 3.19,5.115 0,2.4063 -0.825,3.685 -0.81125,1.265 -2.365,1.265 -1.5675,0 -2.37875,-1.2787 -0.81125,-1.2925 -0.81125,-3.7538 z m 5.1425,-0.027 q 0,-3.9325 -1.9525,-3.9325 -1.9525,0 -1.9525,3.9738 0,4.015 1.925,4.015 1.0175,0 1.49875,-0.99 0.48125,-0.99 0.48125,-3.0663 z"
         style="font-style:normal;font-variant:normal;font-weight:normal;font-stretch:normal;font-size:13.75px;line-height:108.00000429%;font-family:FreeSans;-inkscape-font-specification:FreeSans;text-align:center;text-anchor:middle"
         id="path6921" />
    </g>
  </g>
</svg>
