<?xml version="1.0" encoding="UTF-8" standalone="no"?>
<!-- Created with Inkscape (http://www.inkscape.org/) -->

<svg
   xmlns:dc="http://purl.org/dc/elements/1.1/"
   xmlns:cc="http://creativecommons.org/ns#"
   xmlns:rdf="http://www.w3.org/1999/02/22-rdf-syntax-ns#"
   xmlns:svg="http://www.w3.org/2000/svg"
   xmlns="http://www.w3.org/2000/svg"
   xmlns:sodipodi="http://sodipodi.sourceforge.net/DTD/sodipodi-0.dtd"
   xmlns:inkscape="http://www.inkscape.org/namespaces/inkscape"
   width="37"
   height="50"
   viewBox="0 0 37 50"
   id="svg2"
   version="1.1"
   inkscape:version="0.91 r13725"
   sodipodi:docname="LmE40_on.svg">
  <defs
     id="defs4" />
  <sodipodi:namedview
     id="base"
     pagecolor="#ffffff"
     bordercolor="#666666"
     borderopacity="1.0"
     inkscape:pageopacity="0"
     inkscape:pageshadow="2"
     inkscape:zoom="16"
     inkscape:cx="-3.927386"
     inkscape:cy="23.832969"
     inkscape:document-units="px"
     inkscape:current-layer="layer1"
     showgrid="false"
     inkscape:window-width="1920"
     inkscape:window-height="1029"
     inkscape:window-x="0"
     inkscape:window-y="0"
     inkscape:window-maximized="1"
     units="px" />
  <metadata
     id="metadata7">
    <rdf:RDF>
      <cc:Work
         rdf:about="">
        <dc:format>image/svg+xml</dc:format>
        <dc:type
           rdf:resource="http://purl.org/dc/dcmitype/StillImage" />
        <dc:title />
      </cc:Work>
    </rdf:RDF>
  </metadata>
  <g
     inkscape:label="Ebene 1"
     inkscape:groupmode="layer"
     id="layer1"
     transform="translate(0,-1002.3621)">
    <rect
       style="opacity:1;fill:#ffffff;fill-opacity:1;fill-rule:nonzero;stroke:none;stroke-width:0;stroke-miterlimit:4;stroke-dasharray:none;stroke-opacity:1"
       id="rect4188"
       width="37"
       height="50"
       x="0"
       y="1002.3621" />
    <g
       style="font-style:normal;font-weight:normal;font-size:40px;line-height:108.00000429%;font-family:sans-serif;letter-spacing:0px;word-spacing:0px;fill:#000000;fill-opacity:1;stroke:none;stroke-width:1px;stroke-linecap:butt;stroke-linejoin:miter;stroke-opacity:1"
       id="text4180">
      <path
         d="m 16.279102,1019.9847 0,3.4375 5.9125,0 0,1.1275 -7.19125,0 0,-10.0238 6.94375,0 0,1.1275 -5.665,0 0,3.2038 5.45875,0 0,1.1275 -5.45875,0 z"
         style="font-style:normal;font-variant:normal;font-weight:normal;font-stretch:normal;font-size:13.75px;line-height:108.00000429%;font-family:FreeSans;-inkscape-font-specification:FreeSans;text-align:center;text-anchor:middle"
         id="path6924" />
      <path
         d="m 15.09338,1037.0622 -4.11125,0 0,-1.2788 4.4275,-6.1325 0.89375,0 0,6.325 1.44375,0 0,1.0863 -1.44375,0 0,2.3375 -1.21,0 0,-2.3375 z m 0,-1.0863 0,-4.2625 -3.0525,4.2625 3.0525,0 z"
         style="font-style:normal;font-variant:normal;font-weight:normal;font-stretch:normal;font-size:13.75px;line-height:108.00000429%;font-family:FreeSans;-inkscape-font-specification:FreeSans;text-align:center;text-anchor:middle"
         id="path6926" />
      <path
         d="m 18.842188,1034.6834 q 0,-1.2237 0.20625,-2.1587 0.20625,-0.935 0.5225,-1.4575 0.31625,-0.5363 0.75625,-0.8663 0.44,-0.33 0.83875,-0.44 0.4125,-0.11 0.86625,-0.11 3.19,0 3.19,5.115 0,2.4063 -0.825,3.685 -0.81125,1.265 -2.365,1.265 -1.5675,0 -2.37875,-1.2787 -0.81125,-1.2925 -0.81125,-3.7538 z m 5.1425,-0.027 q 0,-3.9325 -1.9525,-3.9325 -1.9525,0 -1.9525,3.9738 0,4.015 1.925,4.015 1.0175,0 1.49875,-0.99 0.48125,-0.99 0.48125,-3.0663 z"
         style="font-style:normal;font-variant:normal;font-weight:normal;font-stretch:normal;font-size:13.75px;line-height:108.00000429%;font-family:FreeSans;-inkscape-font-specification:FreeSans;text-align:center;text-anchor:middle"
         id="path6928" />
    </g>
  </g>
</svg>
