<?xml version="1.0" encoding="UTF-8" standalone="no"?>
<svg
   xmlns:dc="http://purl.org/dc/elements/1.1/"
   xmlns:cc="http://creativecommons.org/ns#"
   xmlns:rdf="http://www.w3.org/1999/02/22-rdf-syntax-ns#"
   xmlns:svg="http://www.w3.org/2000/svg"
   xmlns="http://www.w3.org/2000/svg"
   xmlns:sodipodi="http://sodipodi.sourceforge.net/DTD/sodipodi-0.dtd"
   xmlns:inkscape="http://www.inkscape.org/namespaces/inkscape"
   width="37"
   height="50"
   viewBox="0 0 37 50"
   id="svg2"
   version="1.1"
   inkscape:version="1.0.1 (3bc2e813f5, 2020-09-07)"
   sodipodi:docname="LmG_Gnt_on.svg">
  <defs
     id="defs4" />
  <sodipodi:namedview
     id="base"
     pagecolor="#ffffff"
     bordercolor="#666666"
     borderopacity="1.0"
     inkscape:pageopacity="0"
     inkscape:pageshadow="2"
     inkscape:zoom="10.78814"
     inkscape:cx="22.769824"
     inkscape:cy="31.638374"
     inkscape:document-units="px"
     inkscape:current-layer="layer1"
     showgrid="false"
     inkscape:window-width="958"
     inkscape:window-height="1008"
     inkscape:window-x="-7"
     inkscape:window-y="0"
     inkscape:window-maximized="0"
     units="px"
     inkscape:document-rotation="0" />
  <metadata
     id="metadata7">
    <rdf:RDF>
      <cc:Work
         rdf:about="">
        <dc:format>image/svg+xml</dc:format>
        <dc:type
           rdf:resource="http://purl.org/dc/dcmitype/StillImage" />
        <dc:title />
      </cc:Work>
    </rdf:RDF>
  </metadata>
  <g
     inkscape:label="Ebene 1"
     inkscape:groupmode="layer"
     id="layer1"
     transform="translate(0,-1002.3621)">
    <rect
       ry="0.16140208"
       y="1002.3621"
       x="0"
       height="50"
       width="37"
       id="rect4197"
       style="opacity:1;fill:#bf0002;fill-opacity:1;fill-rule:nonzero;stroke:none;stroke-width:0;stroke-miterlimit:4;stroke-dasharray:none;stroke-opacity:1" />
    <g
       id="text4191-8"
       style="font-style:normal;font-variant:normal;font-weight:normal;font-stretch:normal;font-size:44.2389px;line-height:125%;font-family:FreeSans;-inkscape-font-specification:FreeSans;text-align:center;letter-spacing:0px;word-spacing:0px;text-anchor:middle;fill:#ffffff;fill-opacity:1;stroke:none;stroke-width:1px;stroke-linecap:butt;stroke-linejoin:miter;stroke-opacity:1"
       transform="matrix(0.93933614,0,0,0.93933614,1.9981473,53.425115)">
      <path
         id="path5784"
         style="font-size:40px"
         d="m 8.5223602,1027.9621 q 0,1.52 0.28,3.08 0.28,1.52 1,3.2 0.7199998,1.68 1.8399998,2.96 1.16,1.24 3.04,2.08 1.88,0.8 4.28,0.8 4,0 6.56,-2.52 2.6,-2.52 2.6,-6.44 v -0.8 h -8.88 v -3.28 h 12.16 v 15.56 h -2.36 l -0.92,-3.88 q -4.16,4.64 -9.96,4.64 -5.92,0 -9.6399998,-4.24 -3.72,-4.24 -3.72,-10.96 0,-1.92 0.36,-3.84 0.36,-1.96 1.36,-4.08 1,-2.12 2.48,-3.72 1.5199998,-1.6 4.0399998,-2.64 2.56,-1.08 5.76,-1.08 5,0 8.2,2.44 3.24,2.44 4,6.88 h -3.8 q -0.6,-2.8 -2.88,-4.4 -2.24,-1.64 -5.56,-1.64 -4.64,0 -7.44,3.28 -2.7999998,3.24 -2.7999998,8.6 z" />
    </g>
    <path
       d="m 4.6725918,1041.9669 q 0,0.5957 0.109747,1.2072 0.109747,0.5958 0.391952,1.2542 0.282206,0.6585 0.721193,1.1602 0.454664,0.486 1.191535,0.8153 0.73687,0.3135 1.677556,0.3135 1.5678132,0 2.5712132,-0.9876 1.019076,-0.9878 1.019076,-2.5242 v -0.3136 H 8.8743218 v -1.2856 h 4.7661442 v 6.0988 H 12.71546 l -0.360596,-1.5208 q -1.630523,1.8186 -3.9038512,1.8186 -2.320358,0 -3.778421,-1.6618 -1.458063,-1.6619 -1.458063,-4.2958 0,-0.7526 0.141103,-1.5052 0.141103,-0.7682 0.533056,-1.5991 0.391952,-0.8309 0.972041,-1.4581 0.595768,-0.627 1.583488,-1.0347 1.003398,-0.4233 2.257646,-0.4233 1.9597652,0 3.2140142,0.9563 1.269926,0.9564 1.567808,2.6966 h -1.489417 q -0.235172,-1.0974 -1.128824,-1.7245 -0.8779752,-0.6428 -2.1792602,-0.6428 -1.818659,0 -2.916125,1.2856 -1.097467,1.2699 -1.097467,3.3708 z"
       style="font-style:normal;font-weight:normal;font-size:20.4472px;line-height:1.25;font-family:FreeSans;-inkscape-font-specification:FreeSans;letter-spacing:0px;word-spacing:0px;fill:#ffffff;fill-opacity:1;stroke:none;stroke-width:0.480593"
       id="path48" />
    <path
       d="m 24.850301,1036.213 v 11.4293 h -1.646199 l -5.910641,-9.2657 v 9.2657 h -1.379673 v -11.4293 h 1.583488 l 5.973354,9.3441 v -9.3441 z"
       style="font-style:normal;font-weight:normal;font-size:20.4472px;line-height:1.25;font-family:FreeSans;-inkscape-font-specification:FreeSans;letter-spacing:0px;word-spacing:0px;fill:#ffffff;fill-opacity:1;stroke:none;stroke-width:0.480593"
       id="path50" />
    <path
       d="m 31.591853,1037.6296 v 10.1437 H 30.13379 v -10.1437 h -3.762743 v -1.2856 h 8.967871 v 1.2856 z"
       style="font-style:normal;font-weight:normal;font-size:20.4472px;line-height:1.25;font-family:FreeSans;-inkscape-font-specification:FreeSans;letter-spacing:0px;word-spacing:0px;fill:#ffffff;fill-opacity:1;stroke:none;stroke-width:0.480593"
       id="path52" />
  </g>
</svg>
