<?xml version="1.0" encoding="UTF-8" standalone="no"?>
<svg
   xmlns:dc="http://purl.org/dc/elements/1.1/"
   xmlns:cc="http://creativecommons.org/ns#"
   xmlns:rdf="http://www.w3.org/1999/02/22-rdf-syntax-ns#"
   xmlns:svg="http://www.w3.org/2000/svg"
   xmlns="http://www.w3.org/2000/svg"
   xmlns:sodipodi="http://sodipodi.sourceforge.net/DTD/sodipodi-0.dtd"
   xmlns:inkscape="http://www.inkscape.org/namespaces/inkscape"
   width="37"
   height="50"
   viewBox="0 0 37 50"
   id="svg2"
   version="1.1"
   inkscape:version="1.0 (4035a4fb49, 2020-05-01)"
   sodipodi:docname="LmG_Gnt_on.svg">
  <defs
     id="defs4" />
  <sodipodi:namedview
     id="base"
     pagecolor="#ffffff"
     bordercolor="#666666"
     borderopacity="1.0"
     inkscape:pageopacity="0"
     inkscape:pageshadow="2"
     inkscape:zoom="10.78814"
     inkscape:cx="22.769824"
     inkscape:cy="31.638374"
     inkscape:document-units="px"
     inkscape:current-layer="text4191-8"
     showgrid="false"
     inkscape:window-width="1920"
     inkscape:window-height="1027"
     inkscape:window-x="-8"
     inkscape:window-y="-8"
     inkscape:window-maximized="1"
     units="px"
     inkscape:document-rotation="0" />
  <metadata
     id="metadata7">
    <rdf:RDF>
      <cc:Work
         rdf:about="">
        <dc:format>image/svg+xml</dc:format>
        <dc:type
           rdf:resource="http://purl.org/dc/dcmitype/StillImage" />
        <dc:title />
      </cc:Work>
    </rdf:RDF>
  </metadata>
  <g
     inkscape:label="Ebene 1"
     inkscape:groupmode="layer"
     id="layer1"
     transform="translate(0,-1002.3621)">
    <rect
       ry="0.16140208"
       y="1002.3621"
       x="0"
       height="50"
       width="37"
       id="rect4197"
       style="opacity:1;fill:#bf0002;fill-opacity:1;fill-rule:nonzero;stroke:none;stroke-width:0;stroke-miterlimit:4;stroke-dasharray:none;stroke-opacity:1" />
    <g
       style="font-style:normal;font-variant:normal;font-weight:bold;font-stretch:normal;font-size:16px;line-height:1.25;font-family:FreeSans;-inkscape-font-specification:'FreeSans Bold';letter-spacing:0px;word-spacing:0px;fill:#ffffff;fill-opacity:1;stroke:none"
       id="text21"
       aria-label="GNT">
      <path
         id="path12"
         d="m 11.900832,1039.8143 q -0.64,-1.872 -2.7840004,-1.872 -1.52,0 -2.4,1.072 -0.864,1.072 -0.864,2.96 0,1.792 0.928,2.944 0.944,1.152 2.4,1.152 0.224,0 0.512,-0.048 0.304,-0.064 0.7200004,-0.224 0.416,-0.176 0.768,-0.448 0.352,-0.272 0.624,-0.752 0.272,-0.496 0.336,-1.12 H 9.4848316 v -2 h 4.6720004 v 6.304 h -1.44 l -0.288,-1.536 q -0.672,0.976 -1.504,1.424 -0.832,0.448 -2.0160004,0.448 -2.368,0 -3.92,-1.728 -1.536,-1.728 -1.536,-4.384 0,-2.72 1.568,-4.416 1.568,-1.696 4.08,-1.696 2.1120004,0 3.4720004,1.056 1.36,1.056 1.584,2.864 z" />
      <path
         id="path14"
         d="m 22.769332,1047.7823 -4.688,-8.064 v 8.064 h -2.4 v -11.664 h 2.464 l 4.624,7.936 v -7.936 h 2.4 v 11.664 z" />
      <path
         id="path16"
         d="m 32.003332,1038.1183 v 9.664 h -2.4 v -9.664 h -3.536 v -2 h 9.344 v 2 z" />
    </g>
    <g
       id="text4191-8"
       style="font-style:normal;font-variant:normal;font-weight:normal;font-stretch:normal;font-size:44.2389px;line-height:125%;font-family:FreeSans;-inkscape-font-specification:FreeSans;text-align:center;letter-spacing:0px;word-spacing:0px;text-anchor:middle;fill:#ffffff;fill-opacity:1;stroke:none;stroke-width:1px;stroke-linecap:butt;stroke-linejoin:miter;stroke-opacity:1"
       transform="matrix(0.93933614,0,0,0.93933614,1.9981473,53.425115)">
      <path
         id="path5784"
         style="font-size:40px"
         d="m 8.5223602,1027.9621 q 0,1.52 0.28,3.08 0.28,1.52 1,3.2 0.7199998,1.68 1.8399998,2.96 1.16,1.24 3.04,2.08 1.88,0.8 4.28,0.8 4,0 6.56,-2.52 2.6,-2.52 2.6,-6.44 v -0.8 h -8.88 v -3.28 h 12.16 v 15.56 h -2.36 l -0.92,-3.88 q -4.16,4.64 -9.96,4.64 -5.92,0 -9.6399998,-4.24 -3.72,-4.24 -3.72,-10.96 0,-1.92 0.36,-3.84 0.36,-1.96 1.36,-4.08 1,-2.12 2.48,-3.72 1.5199998,-1.6 4.0399998,-2.64 2.56,-1.08 5.76,-1.08 5,0 8.2,2.44 3.24,2.44 4,6.88 h -3.8 q -0.6,-2.8 -2.88,-4.4 -2.24,-1.64 -5.56,-1.64 -4.64,0 -7.44,3.28 -2.7999998,3.24 -2.7999998,8.6 z" />
    </g>
  </g>
</svg>
