<?xml version="1.0" encoding="UTF-8" standalone="no"?>
<!-- Created with Inkscape (http://www.inkscape.org/) -->

<svg
   xmlns:dc="http://purl.org/dc/elements/1.1/"
   xmlns:cc="http://creativecommons.org/ns#"
   xmlns:rdf="http://www.w3.org/1999/02/22-rdf-syntax-ns#"
   xmlns:svg="http://www.w3.org/2000/svg"
   xmlns="http://www.w3.org/2000/svg"
   xmlns:sodipodi="http://sodipodi.sourceforge.net/DTD/sodipodi-0.dtd"
   xmlns:inkscape="http://www.inkscape.org/namespaces/inkscape"
   width="37"
   height="50"
   viewBox="0 0 37 50"
   id="svg2"
   version="1.1"
   inkscape:version="0.91 r13725"
   sodipodi:docname="LmG_off.svg">
  <defs
     id="defs4" />
  <sodipodi:namedview
     id="base"
     pagecolor="#ffffff"
     bordercolor="#666666"
     borderopacity="1.0"
     inkscape:pageopacity="0"
     inkscape:pageshadow="2"
     inkscape:zoom="16"
     inkscape:cx="-19.924925"
     inkscape:cy="25.841264"
     inkscape:document-units="px"
     inkscape:current-layer="layer1"
     showgrid="false"
     inkscape:window-width="1920"
     inkscape:window-height="1029"
     inkscape:window-x="0"
     inkscape:window-y="0"
     inkscape:window-maximized="1"
     units="px" />
  <metadata
     id="metadata7">
    <rdf:RDF>
      <cc:Work
         rdf:about="">
        <dc:format>image/svg+xml</dc:format>
        <dc:type
           rdf:resource="http://purl.org/dc/dcmitype/StillImage" />
        <dc:title />
      </cc:Work>
    </rdf:RDF>
  </metadata>
  <g
     inkscape:label="Ebene 1"
     inkscape:groupmode="layer"
     id="layer1"
     transform="translate(0,-1002.3621)">
    <rect
       style="opacity:1;fill:#031122;fill-opacity:1;fill-rule:nonzero;stroke:none;stroke-width:0;stroke-miterlimit:4;stroke-dasharray:none;stroke-opacity:1"
       id="rect4197"
       width="37"
       height="50"
       x="1.602695e-06"
       y="1002.3621"
       ry="0.16140208" />
    <g
       style="font-style:normal;font-variant:normal;font-weight:normal;font-stretch:normal;font-size:44.23892975px;line-height:125%;font-family:FreeSans;-inkscape-font-specification:FreeSans;text-align:center;letter-spacing:0px;word-spacing:0px;text-anchor:middle;fill:#ffffff;fill-opacity:1;stroke:none;stroke-width:1px;stroke-linecap:butt;stroke-linejoin:miter;stroke-opacity:1"
       id="text4191">
      <path
         d="m 8.5223602,1027.9621 q 0,1.52 0.28,3.08 0.28,1.52 1,3.2 0.7199998,1.68 1.8399998,2.96 1.16,1.24 3.04,2.08 1.88,0.8 4.28,0.8 4,0 6.56,-2.52 2.6,-2.52 2.6,-6.44 l 0,-0.8 -8.88,0 0,-3.28 12.16,0 0,15.56 -2.36,0 -0.92,-3.88 q -4.16,4.64 -9.96,4.64 -5.92,0 -9.6399998,-4.24 -3.72,-4.24 -3.72,-10.96 0,-1.92 0.36,-3.84 0.36,-1.96 1.36,-4.08 1,-2.12 2.48,-3.72 1.5199998,-1.6 4.0399998,-2.64 2.56,-1.08 5.76,-1.08 5,0 8.2,2.44 3.24,2.44 4,6.88 l -3.8,0 q -0.6,-2.8 -2.88,-4.4 -2.24,-1.64 -5.56,-1.64 -4.64,0 -7.44,3.28 -2.7999998,3.24 -2.7999998,8.6 z"
         style="font-size:40px"
         id="path5784" />
    </g>
  </g>
</svg>
