<?xml version="1.0" encoding="UTF-8" standalone="no"?>
<svg
   xmlns:dc="http://purl.org/dc/elements/1.1/"
   xmlns:cc="http://creativecommons.org/ns#"
   xmlns:rdf="http://www.w3.org/1999/02/22-rdf-syntax-ns#"
   xmlns:svg="http://www.w3.org/2000/svg"
   xmlns="http://www.w3.org/2000/svg"
   xmlns:sodipodi="http://sodipodi.sourceforge.net/DTD/sodipodi-0.dtd"
   xmlns:inkscape="http://www.inkscape.org/namespaces/inkscape"
   sodipodi:docname="LmGnt_off.svg"
   inkscape:version="1.0 (4035a4fb49, 2020-05-01)"
   version="1.1"
   id="svg2"
   viewBox="0 0 49 50"
   height="50"
   width="49">
  <defs
     id="defs4" />
  <sodipodi:namedview
     inkscape:document-rotation="0"
     inkscape:window-maximized="1"
     inkscape:window-y="-8"
     inkscape:window-x="-8"
     inkscape:window-height="1027"
     inkscape:window-width="1920"
     units="px"
     showgrid="false"
     inkscape:current-layer="layer1"
     inkscape:document-units="px"
     inkscape:cy="28.201679"
     inkscape:cx="17.680985"
     inkscape:zoom="9.2900546"
     inkscape:pageshadow="2"
     inkscape:pageopacity="0.0"
     borderopacity="1.0"
     bordercolor="#666666"
     pagecolor="#ffffff"
     id="base" />
  <metadata
     id="metadata7">
    <rdf:RDF>
      <cc:Work
         rdf:about="">
        <dc:format>image/svg+xml</dc:format>
        <dc:type
           rdf:resource="http://purl.org/dc/dcmitype/StillImage" />
        <dc:title></dc:title>
      </cc:Work>
    </rdf:RDF>
  </metadata>
  <g
     transform="translate(0,-1002.3623)"
     id="layer1"
     inkscape:groupmode="layer"
     inkscape:label="Ebene 1">
    <rect
       style="opacity:1;fill:#031122;fill-opacity:1;fill-rule:nonzero;stroke:none;stroke-width:0;stroke-miterlimit:4;stroke-dasharray:none;stroke-opacity:1"
       id="rect4188"
       width="49"
       height="50"
       x="0"
       y="1002.3623" />
    <path
       inkscape:connector-curvature="0"
       id="path4173"
       d=""
       style="fill:#000000" />
    <path
       inkscape:connector-curvature="0"
       id="path4171"
       d=""
       style="fill:#000000" />
    <g
       style="font-style:normal;font-weight:normal;font-size:49.0459px;line-height:1.25;font-family:sans-serif;letter-spacing:0px;word-spacing:0px;fill:#000000;fill-opacity:1;stroke:none;stroke-width:1.22615"
       id="text17"
       aria-label="GNT">
      <path
         id="path25"
         style="font-style:normal;font-variant:normal;font-weight:bold;font-stretch:normal;font-size:22.8882px;font-family:FreeSans;-inkscape-font-specification:'FreeSans Bold';fill:#ffffff;stroke-width:1.22615"
         d="m 13.867832,1024.4739 q -0.915528,-2.678 -3.9825467,-2.678 -2.1743791,0 -3.4332301,1.5336 -1.2359628,1.5335 -1.2359628,4.2343 0,2.5635 1.3275156,4.2114 1.3504039,1.648 3.4332301,1.648 0.3204349,0 0.7324229,-0.069 0.434875,-0.092 1.029969,-0.3204 0.595093,-0.2518 1.098633,-0.6409 0.503541,-0.3891 0.89264,-1.0758 0.389099,-0.7095 0.480652,-1.6021 h -3.799441 v -2.8611 h 6.683355 v 9.018 H 15.03513 l -0.411987,-2.1973 q -0.961305,1.3962 -2.151491,2.0371 -1.190186,0.6408 -2.8839133,0.6408 -3.3874537,0 -5.6076092,-2.4719 -2.1972672,-2.4719 -2.1972672,-6.2713 0,-3.891 2.2430436,-6.3172 2.2430437,-2.4261 5.8364912,-2.4261 3.0212429,0 4.9667399,1.5106 1.945497,1.5106 2.265932,4.097 z" />
      <path
         id="path27"
         style="font-style:normal;font-variant:normal;font-weight:bold;font-stretch:normal;font-size:22.8882px;font-family:FreeSans;-inkscape-font-specification:'FreeSans Bold';fill:#ffffff;stroke-width:1.22615"
         d="m 29.415359,1035.8722 -6.706243,-11.5357 v 11.5357 h -3.43323 v -16.6855 h 3.524783 l 6.61469,11.3525 v -11.3525 h 3.43323 v 16.6855 z" />
      <path
         id="path29"
         style="font-style:normal;font-variant:normal;font-weight:bold;font-stretch:normal;font-size:22.8882px;font-family:FreeSans;-inkscape-font-specification:'FreeSans Bold';fill:#ffffff;stroke-width:1.22615"
         d="m 42.624711,1022.0477 v 13.8245 h -3.43323 v -13.8245 h -5.058293 v -2.861 h 13.36671 v 2.861 z" />
    </g>
  </g>
</svg>
