<?xml version="1.0" encoding="UTF-8" standalone="no"?>
<svg
   xmlns:dc="http://purl.org/dc/elements/1.1/"
   xmlns:cc="http://creativecommons.org/ns#"
   xmlns:rdf="http://www.w3.org/1999/02/22-rdf-syntax-ns#"
   xmlns:svg="http://www.w3.org/2000/svg"
   xmlns="http://www.w3.org/2000/svg"
   xmlns:sodipodi="http://sodipodi.sourceforge.net/DTD/sodipodi-0.dtd"
   xmlns:inkscape="http://www.inkscape.org/namespaces/inkscape"
   width="37"
   height="50"
   viewBox="0 0 37 50"
   id="svg2"
   version="1.1"
   inkscape:version="1.0.1 (3bc2e813f5, 2020-09-07)"
   sodipodi:docname="LmIndusi_on.svg">
  <defs
     id="defs4" />
  <sodipodi:namedview
     id="base"
     pagecolor="#ffffff"
     bordercolor="#666666"
     borderopacity="1.0"
     inkscape:pageopacity="0"
     inkscape:pageshadow="2"
     inkscape:zoom="11.313709"
     inkscape:cx="45.319165"
     inkscape:cy="28.217703"
     inkscape:document-units="px"
     inkscape:current-layer="text16"
     showgrid="false"
     inkscape:window-width="1920"
     inkscape:window-height="1017"
     inkscape:window-x="-8"
     inkscape:window-y="-8"
     inkscape:window-maximized="1"
     units="px"
     inkscape:document-rotation="0" />
  <metadata
     id="metadata7">
    <rdf:RDF>
      <cc:Work
         rdf:about="">
        <dc:format>image/svg+xml</dc:format>
        <dc:type
           rdf:resource="http://purl.org/dc/dcmitype/StillImage" />
        <dc:title></dc:title>
      </cc:Work>
    </rdf:RDF>
  </metadata>
  <g
     inkscape:label="Ebene 1"
     inkscape:groupmode="layer"
     id="layer1"
     transform="translate(0,-1002.3621)">
    <rect
       style="opacity:1;fill:#0000ea;fill-opacity:1;fill-rule:nonzero;stroke:none;stroke-width:0;stroke-miterlimit:4;stroke-dasharray:none;stroke-opacity:1"
       id="rect4197"
       width="37"
       height="50"
       x="1.602695e-06"
       y="1002.3621"
       ry="0.16140208" />
    <g
       aria-label="PZB"
       id="text12"
       style="font-size:16.4784px;line-height:5.8;font-family:FreeSans;-inkscape-font-specification:FreeSans;letter-spacing:1.12px;stroke-width:0.41196">
      <g
         aria-label="Indusi"
         id="text16"
         style="font-size:16.2423px;line-height:1.25;font-family:FreeSans;-inkscape-font-specification:FreeSans;letter-spacing:-0.917076px;stroke-width:0.167279">
        <path
           d="m 2.6099581,1020.0633 v 11.8406 H 1.0831819 v -11.8406 z"
           style="fill:#ffffff;stroke-width:0.167279"
           id="path18" />
        <path
           d="M 3.7069139,1023.393 H 4.957571 v 1.4293 q 0.5684805,-0.8933 1.2181725,-1.2832 0.6659343,-0.3898 1.6079877,-0.3898 1.2344148,0 1.9653183,0.6335 0.7309035,0.6334 0.7309035,1.6892 v 6.4319 H 9.1318421 v -5.8959 q 0,-0.7634 -0.4710267,-1.2182 -0.4710267,-0.4548 -1.2831417,-0.4548 -1.0395072,0 -1.6729569,0.7959 -0.6334497,0.7796 -0.6334497,2.079 v 4.694 H 3.7069139 Z"
           style="fill:#ffffff;stroke-width:0.167279"
           id="path20" />
        <path
           d="m 18.479874,1020.0633 v 11.8406 h -1.20193 v -1.1207 q -0.552238,0.7959 -1.20193,1.137 -0.63345,0.3573 -1.510534,0.3573 -1.721684,0 -2.712464,-1.2344 -0.990781,-1.2507 -0.990781,-3.4109 0,-2.0303 0.990781,-3.2485 1.007022,-1.2344 2.663737,-1.2344 1.754168,0 2.61501,1.3157 v -4.4017 z m -3.735729,4.3529 q -1.104476,0 -1.786653,0.9096 -0.682176,0.9096 -0.682176,2.3876 0,1.4943 0.682176,2.4039 0.682177,0.8933 1.802895,0.8933 1.071992,0 1.721684,-0.8933 0.649692,-0.8933 0.649692,-2.3714 0,-1.5268 -0.649692,-2.4201 -0.649692,-0.9096 -1.737926,-0.9096 z"
           style="fill:#ffffff;stroke-width:0.167279"
           id="path22" />
        <path
           d="m 26.138708,1031.9039 h -1.218173 v -1.1857 q -0.600965,0.8446 -1.250657,1.202 -0.649692,0.3573 -1.591745,0.3573 -1.234415,0 -1.981561,-0.6334 -0.730903,-0.6335 -0.730903,-1.6892 v -6.5619 h 1.348111 v 6.0259 q 0,0.7633 0.471026,1.2181 0.471027,0.4548 1.283142,0.4548 1.05575,0 1.689199,-0.7796 0.63345,-0.7959 0.63345,-2.0953 v -4.8239 h 1.348111 z"
           style="fill:#ffffff;stroke-width:0.167279"
           id="path24" />
        <path
           d="m 28.405118,1029.3701 q 0.09745,0.7634 0.519753,1.2182 0.438543,0.4385 1.559261,0.4385 0.893327,0 1.429323,-0.3573 0.552238,-0.3736 0.552238,-0.9745 0,-0.471 -0.308604,-0.7472 -0.308604,-0.2761 -1.007022,-0.4385 l -1.2669,-0.3086 q -1.510534,-0.3573 -2.111499,-0.8933 -0.584723,-0.5523 -0.584723,-1.5593 0,-1.1857 0.893327,-1.8841 0.893326,-0.7147 2.371376,-0.7147 1.478049,0 2.273922,0.6822 0.795872,0.6822 0.812115,1.9328 h -1.429323 q -0.04873,-1.3643 -1.705441,-1.3643 -0.828358,0 -1.315627,0.3573 -0.487269,0.3411 -0.487269,0.9258 0,0.4548 0.373573,0.7472 0.373573,0.2761 1.201931,0.471 l 1.299384,0.3086 q 1.266899,0.3086 1.835379,0.8771 0.568481,0.5522 0.568481,1.4943 0,1.2344 -0.958296,1.9653 -0.942053,0.7309 -2.550041,0.7309 -3.297187,0 -3.394641,-2.9074 z"
           style="fill:#ffffff;stroke-width:0.167279"
           id="path26" />
        <path
           d="m 36.063945,1023.393 v 8.5109 h -1.348111 v -8.5109 z m 0,-3.3297 v 1.7054 h -1.364354 v -1.7054 z"
           style="fill:#ffffff;stroke-width:0.167279"
           id="path28" />
      </g>
    </g>
  </g>
</svg>
