<?xml version="1.0" encoding="UTF-8" standalone="no"?>
<svg
   xmlns:dc="http://purl.org/dc/elements/1.1/"
   xmlns:cc="http://creativecommons.org/ns#"
   xmlns:rdf="http://www.w3.org/1999/02/22-rdf-syntax-ns#"
   xmlns:svg="http://www.w3.org/2000/svg"
   xmlns="http://www.w3.org/2000/svg"
   xmlns:sodipodi="http://sodipodi.sourceforge.net/DTD/sodipodi-0.dtd"
   xmlns:inkscape="http://www.inkscape.org/namespaces/inkscape"
   width="37"
   height="50"
   viewBox="0 0 37 50"
   id="svg2"
   version="1.1"
   inkscape:version="1.0.1 (3bc2e813f5, 2020-09-07)"
   sodipodi:docname="LmPzb_off.svg">
  <defs
     id="defs4" />
  <sodipodi:namedview
     id="base"
     pagecolor="#ffffff"
     bordercolor="#666666"
     borderopacity="1.0"
     inkscape:pageopacity="0"
     inkscape:pageshadow="2"
     inkscape:zoom="11.313709"
     inkscape:cx="23.286912"
     inkscape:cy="23.353662"
     inkscape:document-units="px"
     inkscape:current-layer="layer1"
     showgrid="false"
     inkscape:window-width="1920"
     inkscape:window-height="1017"
     inkscape:window-x="-8"
     inkscape:window-y="-8"
     inkscape:window-maximized="1"
     units="px"
     inkscape:document-rotation="0" />
  <metadata
     id="metadata7">
    <rdf:RDF>
      <cc:Work
         rdf:about="">
        <dc:format>image/svg+xml</dc:format>
        <dc:type
           rdf:resource="http://purl.org/dc/dcmitype/StillImage" />
        <dc:title />
      </cc:Work>
    </rdf:RDF>
  </metadata>
  <g
     inkscape:label="Ebene 1"
     inkscape:groupmode="layer"
     id="layer1"
     transform="translate(0,-1002.3621)">
    <g
       aria-label="PZB"
       id="text12"
       style="font-size:16.4784px;line-height:5.8;font-family:FreeSans;-inkscape-font-specification:FreeSans;letter-spacing:1.12px;stroke-width:0.41196" />
    <rect
       style="opacity:1;fill:#031122;fill-opacity:1;fill-rule:nonzero;stroke:none;stroke-width:0;stroke-miterlimit:4;stroke-dasharray:none;stroke-opacity:1"
       id="rect4197"
       width="37"
       height="50"
       x="0"
       y="1002.3621"
       ry="0.16140208" />
    <g
       aria-label="PZB"
       id="text15"
       style="font-size:16.4562px;line-height:1.25;font-family:FreeSans;-inkscape-font-specification:FreeSans;letter-spacing:1.12px;stroke-width:0.169485"
       transform="translate(4.4299317e-7,-3.8476563e-5)">
      <path
         d="m 11.788885,1023.2891 q 0,1.5304 -0.938003,2.4684 -0.9215472,0.9216 -2.4190614,0.9216 H 4.6633509 v 5.0849 H 3.1329244 v -11.9965 h 4.9533161 q 1.7772695,0 2.7317295,0.9215 0.970915,0.9051 0.970915,2.6001 z m -7.1255341,2.0406 h 3.1925028 q 1.1025653,0 1.7114447,-0.5595 0.6253356,-0.5596 0.6253356,-1.5469 0,-0.9874 -0.6253356,-1.5469 -0.6088794,-0.5595 -1.7114447,-0.5595 H 4.6633509 Z"
         style="fill:#ffffff;stroke-width:0.169485"
         id="path17" />
      <path
         d="m 22.30535,1019.7675 v 1.3823 l -7.174903,9.2648 h 7.207815 v 1.3494 h -9.133191 v -1.3494 l 7.207816,-9.2977 h -6.747042 v -1.3494 z"
         style="fill:#ffffff;stroke-width:0.169485"
         id="path19" />
      <path
         d="m 34.171219,1028.3411 q 0,1.5469 -0.970916,2.4849 -0.970916,0.938 -2.567167,0.938 h -5.41409 v -11.9965 h 4.871035 q 1.003828,0 1.744357,0.2962 0.740529,0.2962 1.102566,0.7899 0.378492,0.4772 0.543054,0.9709 0.164562,0.4772 0.164562,0.9874 0,1.8431 -1.662076,2.6165 1.151934,0.4443 1.662076,1.1355 0.526599,0.6911 0.526599,1.7772 z m -4.45963,-3.4064 q 2.402605,0 2.402605,-1.9089 0,-1.9089 -2.402605,-1.9089 h -2.962116 v 3.8178 z m 0.773441,5.4799 q 0.806354,0 1.316496,-0.3456 0.510142,-0.362 0.674704,-0.7898 0.164562,-0.4279 0.164562,-0.9216 0,-0.938 -0.559511,-1.4975 -0.559511,-0.576 -1.596251,-0.576 h -3.735557 v 4.1305 z"
         style="fill:#ffffff;stroke-width:0.169485"
         id="path21" />
    </g>
  </g>
</svg>
