<?xml version="1.0" encoding="UTF-8" standalone="no"?>
<!-- Created with Inkscape (http://www.inkscape.org/) -->

<svg
   xmlns:dc="http://purl.org/dc/elements/1.1/"
   xmlns:cc="http://creativecommons.org/ns#"
   xmlns:rdf="http://www.w3.org/1999/02/22-rdf-syntax-ns#"
   xmlns:svg="http://www.w3.org/2000/svg"
   xmlns="http://www.w3.org/2000/svg"
   xmlns:sodipodi="http://sodipodi.sourceforge.net/DTD/sodipodi-0.dtd"
   xmlns:inkscape="http://www.inkscape.org/namespaces/inkscape"
   width="37"
   height="50"
   viewBox="0 0 37 50"
   id="svg2"
   version="1.1"
   inkscape:version="0.91 r13725"
   sodipodi:docname="LmS_off.svg">
  <defs
     id="defs4" />
  <sodipodi:namedview
     id="base"
     pagecolor="#ffffff"
     bordercolor="#666666"
     borderopacity="1.0"
     inkscape:pageopacity="0"
     inkscape:pageshadow="2"
     inkscape:zoom="16"
     inkscape:cx="-22.085029"
     inkscape:cy="25.966264"
     inkscape:document-units="px"
     inkscape:current-layer="layer1"
     showgrid="false"
     inkscape:window-width="1920"
     inkscape:window-height="1029"
     inkscape:window-x="0"
     inkscape:window-y="0"
     inkscape:window-maximized="1"
     units="px" />
  <metadata
     id="metadata7">
    <rdf:RDF>
      <cc:Work
         rdf:about="">
        <dc:format>image/svg+xml</dc:format>
        <dc:type
           rdf:resource="http://purl.org/dc/dcmitype/StillImage" />
        <dc:title />
      </cc:Work>
    </rdf:RDF>
  </metadata>
  <g
     inkscape:label="Ebene 1"
     inkscape:groupmode="layer"
     id="layer1"
     transform="translate(0,-1002.3621)">
    <rect
       style="opacity:1;fill:#031122;fill-opacity:1;fill-rule:nonzero;stroke:none;stroke-width:0;stroke-miterlimit:4;stroke-dasharray:none;stroke-opacity:1"
       id="rect4197"
       width="37"
       height="50"
       x="1.602695e-06"
       y="1002.3621"
       ry="0.16140208" />
    <g
       style="font-style:normal;font-variant:normal;font-weight:normal;font-stretch:normal;font-size:44.23892975px;line-height:125%;font-family:FreeSans;-inkscape-font-specification:FreeSans;text-align:center;letter-spacing:0px;word-spacing:0px;text-anchor:middle;fill:#ffffff;fill-opacity:1;stroke:none;stroke-width:1px;stroke-linecap:butt;stroke-linejoin:miter;stroke-opacity:1"
       id="text4191">
      <path
         d="m 18.835485,1040.0821 q 2.24,0 3.8,-0.52 1.56,-0.52 2.28,-1.36 0.76,-0.84 1.04,-1.64 0.32,-0.84 0.32,-1.76 0,-3.32 -5.36,-4.72 l -7.24,-1.92 q -5.7199998,-1.48 -5.7199998,-6.8 0,-3.96 2.7599998,-6.24 2.8,-2.32 7.6,-2.32 5.04,0 7.84,2.4 2.8,2.36 2.84,6.64 l -3.52,0 q -0.04,-2.84 -1.92,-4.36 -1.88,-1.56 -5.36,-1.56 -2.96,0 -4.76,1.36 -1.76,1.36 -1.76,3.56 0,1.68 1.08,2.64 1.08,0.96 3.72,1.68 l 7.32,1.96 q 2.96,0.8 4.56,2.72 1.64,1.92 1.64,4.6 0,1.16 -0.32,2.32 -0.28,1.12 -1.08,2.36 -0.8,1.2 -2.04,2.12 -1.24,0.92 -3.32,1.52 -2.04,0.6 -4.64,0.6 -1.64,0 -3.16,-0.28 -1.48,-0.24 -3.04,-0.92 -1.56,-0.72 -2.6799998,-1.8 -1.12,-1.12 -1.88,-2.96 -0.72,-1.84 -0.76,-4.24 l 3.5199998,0 0,0.2 q 0,1.24 0.36,2.32 0.4,1.08 1.24,2.12 0.88,1.04 2.56,1.68 1.72,0.6 4.08,0.6 z"
         style="font-size:40px"
         id="path5787" />
    </g>
  </g>
</svg>
