<?xml version="1.0" encoding="UTF-8" standalone="no"?>
<svg
   xmlns:dc="http://purl.org/dc/elements/1.1/"
   xmlns:cc="http://creativecommons.org/ns#"
   xmlns:rdf="http://www.w3.org/1999/02/22-rdf-syntax-ns#"
   xmlns:svg="http://www.w3.org/2000/svg"
   xmlns="http://www.w3.org/2000/svg"
   xmlns:sodipodi="http://sodipodi.sourceforge.net/DTD/sodipodi-0.dtd"
   xmlns:inkscape="http://www.inkscape.org/namespaces/inkscape"
   sodipodi:docname="LmS_Gnt_on.svg"
   inkscape:version="1.0 (4035a4fb49, 2020-05-01)"
   version="1.1"
   id="svg2"
   viewBox="0 0 37 50"
   height="50"
   width="37">
  <defs
     id="defs4" />
  <sodipodi:namedview
     inkscape:document-rotation="0"
     units="px"
     inkscape:window-maximized="1"
     inkscape:window-y="-8"
     inkscape:window-x="-8"
     inkscape:window-height="1027"
     inkscape:window-width="1920"
     showgrid="false"
     inkscape:current-layer="layer1"
     inkscape:document-units="px"
     inkscape:cy="22.209247"
     inkscape:cx="29.44048"
     inkscape:zoom="8.098555"
     inkscape:pageshadow="2"
     inkscape:pageopacity="0"
     borderopacity="1.0"
     bordercolor="#666666"
     pagecolor="#ffffff"
     id="base"
     showguides="true" />
  <metadata
     id="metadata7">
    <rdf:RDF>
      <cc:Work
         rdf:about="">
        <dc:format>image/svg+xml</dc:format>
        <dc:type
           rdf:resource="http://purl.org/dc/dcmitype/StillImage" />
        <dc:title />
      </cc:Work>
    </rdf:RDF>
  </metadata>
  <g
     transform="translate(0,-1002.3621)"
     id="layer1"
     inkscape:groupmode="layer"
     inkscape:label="Ebene 1">
    <rect
       style="opacity:1;fill:#bf0002;fill-opacity:1;fill-rule:nonzero;stroke:none;stroke-width:0;stroke-miterlimit:4;stroke-dasharray:none;stroke-opacity:1"
       id="rect4197"
       width="37"
       height="50"
       x="0"
       y="1002.3621"
       ry="0.16140208" />
    <g
       style="font-style:normal;font-variant:normal;font-weight:bold;font-stretch:normal;font-size:16px;line-height:1.25;font-family:FreeSans;-inkscape-font-specification:'FreeSans Bold';letter-spacing:0px;word-spacing:0px;fill:#ffffff;fill-opacity:1;stroke:none"
       id="text21"
       aria-label="GNT">
      <path
         id="path12"
         d="m 11.900832,1039.8143 q -0.64,-1.872 -2.7840004,-1.872 -1.52,0 -2.4,1.072 -0.864,1.072 -0.864,2.96 0,1.792 0.928,2.944 0.944,1.152 2.4,1.152 0.224,0 0.512,-0.048 0.304,-0.064 0.7200004,-0.224 0.416,-0.176 0.768,-0.448 0.352,-0.272 0.624,-0.752 0.272,-0.496 0.336,-1.12 H 9.4848316 v -2 h 4.6720004 v 6.304 h -1.44 l -0.288,-1.536 q -0.672,0.976 -1.504,1.424 -0.832,0.448 -2.0160004,0.448 -2.368,0 -3.92,-1.728 -1.536,-1.728 -1.536,-4.384 0,-2.72 1.568,-4.416 1.568,-1.696 4.08,-1.696 2.1120004,0 3.4720004,1.056 1.36,1.056 1.584,2.864 z" />
      <path
         id="path14"
         d="m 22.769332,1047.7823 -4.688,-8.064 v 8.064 h -2.4 v -11.664 h 2.464 l 4.624,7.936 v -7.936 h 2.4 v 11.664 z" />
      <path
         id="path16"
         d="m 32.003332,1038.1183 v 9.664 h -2.4 v -9.664 h -3.536 v -2 h 9.344 v 2 z" />
    </g>
    <g
       id="text4191"
       style="font-style:normal;font-variant:normal;font-weight:normal;font-stretch:normal;font-size:44.2389px;line-height:125%;font-family:FreeSans;-inkscape-font-specification:FreeSans;text-align:center;letter-spacing:0px;word-spacing:0px;text-anchor:middle;fill:#ffffff;fill-opacity:1;stroke:none;stroke-width:1px;stroke-linecap:butt;stroke-linejoin:miter;stroke-opacity:1"
       transform="matrix(0.91423628,0,0,0.91423628,1.631269,78.83681)">
      <path
         id="path5233"
         style="font-size:40px"
         d="m 18.835485,1040.0821 q 2.24,0 3.8,-0.52 1.56,-0.52 2.28,-1.36 0.76,-0.84 1.04,-1.64 0.32,-0.84 0.32,-1.76 0,-3.32 -5.36,-4.72 l -7.24,-1.92 q -5.7199998,-1.48 -5.7199998,-6.8 0,-3.96 2.7599998,-6.24 2.8,-2.32 7.6,-2.32 5.04,0 7.84,2.4 2.8,2.36 2.84,6.64 h -3.52 q -0.04,-2.84 -1.92,-4.36 -1.88,-1.56 -5.36,-1.56 -2.96,0 -4.76,1.36 -1.76,1.36 -1.76,3.56 0,1.68 1.08,2.64 1.08,0.96 3.72,1.68 l 7.32,1.96 q 2.96,0.8 4.56,2.72 1.64,1.92 1.64,4.6 0,1.16 -0.32,2.32 -0.28,1.12 -1.08,2.36 -0.8,1.2 -2.04,2.12 -1.24,0.92 -3.32,1.52 -2.04,0.6 -4.64,0.6 -1.64,0 -3.16,-0.28 -1.48,-0.24 -3.04,-0.92 -1.56,-0.72 -2.6799998,-1.8 -1.12,-1.12 -1.88,-2.96 -0.72,-1.84 -0.76,-4.24 h 3.5199998 v 0.2 q 0,1.24 0.36,2.32 0.4,1.08 1.24,2.12 0.88,1.04 2.56,1.68 1.72,0.6 4.08,0.6 z" />
    </g>
  </g>
</svg>
