<?xml version="1.0" encoding="UTF-8" standalone="no"?>
<svg
   xmlns:dc="http://purl.org/dc/elements/1.1/"
   xmlns:cc="http://creativecommons.org/ns#"
   xmlns:rdf="http://www.w3.org/1999/02/22-rdf-syntax-ns#"
   xmlns:svg="http://www.w3.org/2000/svg"
   xmlns="http://www.w3.org/2000/svg"
   xmlns:sodipodi="http://sodipodi.sourceforge.net/DTD/sodipodi-0.dtd"
   xmlns:inkscape="http://www.inkscape.org/namespaces/inkscape"
   width="37"
   height="50"
   viewBox="0 0 37 50"
   id="svg2"
   version="1.1"
   inkscape:version="1.0.1 (3bc2e813f5, 2020-09-07)"
   sodipodi:docname="LmS_Gnt_off.svg">
  <defs
     id="defs4" />
  <sodipodi:namedview
     showguides="true"
     id="base"
     pagecolor="#ffffff"
     bordercolor="#666666"
     borderopacity="1.0"
     inkscape:pageopacity="0"
     inkscape:pageshadow="2"
     inkscape:zoom="9.8626639"
     inkscape:cx="33.318796"
     inkscape:cy="25.259702"
     inkscape:document-units="px"
     inkscape:current-layer="layer1"
     showgrid="false"
     inkscape:window-width="1920"
     inkscape:window-height="1017"
     inkscape:window-x="-8"
     inkscape:window-y="-8"
     inkscape:window-maximized="1"
     units="px"
     inkscape:document-rotation="0" />
  <metadata
     id="metadata7">
    <rdf:RDF>
      <cc:Work
         rdf:about="">
        <dc:format>image/svg+xml</dc:format>
        <dc:type
           rdf:resource="http://purl.org/dc/dcmitype/StillImage" />
        <dc:title />
      </cc:Work>
    </rdf:RDF>
  </metadata>
  <g
     inkscape:label="Ebene 1"
     inkscape:groupmode="layer"
     id="layer1"
     transform="translate(0,-1002.3621)">
    <rect
       style="opacity:1;fill:#031122;fill-opacity:1;fill-rule:nonzero;stroke:none;stroke-width:0;stroke-miterlimit:4;stroke-dasharray:none;stroke-opacity:1"
       id="rect4197-0"
       width="37"
       height="50"
       x="0"
       y="1002.3621"
       ry="0.16140208" />
    <path
       d="m 4.6725926,1041.967 q 0,0.5957 0.109747,1.2072 0.109747,0.5958 0.391952,1.2542 0.282206,0.6585 0.721193,1.1602 0.454664,0.486 1.191535,0.8153 0.73687,0.3135 1.677556,0.3135 1.5678134,0 2.5712134,-0.9876 1.019076,-0.9878 1.019076,-2.5242 v -0.3136 H 8.8743226 v -1.2856 h 4.7661444 v 6.0988 h -0.925006 l -0.360596,-1.5208 q -1.630523,1.8186 -3.9038514,1.8186 -2.320358,0 -3.778421,-1.6618 -1.458063,-1.6619 -1.458063,-4.2958 0,-0.7526 0.141103,-1.5052 0.141103,-0.7682 0.533056,-1.5991 0.391952,-0.8309 0.972041,-1.4581 0.595768,-0.627 1.583488,-1.0347 1.003398,-0.4233 2.257646,-0.4233 1.9597654,0 3.2140144,0.9563 1.269926,0.9564 1.567808,2.6966 h -1.489417 q -0.235172,-1.0974 -1.128824,-1.7245 -0.8779754,-0.6428 -2.1792604,-0.6428 -1.818659,0 -2.916125,1.2856 -1.097467,1.2699 -1.097467,3.3708 z"
       style="font-style:normal;font-weight:normal;font-size:20.4472px;line-height:1.25;font-family:FreeSans;-inkscape-font-specification:FreeSans;letter-spacing:0px;word-spacing:0px;fill:#ffffff;fill-opacity:1;stroke:none;stroke-width:0.480593"
       id="path48" />
    <path
       d="m 24.850302,1036.2131 v 11.4293 h -1.646199 l -5.910641,-9.2657 v 9.2657 h -1.379673 v -11.4293 h 1.583488 l 5.973354,9.3441 v -9.3441 z"
       style="font-style:normal;font-weight:normal;font-size:20.4472px;line-height:1.25;font-family:FreeSans;-inkscape-font-specification:FreeSans;letter-spacing:0px;word-spacing:0px;fill:#ffffff;fill-opacity:1;stroke:none;stroke-width:0.480593"
       id="path50" />
    <path
       d="m 31.591854,1037.6297 v 10.1437 h -1.458063 v -10.1437 h -3.762743 v -1.2856 h 8.967871 v 1.2856 z"
       style="font-style:normal;font-weight:normal;font-size:20.4472px;line-height:1.25;font-family:FreeSans;-inkscape-font-specification:FreeSans;letter-spacing:0px;word-spacing:0px;fill:#ffffff;fill-opacity:1;stroke:none;stroke-width:0.480593"
       id="path52" />
    <g
       id="text4191"
       style="font-style:normal;font-variant:normal;font-weight:normal;font-stretch:normal;font-size:44.2389px;line-height:125%;font-family:FreeSans;-inkscape-font-specification:FreeSans;text-align:center;letter-spacing:0px;word-spacing:0px;text-anchor:middle;fill:#ffffff;fill-opacity:1;stroke:none;stroke-width:1px;stroke-linecap:butt;stroke-linejoin:miter;stroke-opacity:1"
       transform="matrix(0.91423628,0,0,0.91423628,1.6312696,78.836832)">
      <path
         id="path5233"
         style="font-size:40px"
         d="m 18.835485,1040.0821 q 2.24,0 3.8,-0.52 1.56,-0.52 2.28,-1.36 0.76,-0.84 1.04,-1.64 0.32,-0.84 0.32,-1.76 0,-3.32 -5.36,-4.72 l -7.24,-1.92 q -5.7199998,-1.48 -5.7199998,-6.8 0,-3.96 2.7599998,-6.24 2.8,-2.32 7.6,-2.32 5.04,0 7.84,2.4 2.8,2.36 2.84,6.64 h -3.52 q -0.04,-2.84 -1.92,-4.36 -1.88,-1.56 -5.36,-1.56 -2.96,0 -4.76,1.36 -1.76,1.36 -1.76,3.56 0,1.68 1.08,2.64 1.08,0.96 3.72,1.68 l 7.32,1.96 q 2.96,0.8 4.56,2.72 1.64,1.92 1.64,4.6 0,1.16 -0.32,2.32 -0.28,1.12 -1.08,2.36 -0.8,1.2 -2.04,2.12 -1.24,0.92 -3.32,1.52 -2.04,0.6 -4.64,0.6 -1.64,0 -3.16,-0.28 -1.48,-0.24 -3.04,-0.92 -1.56,-0.72 -2.6799998,-1.8 -1.12,-1.12 -1.88,-2.96 -0.72,-1.84 -0.76,-4.24 h 3.5199998 v 0.2 q 0,1.24 0.36,2.32 0.4,1.08 1.24,2.12 0.88,1.04 2.56,1.68 1.72,0.6 4.08,0.6 z" />
    </g>
  </g>
</svg>
