<?xml version="1.0" encoding="UTF-8" standalone="no"?>
<svg
   xmlns:dc="http://purl.org/dc/elements/1.1/"
   xmlns:cc="http://creativecommons.org/ns#"
   xmlns:rdf="http://www.w3.org/1999/02/22-rdf-syntax-ns#"
   xmlns:svg="http://www.w3.org/2000/svg"
   xmlns="http://www.w3.org/2000/svg"
   xmlns:sodipodi="http://sodipodi.sourceforge.net/DTD/sodipodi-0.dtd"
   xmlns:inkscape="http://www.inkscape.org/namespaces/inkscape"
   width="37"
   height="50"
   viewBox="0 0 37 50"
   id="svg2"
   version="1.1"
   inkscape:version="1.0.1 (3bc2e813f5, 2020-09-07)"
   sodipodi:docname="LmUe_Gnt_off.svg">
  <defs
     id="defs4" />
  <sodipodi:namedview
     id="base"
     pagecolor="#ffffff"
     bordercolor="#666666"
     borderopacity="1.0"
     inkscape:pageopacity="0"
     inkscape:pageshadow="2"
     inkscape:zoom="10.78814"
     inkscape:cx="23.671873"
     inkscape:cy="19.08196"
     inkscape:document-units="px"
     inkscape:current-layer="text21"
     showgrid="false"
     inkscape:window-width="958"
     inkscape:window-height="1008"
     inkscape:window-x="-7"
     inkscape:window-y="0"
     inkscape:window-maximized="0"
     units="px"
     inkscape:document-rotation="0" />
  <metadata
     id="metadata7">
    <rdf:RDF>
      <cc:Work
         rdf:about="">
        <dc:format>image/svg+xml</dc:format>
        <dc:type
           rdf:resource="http://purl.org/dc/dcmitype/StillImage" />
        <dc:title />
      </cc:Work>
    </rdf:RDF>
  </metadata>
  <g
     inkscape:label="Ebene 1"
     inkscape:groupmode="layer"
     id="layer1"
     transform="translate(0,-1002.3621)">
    <rect
       ry="0.16140208"
       y="1002.3621"
       x="0"
       height="50"
       width="37"
       id="rect4197"
       style="opacity:1;fill:#031122;fill-opacity:1;fill-rule:nonzero;stroke:none;stroke-width:0;stroke-miterlimit:4;stroke-dasharray:none;stroke-opacity:1" />
    <g
       style="font-style:normal;font-variant:normal;font-weight:normal;font-stretch:normal;font-size:44.23892975px;line-height:125%;font-family:FreeSans;-inkscape-font-specification:FreeSans;text-align:center;letter-spacing:0px;word-spacing:0px;text-anchor:middle;fill:#ffffff;fill-opacity:1;stroke:none;stroke-width:1px;stroke-linecap:butt;stroke-linejoin:miter;stroke-opacity:1"
       id="text4191">
      <path
         d="m 25.980798,1011.2821 h 3.72 v 12.48 c 0,2.9333 -1.026667,5.2667 -3.08,7 -2.026667,1.7333 -4.746667,2.6 -8.16,2.6 -3.466667,0 -6.2,-0.8533 -8.2,-2.56 -1.9733335,-1.7333 -2.9600003,-4.08 -2.9600003,-7.04 v -12.48 h 3.7200003 v 12.48 c 0,2.1067 0.666667,3.6933 2,4.76 1.36,1.04 3.173333,1.56 5.44,1.56 2.346667,0 4.186667,-0.56 5.52,-1.68 1.333333,-1.12 2,-2.6667 2,-4.64 z m -1.48,-6.08 v 4.16 h -4.16 v -4.16 z m -7.16,0 v 4.16 h -4.16 v -4.16 z"
         style="font-size:40px"
         id="path6350"
         sodipodi:nodetypes="ccscscsccscsssccccccccccc" />
    </g>
    <g
       style="font-style:normal;font-variant:normal;font-weight:bold;font-stretch:normal;font-size:16px;line-height:1.25;font-family:FreeSans;-inkscape-font-specification:'FreeSans Bold';letter-spacing:0px;word-spacing:0px;fill:#ffffff;fill-opacity:1;stroke:none"
       id="text21"
       aria-label="GNT">
      <path
         d="m 4.6725911,1041.967 q 0,0.5957 0.109747,1.2072 0.109747,0.5958 0.391952,1.2542 0.282206,0.6585 0.721193,1.1602 0.454664,0.486 1.191535,0.8153 0.73687,0.3135 1.677556,0.3135 1.5678129,0 2.5712129,-0.9876 1.019076,-0.9878 1.019076,-2.5242 v -0.3136 H 8.8743211 v -1.2856 h 4.7661439 v 6.0988 h -0.925006 l -0.360596,-1.5208 q -1.630523,1.8186 -3.9038509,1.8186 -2.320358,0 -3.778421,-1.6618 -1.458063,-1.6619 -1.458063,-4.2958 0,-0.7526 0.141103,-1.5052 0.141103,-0.7682 0.533056,-1.5991 0.391952,-0.8309 0.972041,-1.4581 0.595768,-0.627 1.583488,-1.0347 1.003398,-0.4233 2.257646,-0.4233 1.9597649,0 3.2140139,0.9563 1.269926,0.9564 1.567808,2.6966 h -1.489417 q -0.235172,-1.0974 -1.128824,-1.7245 -0.8779739,-0.6428 -2.1792599,-0.6428 -1.818659,0 -2.916125,1.2856 -1.097467,1.2699 -1.097467,3.3708 z"
         style="font-style:normal;font-weight:normal;font-size:20.4472px;line-height:1.25;font-family:FreeSans;-inkscape-font-specification:FreeSans;letter-spacing:0px;word-spacing:0px;fill:#ffffff;fill-opacity:1;stroke:none;stroke-width:0.480593"
         id="path48" />
      <path
         d="m 24.8503,1036.2131 v 11.4293 h -1.646199 l -5.910641,-9.2657 v 9.2657 h -1.379673 v -11.4293 h 1.583488 l 5.973354,9.3441 v -9.3441 z"
         style="font-style:normal;font-weight:normal;font-size:20.4472px;line-height:1.25;font-family:FreeSans;-inkscape-font-specification:FreeSans;letter-spacing:0px;word-spacing:0px;fill:#ffffff;fill-opacity:1;stroke:none;stroke-width:0.480593"
         id="path50" />
      <path
         d="m 31.591852,1037.6297 v 10.1437 h -1.458063 v -10.1437 h -3.762743 v -1.2856 h 8.967871 v 1.2856 z"
         style="font-style:normal;font-weight:normal;font-size:20.4472px;line-height:1.25;font-family:FreeSans;-inkscape-font-specification:FreeSans;letter-spacing:0px;word-spacing:0px;fill:#ffffff;fill-opacity:1;stroke:none;stroke-width:0.480593"
         id="path52" />
    </g>
  </g>
</svg>
