<?xml version="1.0" encoding="UTF-8" standalone="no"?>
<svg
   xmlns:dc="http://purl.org/dc/elements/1.1/"
   xmlns:cc="http://creativecommons.org/ns#"
   xmlns:rdf="http://www.w3.org/1999/02/22-rdf-syntax-ns#"
   xmlns:svg="http://www.w3.org/2000/svg"
   xmlns="http://www.w3.org/2000/svg"
   xmlns:sodipodi="http://sodipodi.sourceforge.net/DTD/sodipodi-0.dtd"
   xmlns:inkscape="http://www.inkscape.org/namespaces/inkscape"
   width="350"
   height="350"
   viewBox="0 0 350 350"
   id="svg2"
   version="1.1"
   inkscape:version="1.0.1 (3bc2e813f5, 2020-09-07)"
   sodipodi:docname="MO_08.svg">
  <defs
     id="defs4" />
  <sodipodi:namedview
     id="base"
     pagecolor="#ffffff"
     bordercolor="#666666"
     borderopacity="1.0"
     inkscape:pageopacity="0.0"
     inkscape:pageshadow="2"
     inkscape:zoom="0.98994949"
     inkscape:cx="108.44855"
     inkscape:cy="225.78927"
     inkscape:document-units="px"
     inkscape:current-layer="layer1"
     showgrid="false"
     inkscape:window-width="1294"
     inkscape:window-height="1198"
     inkscape:window-x="156"
     inkscape:window-y="156"
     inkscape:window-maximized="0"
     units="px"
     inkscape:document-rotation="0" />
  <metadata
     id="metadata7">
    <rdf:RDF>
      <cc:Work
         rdf:about="">
        <dc:format>image/svg+xml</dc:format>
        <dc:type
           rdf:resource="http://purl.org/dc/dcmitype/StillImage" />
        <dc:title />
      </cc:Work>
    </rdf:RDF>
  </metadata>
  <g
     inkscape:label="Ebene 1"
     inkscape:groupmode="layer"
     id="layer1"
     transform="translate(0,-702.3621)">
    <path
       style="fill:#dfdf00;fill-opacity:1"
       d="M 305.75284,1020.3262 C 302.55455,1019.141 37.06227,886.22777 35.417996,884.98867 c -2.536461,-1.91145 -3.747521,-4.75091 -3.497941,-8.20131 0.414054,-5.72424 12.418491,-8.22472 138.990955,-74.62055 114.38395,-60.00213 136.15133,-67.98651 137.91846,-67.98651 5.12642,0 9.35235,4.20887 9.35235,9.31459 0,3.11246 -1.31041,6.04611 -3.34457,7.48757 -0.75814,0.53724 -10.83068,5.7022 -22.38341,11.47768 -11.55274,5.77548 -21.00498,10.61417 -21.00498,10.75262 0,0.13846 1.24525,2.40867 2.76722,5.04492 23.94514,41.47604 32.08591,91.34403 22.59003,138.38001 -4.1708,20.65921 -11.89309,41.47095 -21.86468,58.92573 -2.00989,3.51822 -3.45015,6.47584 -3.20058,6.5725 0.24956,0.0966 10.06481,5.03066 21.81166,10.96446 23.48803,11.86472 23.99415,12.20942 24.49877,16.68642 0.37389,3.3171 -0.2233,5.5877 -2.00265,7.6143 -2.83511,3.229 -6.59398,4.2969 -10.29579,2.9251 z m -73.27498,-59.06848 c -9.63859,-22.15018 -14.45737,-39.42804 -17.29748,-62.0206 -1.04866,-8.34191 -0.8909,-36.79349 0.25086,-45.24148 2.72102,-20.13298 7.81511,-39.0052 14.89737,-55.19061 1.49417,-3.41469 2.65711,-6.27698 2.58431,-6.36064 -0.0728,-0.0837 -38.4692,19.01658 -85.32533,42.44496 l -85.192966,42.59706 85.262206,42.66604 c 46.89421,23.46633 85.32114,42.67842 85.39317,42.69354 0.072,0.0151 -0.18543,-0.6996 -0.57214,-1.58827 z"
       id="path4222"
       inkscape:connector-curvature="0"
       sodipodi:nodetypes="sssssssssssscsssssssscscscs" />
    <path
       style="fill:#000000"
       d=""
       id="path4220"
       inkscape:connector-curvature="0" />
    <path
       style="fill:#000000"
       d=""
       id="path4218"
       inkscape:connector-curvature="0" />
  </g>
</svg>
