<?xml version="1.0" encoding="UTF-8" standalone="no"?>
<!-- Created with Inkscape (http://www.inkscape.org/) -->

<svg
   xmlns:dc="http://purl.org/dc/elements/1.1/"
   xmlns:cc="http://creativecommons.org/ns#"
   xmlns:rdf="http://www.w3.org/1999/02/22-rdf-syntax-ns#"
   xmlns:svg="http://www.w3.org/2000/svg"
   xmlns="http://www.w3.org/2000/svg"
   xmlns:sodipodi="http://sodipodi.sourceforge.net/DTD/sodipodi-0.dtd"
   xmlns:inkscape="http://www.inkscape.org/namespaces/inkscape"
   width="350"
   height="350"
   viewBox="0 0 350 350"
   id="svg2"
   version="1.1"
   inkscape:version="0.91 r13725"
   sodipodi:docname="MO_13.svg">
  <defs
     id="defs4" />
  <sodipodi:namedview
     id="base"
     pagecolor="#ffffff"
     bordercolor="#666666"
     borderopacity="1.0"
     inkscape:pageopacity="0.0"
     inkscape:pageshadow="2"
     inkscape:zoom="1.979899"
     inkscape:cx="158.19171"
     inkscape:cy="176.02732"
     inkscape:document-units="px"
     inkscape:current-layer="layer1"
     showgrid="false"
     inkscape:window-width="1920"
     inkscape:window-height="1029"
     inkscape:window-x="0"
     inkscape:window-y="0"
     inkscape:window-maximized="1"
     units="px" />
  <metadata
     id="metadata7">
    <rdf:RDF>
      <cc:Work
         rdf:about="">
        <dc:format>image/svg+xml</dc:format>
        <dc:type
           rdf:resource="http://purl.org/dc/dcmitype/StillImage" />
        <dc:title></dc:title>
      </cc:Work>
    </rdf:RDF>
  </metadata>
  <g
     inkscape:label="Ebene 1"
     inkscape:groupmode="layer"
     id="layer1"
     transform="translate(0,-702.3621)">
    <path
       style="fill-opacity:1;fill:#c3c3c3"
       d="M 166.80054,1020.6803 C 118.5315,1017.219 76.478238,991.85059 52.193012,951.54397 41.759037,934.22652 34.936039,914.3689 32.258519,893.52672 c -0.927204,-7.21749 -0.793967,-26.3018 0.235521,-33.73494 2.272589,-16.40863 6.406523,-30.31544 13.19649,-44.3938 12.187419,-25.26949 30.060424,-45.17927 53.827561,-59.96167 7.447749,-4.63226 10.853329,-6.22136 13.308329,-6.20988 6.3339,0.0296 10.81511,5.74906 9.24547,11.80016 -0.78932,3.04291 -2.64528,4.88832 -7.92331,7.87827 -30.546741,17.3044 -51.976323,45.65205 -60.028727,79.40767 -2.709314,11.35743 -3.262688,16.39957 -3.239603,29.51807 0.0171,9.71715 0.193779,12.77648 1.036656,17.95034 2.199893,13.50367 5.657119,24.41226 11.536281,36.4004 17.46328,35.60923 50.137163,60.28281 89.291123,67.42791 53.8701,9.83065 108.46452,-17.22692 132.86306,-65.84824 9.11829,-18.17088 13.3344,-35.88285 13.36931,-56.16468 0.0362,-21.00724 -4.39482,-39.34543 -13.92024,-57.61078 -6.2538,-11.99186 -13.56831,-21.79946 -23.44271,-31.43291 -8.39238,-8.1876 -17.10952,-14.75413 -26.09618,-19.65799 -4.69288,-2.56083 -6.32612,-3.95357 -7.39455,-6.30571 -1.59556,-3.51263 -0.86979,-7.59 1.84942,-10.38987 2.02359,-2.08362 4.09048,-2.98293 6.85571,-2.98293 2.664,0 8.55512,2.97854 17.0418,8.6163 36.2226,24.06295 59.33593,62.35081 63.77206,105.64017 0.70833,6.91218 0.60675,22.2035 -0.19499,29.3513 -3.03789,27.08377 -13.81237,53.1374 -30.71178,74.26372 -5.06537,6.33233 -15.78481,17.07344 -21.77748,21.82151 -22.17863,17.57236 -47.3792,28.03026 -74.96443,31.10896 -4.74422,0.5295 -19.2626,0.944 -23.19277,0.6622 z m -12.65061,-246.39722 0,-62.08166 20.85007,0 20.85007,0 0,62.08166 0,62.08166 -20.85007,0 -20.85007,0 0,-62.08166 z"
       id="path4416"
       inkscape:connector-curvature="0" />
    <path
       style="fill:#000000"
       d=""
       id="path4220"
       inkscape:connector-curvature="0" />
    <path
       style="fill:#000000"
       d=""
       id="path4218"
       inkscape:connector-curvature="0" />
  </g>
</svg>
