<?xml version="1.0" encoding="UTF-8" standalone="no"?>
<svg
   xmlns:dc="http://purl.org/dc/elements/1.1/"
   xmlns:cc="http://creativecommons.org/ns#"
   xmlns:rdf="http://www.w3.org/1999/02/22-rdf-syntax-ns#"
   xmlns:svg="http://www.w3.org/2000/svg"
   xmlns="http://www.w3.org/2000/svg"
   xmlns:sodipodi="http://sodipodi.sourceforge.net/DTD/sodipodi-0.dtd"
   xmlns:inkscape="http://www.inkscape.org/namespaces/inkscape"
   version="1.1"
   width="72"
   height="72"
   id="svg12"
   sodipodi:docname="MO_16.svg"
   inkscape:version="1.0.1 (3bc2e813f5, 2020-09-07)">
  <metadata
     id="metadata16">
    <rdf:RDF>
      <cc:Work
         rdf:about="">
        <dc:format>image/svg+xml</dc:format>
        <dc:type
           rdf:resource="http://purl.org/dc/dcmitype/StillImage" />
      </cc:Work>
    </rdf:RDF>
  </metadata>
  <sodipodi:namedview
     pagecolor="#ffffff"
     bordercolor="#666666"
     borderopacity="1"
     objecttolerance="10"
     gridtolerance="10"
     guidetolerance="10"
     inkscape:pageopacity="0"
     inkscape:pageshadow="2"
     inkscape:window-width="2576"
     inkscape:window-height="1244"
     id="namedview14"
     showgrid="false"
     inkscape:zoom="14"
     inkscape:cx="36"
     inkscape:cy="36"
     inkscape:window-x="0"
     inkscape:window-y="0"
     inkscape:window-maximized="0"
     inkscape:current-layer="svg12" />
  <defs
     id="defs6">
    <desc
       id="desc2"> print colours </desc>
    <style
       type="text/css"
       id="style4">
			rect.bg {fill:rgb(23,54,96); fill-opacity:1; stroke:none}
			path.BGlinesBlack {fill:none; stroke:rgb(0,0,0); stroke-opacity:1; stroke-width:2}
			path.BGlinesShadow {fill:none; stroke:rgb(10,80,146); stroke-opacity:1; stroke-width:2}
			path.lightgrey {fill:rgb(210,210,210); fill-opacity:1; stroke:rgb(210,210,210); stoke-opacity:1}
		</style>
  </defs>
  <path
     class="lightgrey"
     id="UN"
     d="m 8,59 l -3,0 44,-46 3,0 z m 23,0 l -3,0 36,-46 3,0 z      m -24.09,-3 l 2.92,-3 27.74,0 -2.29,3 z m 9.71,-10 l 2.72,-2.8 25.68,0 -2.13,2.8 z      m 8.74,-9 l 2.53,-2.6 23.83,0 -1.98,2.6 z m 7.77,-8 l 2.33,-2.4 22.19,0 -1.82,2.4 z      m 6.8,-7 l 2.13,-2.2 20.77,0 -1.68,2.2 z m 5.82,-6 l 1.95,-2 19.54,0 -1.52,2 z"
     style="stroke:none)" />
</svg>
