<?xml version="1.0" encoding="UTF-8" standalone="no"?>
<!-- Created with Inkscape (http://www.inkscape.org/) -->

<svg
   xmlns:dc="http://purl.org/dc/elements/1.1/"
   xmlns:cc="http://creativecommons.org/ns#"
   xmlns:rdf="http://www.w3.org/1999/02/22-rdf-syntax-ns#"
   xmlns:svg="http://www.w3.org/2000/svg"
   xmlns="http://www.w3.org/2000/svg"
   xmlns:sodipodi="http://sodipodi.sourceforge.net/DTD/sodipodi-0.dtd"
   xmlns:inkscape="http://www.inkscape.org/namespaces/inkscape"
   width="350"
   height="350"
   viewBox="0 0 350 350"
   id="svg2"
   version="1.1"
   inkscape:version="0.91 r13725"
   sodipodi:docname="MO_11.svg">
  <defs
     id="defs4" />
  <sodipodi:namedview
     id="base"
     pagecolor="#ffffff"
     bordercolor="#666666"
     borderopacity="1.0"
     inkscape:pageopacity="0.0"
     inkscape:pageshadow="2"
     inkscape:zoom="1.4"
     inkscape:cx="281.25489"
     inkscape:cy="242.08314"
     inkscape:document-units="px"
     inkscape:current-layer="layer1"
     showgrid="false"
     inkscape:window-width="1920"
     inkscape:window-height="1029"
     inkscape:window-x="0"
     inkscape:window-y="0"
     inkscape:window-maximized="1"
     units="px" />
  <metadata
     id="metadata7">
    <rdf:RDF>
      <cc:Work
         rdf:about="">
        <dc:format>image/svg+xml</dc:format>
        <dc:type
           rdf:resource="http://purl.org/dc/dcmitype/StillImage" />
        <dc:title></dc:title>
      </cc:Work>
    </rdf:RDF>
  </metadata>
  <g
     inkscape:label="Ebene 1"
     inkscape:groupmode="layer"
     id="layer1"
     transform="translate(0,-702.3621)">
    <g
       id="g4337"
       style="fill:#c3c3c3;fill-opacity:1">
      <path
         style="fill-opacity:1;fill:#c3c3c3"
         d="m 37.531247,1020.068 c -2.295179,-1.0442 -5.028186,-3.946 -5.581592,-5.9263 -0.209029,-0.748 -0.380053,-62.52288 -0.380053,-137.27751 l 0,-135.91749 1.390016,-2.36806 c 1.009399,-1.71964 2.059905,-2.70801 3.836456,-3.60954 l 2.44644,-1.24146 135.616666,0.0109 c 130.10065,0.0105 135.69773,0.0478 137.60957,0.91758 2.51549,1.14439 5.07953,4.03656 5.45706,6.15544 0.1596,0.89579 0.22657,62.93882 0.14881,137.87341 l -0.14138,136.2447 -1.5203,1.9132 c -0.83616,1.0523 -2.50555,2.4173 -3.70975,3.0334 l -2.18944,1.1202 -135.4948,-0.011 c -129.982771,-0.01 -135.575875,-0.048 -137.487703,-0.9175 z m 261.730903,-72.13339 -0.0276,-53.6451 -1.09099,1.45463 c -8.20181,10.93555 -19.50782,22.85782 -28.30097,29.84356 -23.18504,18.41944 -49.09837,29.06355 -79.67922,32.72891 -7.34562,0.88042 -25.04914,0.7449 -32.8125,-0.25119 -24.39185,-3.12964 -46.34122,-11.21975 -66.122162,-24.37134 -14.12777,-9.39301 -28.59937,-23.32394 -39.384108,-37.9127 l -1.102833,-1.49187 -0.01575,53.6451 -0.01575,53.64509 124.289773,0 124.28977,0 -0.0276,-53.64509 z m -105.3701,-9.31753 c 7.55378,-1.16955 17.1938,-3.55758 24.60937,-6.09625 7.40261,-2.53423 20.28774,-8.68984 26.84659,-12.82543 11.19672,-7.05992 23.10978,-17.4689 31.16399,-27.22938 3.77782,-4.57814 10.10013,-13.27386 10.68385,-14.69457 0.27424,-0.66749 -3.44318,-6.36839 -8.2208,-12.60711 -4.77212,-6.23155 -17.31832,-18.54273 -23.97265,-23.52359 C 231.28404,823.88722 204.35625,814.87984 175,814.87984 c -27.21063,0 -51.2367,7.30728 -73.82812,22.45406 -14.398026,9.65338 -27.576908,22.91678 -36.673651,36.90884 -1.020902,1.57028 -1.856184,2.98065 -1.856184,3.13415 0,0.50036 5.064754,7.85036 8.395019,12.18289 4.296518,5.5896 16.566738,17.83841 22.180266,22.14159 20.38194,15.62421 43.23242,24.82835 68.60795,27.63517 6.07061,0.67147 25.96622,0.22509 32.06677,-0.71946 z M 55.471003,854.21128 c 4.816025,-6.41128 19.163961,-20.93786 25.565929,-25.88425 22.526458,-17.40474 47.334008,-27.80338 75.568178,-31.6761 7.5756,-1.03911 27.12879,-1.18871 34.55256,-0.26438 31.111,3.87365 58.38743,15.61784 81.63063,35.14705 6.62318,5.56487 16.89949,16.33411 22.02704,23.08363 l 4.22585,5.56259 0.12806,-53.1443 c 0.0704,-29.22936 0.0214,-53.42479 -0.10906,-53.76762 -0.1892,-0.49734 -25.28463,-0.59796 -124.16925,-0.49786 l -123.932133,0.12545 -0.126532,53.74691 c -0.06959,29.5608 0.06211,53.53306 0.292667,53.27169 0.230558,-0.26137 2.186287,-2.82763 4.346061,-5.70281 z"
         id="path4341"
         inkscape:connector-curvature="0" />
      <path
         style="fill-opacity:1;fill:#c3c3c3"
         d="m 37.531247,1020.068 c -2.295179,-1.0442 -5.028186,-3.946 -5.581592,-5.9263 -0.209029,-0.748 -0.380053,-62.52288 -0.380053,-137.27751 l 0,-135.91749 1.390016,-2.36806 c 1.009399,-1.71964 2.059905,-2.70801 3.836456,-3.60954 l 2.44644,-1.24146 135.616666,0.0109 c 130.10065,0.0105 135.69773,0.0478 137.60957,0.91758 2.51549,1.14439 5.07953,4.03656 5.45706,6.15544 0.1596,0.89579 0.22657,62.93882 0.14881,137.87341 l -0.14138,136.2447 -1.5203,1.9132 c -0.83616,1.0523 -2.50555,2.4173 -3.70975,3.0334 l -2.18944,1.1202 -135.4948,-0.011 c -129.982771,-0.01 -135.575875,-0.048 -137.487703,-0.9175 z m 261.730903,-72.13339 -0.0276,-53.6451 -1.09099,1.45463 c -8.20181,10.93555 -19.50782,22.85782 -28.30097,29.84356 -23.18504,18.41944 -49.09837,29.06355 -79.67922,32.72891 -7.34562,0.88042 -25.04914,0.7449 -32.8125,-0.25119 -24.39185,-3.12964 -46.34122,-11.21975 -66.122162,-24.37134 -14.12777,-9.39301 -28.59937,-23.32394 -39.384108,-37.9127 l -1.102833,-1.49187 -0.01575,53.6451 -0.01575,53.64509 124.289773,0 124.28977,0 -0.0276,-53.64509 z m -105.3701,-9.31753 c 7.55378,-1.16955 17.1938,-3.55758 24.60937,-6.09625 7.40261,-2.53423 20.28774,-8.68984 26.84659,-12.82543 11.19672,-7.05992 23.10978,-17.4689 31.16399,-27.22938 3.77782,-4.57814 10.10013,-13.27386 10.68385,-14.69457 0.27424,-0.66749 -3.44318,-6.36839 -8.2208,-12.60711 -4.77212,-6.23155 -17.31832,-18.54273 -23.97265,-23.52359 C 231.28404,823.88722 204.35625,814.87984 175,814.87984 c -27.21063,0 -51.2367,7.30728 -73.82812,22.45406 -14.398026,9.65338 -27.576908,22.91678 -36.673651,36.90884 -1.020902,1.57028 -1.856184,2.98065 -1.856184,3.13415 0,0.50036 5.064754,7.85036 8.395019,12.18289 4.296518,5.5896 16.566738,17.83841 22.180266,22.14159 20.38194,15.62421 43.23242,24.82835 68.60795,27.63517 6.07061,0.67147 25.96622,0.22509 32.06677,-0.71946 z M 55.471003,854.21128 c 4.816025,-6.41128 19.163961,-20.93786 25.565929,-25.88425 22.526458,-17.40474 47.334008,-27.80338 75.568178,-31.6761 7.5756,-1.03911 27.12879,-1.18871 34.55256,-0.26438 31.111,3.87365 58.38743,15.61784 81.63063,35.14705 6.62318,5.56487 16.89949,16.33411 22.02704,23.08363 l 4.22585,5.56259 0.12806,-53.1443 c 0.0704,-29.22936 0.0214,-53.42479 -0.10906,-53.76762 -0.1892,-0.49734 -25.28463,-0.59796 -124.16925,-0.49786 l -123.932133,0.12545 -0.126532,53.74691 c -0.06959,29.5608 0.06211,53.53306 0.292667,53.27169 0.230558,-0.26137 2.186287,-2.82763 4.346061,-5.70281 z"
         id="path4339"
         inkscape:connector-curvature="0" />
    </g>
    <path
       style="fill:#000000"
       d=""
       id="path4220"
       inkscape:connector-curvature="0" />
    <path
       style="fill:#000000"
       d=""
       id="path4218"
       inkscape:connector-curvature="0" />
  </g>
</svg>
