<?xml version="1.0" encoding="UTF-8" standalone="no"?>
<svg
   xmlns:dc="http://purl.org/dc/elements/1.1/"
   xmlns:cc="http://creativecommons.org/ns#"
   xmlns:rdf="http://www.w3.org/1999/02/22-rdf-syntax-ns#"
   xmlns:svg="http://www.w3.org/2000/svg"
   xmlns="http://www.w3.org/2000/svg"
   xmlns:sodipodi="http://sodipodi.sourceforge.net/DTD/sodipodi-0.dtd"
   xmlns:inkscape="http://www.inkscape.org/namespaces/inkscape"
   width="350"
   height="350"
   viewBox="0 0 350 350"
   id="svg2"
   version="1.1"
   inkscape:version="1.0.1 (3bc2e813f5, 2020-09-07)"
   sodipodi:docname="MO_09.svg">
  <defs
     id="defs4" />
  <sodipodi:namedview
     id="base"
     pagecolor="#ffffff"
     bordercolor="#666666"
     borderopacity="1.0"
     inkscape:pageopacity="0.0"
     inkscape:pageshadow="2"
     inkscape:zoom="1.4"
     inkscape:cx="281.25489"
     inkscape:cy="242.08314"
     inkscape:document-units="px"
     inkscape:current-layer="layer1"
     showgrid="false"
     inkscape:window-width="3440"
     inkscape:window-height="1377"
     inkscape:window-x="-8"
     inkscape:window-y="-8"
     inkscape:window-maximized="1"
     units="px"
     inkscape:document-rotation="0" />
  <metadata
     id="metadata7">
    <rdf:RDF>
      <cc:Work
         rdf:about="">
        <dc:format>image/svg+xml</dc:format>
        <dc:type
           rdf:resource="http://purl.org/dc/dcmitype/StillImage" />
        <dc:title />
      </cc:Work>
    </rdf:RDF>
  </metadata>
  <g
     inkscape:label="Ebene 1"
     inkscape:groupmode="layer"
     id="layer1"
     transform="translate(0,-702.3621)">
    <path
       style="fill-opacity:1;fill:#dfdf00"
       d="m 37.535511,1019.6014 c -2.314644,-1.0717 -4.436768,-3.1903 -5.188542,-5.18 -0.744791,-1.9713 -0.744791,-272.64444 0,-274.61569 0.751774,-1.98974 2.873898,-4.10838 5.188542,-5.18002 1.92007,-0.88896 6.656051,-0.92109 137.356169,-0.93163 121.27295,-0.01 135.55999,0.0695 137.21591,0.76119 2.17422,0.90823 4.34185,2.85822 5.49717,4.94522 0.76261,1.37762 0.83703,11.68217 0.97483,134.9787 0.082,73.41796 0.0105,134.86473 -0.15893,136.54833 -0.40941,4.0676 -2.14833,6.7545 -5.42956,8.3896 l -2.4619,1.2268 -135.50252,-0.011 c -130.831521,-0.01 -135.571084,-0.043 -137.491169,-0.9316 z m 221.572829,-44.95621 -27.0033,-27.00671 -5.90193,2.14155 c -33.86605,12.28853 -73.0508,11.83351 -105.6836,-1.22722 l -2.52736,-1.01153 -27.051894,27.0553 -27.051892,27.05532 111.111636,0 111.11164,0 -27.0033,-27.00671 z M 98.298758,937.83378 c -17.4011,-10.43383 -33.243055,-24.65169 -44.52887,-39.96385 -1.46114,-1.98242 -2.747306,-3.6044 -2.858142,-3.6044 -0.110837,0 -0.201519,21.08491 -0.201519,46.85536 l 0,46.85536 24.594923,-24.59115 24.594917,-24.59116 -1.601309,-0.96016 z m 200.871592,-20.19791 -0.12916,-23.36261 -4.21975,5.58918 c -5.03685,6.67143 -18.76304,20.65016 -25.36121,25.8278 -4.818,3.78073 -13.47822,9.73917 -17.26865,11.88126 l -2.10529,1.18977 24.47745,24.48711 24.47745,24.48711 0.12916,-23.3685 c 0.071,-12.85268 0.071,-33.88168 0,-46.73112 z m -109.08584,21.12504 c 7.43486,-0.8697 13.75493,-2.12619 21.6334,-4.30091 l 5.64546,-1.55834 -21.18095,-21.18095 -21.18095,-21.18096 -21.12643,21.12205 -21.12642,21.12203 1.86077,0.65471 c 5.91927,2.08267 17.85991,4.47207 28.70737,5.74453 4.34283,0.50943 21.05732,0.24583 26.76775,-0.42216 z m -52.2452,-37.90996 23.73741,-23.74127 -23.81366,-23.80979 -23.81366,-23.80979 -3.90297,2.1372 c -16.723017,9.15724 -33.585281,24.75563 -44.982355,41.61081 -1.332118,1.97007 -2.42203,3.71401 -2.42203,3.87543 0,0.16142 1.158481,2.01722 2.574395,4.12401 9.087735,13.52196 22.14711,26.55945 35.98669,35.9264 3.67504,2.48735 12.08303,7.42458 12.64825,7.42715 0.13778,5e-4 10.93235,-10.68244 23.98793,-23.74015 z m 105.22235,19.99823 c 16.01535,-9.57054 30.97451,-23.66029 41.30621,-38.9055 l 3.12818,-4.61588 -0.93908,-1.74584 c -2.56811,-4.77439 -10.82259,-14.88212 -18.05731,-22.11147 -9.58273,-9.5756 -19.28245,-16.93991 -29.76707,-22.60002 l -2.63815,-1.4242 -23.83558,23.8317 -23.83558,23.83171 23.73741,23.74127 c 13.05558,13.05771 23.9399,23.74128 24.18737,23.74128 0.24749,0 3.2686,-1.68437 6.7136,-3.74305 z m -46.7941,-78.42647 21.01458,-21.01895 -6.59917,-1.83986 c -13.50468,-3.76513 -24.83457,-5.10727 -39.64425,-4.69625 -13.09339,0.36339 -20.14512,1.42527 -32.73648,4.92958 l -5.62532,1.56558 21.03506,21.03943 c 11.56928,11.57168 21.14889,21.03943 21.28802,21.03943 0.13913,0 9.70953,-9.45853 21.26756,-21.01896 z M 53.769888,856.35715 c 10.414295,-14.12972 24.987614,-27.59545 40.350387,-37.28373 3.058065,-1.92852 5.607154,-3.53891 5.664636,-3.57866 0.05749,-0.0397 -10.960802,-11.13588 -24.485086,-24.65809 l -24.589598,-24.58584 0,46.85536 c 0,25.77045 0.09068,46.85536 0.201519,46.85536 0.110836,0 1.397002,-1.62198 2.858142,-3.6044 z m 245.519882,-43.25096 0,-46.85536 -24.56024,24.55648 -24.56023,24.55648 5.79248,3.69649 c 14.92169,9.52232 28.83816,22.18231 38.85356,35.34562 2.32422,3.05473 4.28178,5.55442 4.35014,5.55486 0.0684,4.3e-4 0.12429,-21.08412 0.12429,-46.85457 z m -174.03308,-9.15198 c 8.95423,-3.27116 20.86212,-5.98196 33.83422,-7.70227 6.80815,-0.90287 25.57977,-0.74919 33.55824,0.27474 13.62099,1.74807 25.834,4.84268 38.07705,9.64821 1.23349,0.48415 2.41784,-0.62542 28.33636,-26.54721 l 27.04908,-27.05249 -111.11164,0 -111.111636,0 27.049073,27.05249 c 25.918523,25.92179 27.102873,27.03136 28.336363,26.54721 0.708,-0.2779 3.40031,-1.27721 5.98289,-2.22068 z"
       id="path4273"
       inkscape:connector-curvature="0" />
    <path
       style="fill:#000000"
       d=""
       id="path4220"
       inkscape:connector-curvature="0" />
    <path
       style="fill:#000000"
       d=""
       id="path4218"
       inkscape:connector-curvature="0" />
  </g>
</svg>
