<?xml version="1.0" encoding="UTF-8" standalone="no"?>
<svg
   xmlns:dc="http://purl.org/dc/elements/1.1/"
   xmlns:cc="http://creativecommons.org/ns#"
   xmlns:rdf="http://www.w3.org/1999/02/22-rdf-syntax-ns#"
   xmlns:svg="http://www.w3.org/2000/svg"
   xmlns="http://www.w3.org/2000/svg"
   xmlns:sodipodi="http://sodipodi.sourceforge.net/DTD/sodipodi-0.dtd"
   xmlns:inkscape="http://www.inkscape.org/namespaces/inkscape"
   width="350"
   height="350"
   viewBox="0 0 350.00002 350"
   id="svg2"
   version="1.1"
   inkscape:version="1.0.1 (3bc2e813f5, 2020-09-07)"
   sodipodi:docname="override_dis.svg">
  <defs
     id="defs4" />
  <sodipodi:namedview
     id="base"
     pagecolor="#ffffff"
     bordercolor="#666666"
     borderopacity="1.0"
     inkscape:pageopacity="0.0"
     inkscape:pageshadow="2"
     inkscape:zoom="2.5600001"
     inkscape:cx="85.151363"
     inkscape:cy="225.25165"
     inkscape:document-units="px"
     inkscape:current-layer="layer1"
     showgrid="false"
     inkscape:window-width="3440"
     inkscape:window-height="1377"
     inkscape:window-x="-8"
     inkscape:window-y="-8"
     inkscape:window-maximized="1"
     units="px"
     inkscape:document-rotation="0" />
  <metadata
     id="metadata7">
    <rdf:RDF>
      <cc:Work
         rdf:about="">
        <dc:format>image/svg+xml</dc:format>
        <dc:type
           rdf:resource="http://purl.org/dc/dcmitype/StillImage" />
        <dc:title></dc:title>
      </cc:Work>
    </rdf:RDF>
  </metadata>
  <g
     inkscape:label="Ebene 1"
     inkscape:groupmode="layer"
     id="layer1"
     transform="translate(0,-702.3622)">
    <path
       style="fill:#555555;fill-opacity:1;stroke-width:0.41103"
       d="m 165.29795,1013.9934 c -5.56493,-1.0918 -10.54805,-3.6371 -14.68549,-7.501 -5.79089,-5.408 -9.11945,-11.6877 -11.08248,-20.9082 -1.0866,-5.1037 -0.98574,-15.5806 0.20417,-21.2085 2.22255,-10.51194 6.71058,-18.08045 13.48564,-22.7418 2.41301,-1.66017 7.08466,-3.59461 10.35529,-4.28787 3.28638,-0.6966 9.47764,-0.76114 12.46132,-0.12985 4.64764,0.98327 10.17205,4.24493 13.2191,7.80473 l 1.49553,1.74721 v -18.36493 -18.36486 h 6.37099 6.371 v 51.37896 51.37891 h -5.95998 -5.95995 v -4.5582 -4.5584 l -1.64947,2.0869 c -3.24641,4.107 -7.8997,6.981 -13.08064,8.0791 -2.9999,0.6358 -8.68665,0.7087 -11.54502,0.148 z m 13.13952,-11.0137 c 5.12088,-1.9456 9.77401,-7.1918 11.65221,-13.1374 2.11779,-6.704 2.38429,-16.9012 0.64993,-24.8684 -1.97063,-9.05237 -7.33072,-15.42139 -14.56382,-17.30488 -5.43,-1.41396 -11.07062,-0.36805 -15.2955,2.83619 -4.04312,3.06636 -6.36313,6.7732 -8.0123,12.80179 -0.77415,2.83 -0.8918,4.3593 -0.91392,11.8798 -0.021,7.0949 0.10837,9.1439 0.72568,11.5089 2.16676,8.3004 7.08691,14.2006 13.80934,16.5599 3.3709,1.1829 8.41502,1.0665 11.94838,-0.2759 z m 68.41937,10.8413 c -11.47023,-2.1142 -20.26052,-9.1653 -24.42643,-19.5937 -4.01141,-10.0414 -4.22026,-24.5112 -0.50936,-35.28552 3.98003,-11.55572 13.43002,-19.66136 25.39219,-21.77997 3.74915,-0.66403 13.00974,-0.31421 16.39591,0.61939 6.05985,1.67077 12.74889,6.09545 16.41272,10.85688 5.13877,6.67826 8.04154,16.74162 8.04333,27.88462 l 3.6e-4,2.1579 h -27.95019 -27.95016 l 7e-5,1.1303 c 2.5e-4,3.7152 2.2365,11.1943 4.34728,14.5396 3.72631,5.9054 10.91653,9.814 18.05388,9.814 4.76861,0 10.00309,-1.8107 13.1034,-4.5329 1.89825,-1.6667 4.50723,-5.4427 5.83513,-8.4454 1.14582,-2.5908 0.57975,-2.4888 8.18642,-1.4763 4.07211,0.5419 5.36897,0.8597 5.46107,1.338 0.16253,0.8441 -1.98279,6.0443 -3.67699,8.9126 -1.7888,3.0287 -6.91079,8.1536 -9.90227,9.908 -6.80003,3.9879 -17.8154,5.6115 -26.81636,3.9525 z m 27.54591,-47.765 c -0.66022,-5.28443 -3.09573,-10.74266 -6.04073,-13.53819 -2.15305,-2.04378 -5.23541,-3.80382 -8.29179,-4.73464 -3.5426,-1.07891 -9.46905,-0.90718 -13.06243,0.37854 -5.04248,1.80428 -9.62776,5.99779 -11.73703,10.73413 -1.07984,2.42496 -2.16792,6.61176 -2.17741,8.37866 l -0.004,1.1302 h 20.80445 20.80446 z m -211.482631,9.5418 v -37.19835 h 5.742514 5.742515 l 0.114653,5.39423 0.114664,5.39426 1.922781,-3.03081 c 3.040815,-4.79313 4.576749,-6.34009 7.95025,-8.00738 3.015768,-1.49045 3.087321,-1.50363 7.068111,-1.30145 3.227952,0.16405 4.670323,0.46049 7.309734,1.50285 5.264869,2.07918 5.073039,1.51061 2.660919,7.88642 -1.14053,3.01463 -2.14661,5.55413 -2.235746,5.64326 -0.0892,0.0892 -1.423556,-0.34869 -2.965328,-0.97294 -4.048018,-1.639 -8.449778,-1.66074 -11.71508,-0.0576 -4.954855,2.43226 -7.366674,7.15441 -8.540673,16.72191 -0.244492,1.9924 -0.427381,12.4144 -0.427381,24.3535 v 20.8707 h -6.371008 -6.370986 z m 48.501761,0 v -37.19835 h 6.16547 6.16548 v 37.19835 37.1984 h -6.16548 -6.16547 z m 0,-58.36651 v -7.19305 h 6.16547 6.16548 v 7.19305 7.19306 h -6.16548 -6.16547 z M 42.1713,841.34881 C 27.780725,839.25318 15.389875,831.00938 8.2464083,818.77807 6.0010397,814.93349 3.5208903,808.56229 2.1956556,803.2345 1.1804462,799.15308 1.1045158,798.209 1.0829669,789.4004 c -0.020575,-8.41675 0.084239,-9.97219 0.9556269,-14.18058 3.3677374,-16.26444 11.7972752,-27.98352 24.9301152,-34.65891 10.251027,-5.21055 24.296824,-6.60035 36.127176,-3.57467 18.499491,4.7314 31.231018,19.00456 35.02057,39.26116 1.165942,6.23233 1.069096,20.19748 -0.180088,25.97243 -2.382077,11.01234 -6.899925,19.66734 -13.707901,26.26075 -5.538285,5.36368 -10.999279,8.56357 -18.844375,11.04184 -6.55047,2.06929 -16.285125,2.83521 -23.212791,1.82639 z m 17.197089,-12.28489 c 14.023426,-3.71519 23.163813,-15.33782 25.374129,-32.26492 0.61018,-4.6728 0.25916,-15.75039 -0.631675,-19.93507 -2.610274,-12.26168 -8.735015,-21.11661 -17.879764,-25.84991 -12.550286,-6.49595 -27.579774,-4.91199 -38.909009,4.1006 -8.926379,7.1011 -12.896558,18.91334 -12.387703,36.85634 0.235814,8.31484 1.217469,13.09309 3.812556,18.55761 4.644714,9.78045 13.823776,17.1923 23.416095,18.90781 1.356406,0.24267 2.928601,0.52353 3.49377,0.62436 2.387205,0.42575 10.594072,-0.17091 13.711601,-0.99682 z m 152.139731,12.16684 c -11.0071,-1.84858 -19.45849,-7.9388 -24.01244,-17.30367 -2.9228,-6.01057 -4.13994,-12.05273 -4.13994,-20.5516 0,-16.46737 5.80344,-28.43149 16.9642,-34.9726 8.78858,-5.15083 22.33353,-5.90266 31.77782,-1.76386 7.00968,3.07191 13.34967,9.52683 16.3213,16.61711 2.29348,5.47233 3.5547,12.18419 3.56815,18.98902 l 0.007,3.80206 H 224.0401 196.08506 l 0.24526,1.74687 c 0.97707,6.95948 2.08942,10.43208 4.50958,14.07817 5.90824,8.9012 17.62647,12.12524 27.08321,7.45147 3.7879,-1.87209 6.4364,-4.67266 8.8562,-9.36477 0.97309,-1.88674 1.83031,-3.50255 1.90501,-3.59073 0.0748,-0.0881 3.00922,0.1773 6.52124,0.59012 6.10401,0.71731 6.37418,0.78779 6.12879,1.59889 -3.47406,11.48415 -11.2137,19.18299 -22.15148,22.03465 -4.24165,1.1059 -13.00719,1.4227 -17.67439,0.63887 z m 27.19035,-46.17866 c -0.10904,-0.39564 -0.324,-1.64411 -0.47723,-2.77443 -0.67513,-4.98176 -2.85077,-9.3546 -6.283,-12.62837 -4.31059,-4.11159 -8.24386,-5.47311 -14.86434,-5.14527 -5.06657,0.25092 -7.52984,1.07848 -11.37291,3.8208 -4.0833,2.91377 -6.79786,7.28723 -8.15479,13.13821 -1.12438,4.84819 -3.67556,4.30836 20.36061,4.30836 19.7924,0 20.97897,-0.0411 20.79166,-0.7193 z m -102.7515,44.80246 c -0.10197,-0.16957 -6.29343,-16.40015 -13.75886,-36.06802 -7.46544,-19.66786 -13.76965,-36.26841 -14.00935,-36.89011 l -0.43582,-1.13032 6.66909,9.9e-4 6.6691,10e-4 8.13693,22.71159 c 4.47533,12.49139 9.09944,25.71284 10.2758,29.38099 1.17636,3.66817 2.2353,6.67219 2.35317,6.67558 0.1179,0.002 1.2807,-3.18437 2.58409,-7.08404 1.30338,-3.8997 6.01601,-17.07836 10.47251,-29.28602 l 8.10273,-22.19573 6.52183,-0.11328 c 6.10458,-0.10623 6.50379,-0.0669 6.23999,0.61654 -0.155,0.40151 -6.49224,17.14557 -14.08274,37.20906 l -13.80092,36.47908 h -5.87611 c -3.23186,0 -5.9595,-0.13867 -6.06144,-0.3083 z m 131.667,-36.89009 v -37.19836 h 5.53699 5.53698 l 0.11461,5.44616 0.11461,5.44617 1.81714,-2.87724 c 2.6888,-4.25732 5.77146,-7.30043 8.74911,-8.63671 4.38856,-1.96945 10.26178,-1.42537 16.02655,1.48469 1.31173,0.66216 2.38492,1.32906 2.38492,1.48199 0,0.45172 -3.80642,10.57273 -4.10884,10.92515 -0.1526,0.1773 -1.14793,-0.0508 -2.21242,-0.50693 -9.43161,-4.04284 -17.40016,-0.07 -19.90712,9.92568 -1.41298,5.63382 -1.72107,11.37519 -1.72142,32.08103 l -3.5e-4,19.62674 h -6.16547 -6.16549 z m 43.15832,0 v -6.371 h 19.3185 19.3185 v 6.371 6.37097 h -19.3185 -19.3185 z"
       id="path845" />
  </g>
</svg>
