<?xml version="1.0" encoding="UTF-8" standalone="no"?>
<svg
   width="47"
   height="48"
   viewBox="0 0 47 48"
   id="svg2"
   version="1.1"
   inkscape:version="1.4 (86a8ad7, 2024-10-11)"
   sodipodi:docname="sifa_off.svg"
   xmlns:inkscape="http://www.inkscape.org/namespaces/inkscape"
   xmlns:sodipodi="http://sodipodi.sourceforge.net/DTD/sodipodi-0.dtd"
   xmlns="http://www.w3.org/2000/svg"
   xmlns:svg="http://www.w3.org/2000/svg"
   xmlns:rdf="http://www.w3.org/1999/02/22-rdf-syntax-ns#"
   xmlns:cc="http://creativecommons.org/ns#"
   xmlns:dc="http://purl.org/dc/elements/1.1/">
  <defs
     id="defs4" />
  <sodipodi:namedview
     id="base"
     pagecolor="#ffffff"
     bordercolor="#666666"
     borderopacity="1.0"
     inkscape:pageopacity="0.0"
     inkscape:pageshadow="2"
     inkscape:zoom="8"
     inkscape:cx="8.6875"
     inkscape:cy="40.3125"
     inkscape:document-units="px"
     inkscape:current-layer="layer1"
     showgrid="false"
     units="px"
     inkscape:window-width="1920"
     inkscape:window-height="1057"
     inkscape:window-x="1912"
     inkscape:window-y="-8"
     inkscape:window-maximized="1"
     inkscape:document-rotation="0"
     inkscape:showpageshadow="2"
     inkscape:pagecheckerboard="0"
     inkscape:deskcolor="#d1d1d1" />
  <metadata
     id="metadata7">
    <rdf:RDF>
      <cc:Work
         rdf:about="">
        <dc:format>image/svg+xml</dc:format>
        <dc:type
           rdf:resource="http://purl.org/dc/dcmitype/StillImage" />
      </cc:Work>
    </rdf:RDF>
  </metadata>
  <g
     inkscape:label="Ebene 1"
     inkscape:groupmode="layer"
     id="layer1"
     transform="translate(0,-1027.3623)">
    <path
       style="fill:#000000"
       d=""
       id="path4173"
       inkscape:connector-curvature="0" />
    <path
       style="fill:#000000"
       d=""
       id="path4171"
       inkscape:connector-curvature="0" />
    <rect
       style="opacity:1;fill:#0000f2;fill-opacity:1;fill-rule:nonzero;stroke:none;stroke-width:0;stroke-miterlimit:4;stroke-dasharray:none;stroke-opacity:1"
       id="rect4147"
       width="47"
       height="48"
       x="0"
       y="1027.3623"
       ry="0.046750929" />
    <g
       id="g1"
       transform="translate(-0.49454315,1.3877143)">
      <path
         style="fill:#ffffff;fill-opacity:1"
         d="m 1.4913993,1059.1132 v -0.5218 h 3.5828293 c 3.515421,0 3.593345,-0.01 4.141883,-0.3066 0.307479,-0.1687 7.8780184,-3.9858 16.8234224,-8.4827 l 16.264369,-8.176 0.205324,0.2932 c 0.112927,0.1612 0.205322,0.3667 0.205322,0.4567 0,0.09 -3.859778,2.1024 -8.577285,4.4721 -4.717507,2.3697 -11.87888,5.9667 -15.914162,7.9933 l -7.336877,3.6848 17.805731,0.033 17.805731,0.033 v 0.5213 0.5214 H 23.994543 1.4913993 v -0.5219 z m 6.0095073,-1.8317 c -0.757705,-0.599 -2.0787925,-2.2269 -2.8443559,-3.505 -0.7957451,-1.3285 -1.1480478,-2.4691 -1.5592529,-5.0479 -0.087036,-0.5459 0.3153156,-0.8513 1.403989,-1.066 0.4611618,-0.091 1.1026436,-0.2298 1.4255148,-0.3086 0.3228712,-0.079 0.845868,-0.195 1.162213,-0.2581 1.640656,-0.3271 3.0713474,-1.5309 3.9315304,-3.308 0.283654,-0.5861 0.515735,-1.164 0.515735,-1.2843 0,-0.2664 -0.114698,-0.2713 1.120597,0.048 2.554407,0.6593 6.644566,0.8595 9.446097,0.4622 2.815244,-0.3991 5.568917,-1.5449 7.195054,-2.441 0,0 1.06148,-0.5883 2.2498,0.01 1.44768,0.5378 1.553988,0.7874 2.455831,1.7119 0.761839,0.781 0.808458,0.8652 0.858004,1.5502 0.04241,0.5863 0.0057,0.7665 -0.192518,0.9459 -0.134701,0.1219 -5.849656,2.9457 -12.699898,6.275 -6.850244,3.3294 -12.7592084,6.2077 -13.1310344,6.3963 l -0.676046,0.3429 -0.66126,-0.5227 z"
         id="path4190"
         inkscape:connector-curvature="0"
         sodipodi:nodetypes="ccscsccsssccccccccccscccccsccscssccsccc" />
      <path
         sodipodi:type="star"
         style="opacity:1;fill:#ffffff;fill-opacity:1;fill-rule:nonzero;stroke:none;stroke-width:0;stroke-miterlimit:4;stroke-dasharray:none;stroke-opacity:1"
         id="path4208"
         sodipodi:sides="3"
         sodipodi:cx="40.787853"
         sodipodi:cy="1044.9419"
         sodipodi:r1="2.4524653"
         sodipodi:r2="1.2262326"
         sodipodi:arg1="-0.52359878"
         sodipodi:arg2="0.52359878"
         inkscape:flatsided="true"
         inkscape:rounded="0"
         inkscape:randomized="0"
         d="m 42.91175,1043.7157 -2.123897,3.6787 -2.123897,-3.6787 z"
         inkscape:transform-center-y="0.61320222"
         transform="translate(0.61871846,9.8994954)" />
      <path
         sodipodi:type="star"
         style="opacity:1;fill:#ffffff;fill-opacity:1;fill-rule:nonzero;stroke:none;stroke-width:0;stroke-miterlimit:4;stroke-dasharray:none;stroke-opacity:1"
         id="path4208-3"
         sodipodi:sides="3"
         sodipodi:cx="-40.788326"
         sodipodi:cy="-1038.4117"
         sodipodi:r1="2.4524653"
         sodipodi:r2="1.2262326"
         sodipodi:arg1="-0.52359878"
         sodipodi:arg2="0.52359878"
         inkscape:flatsided="true"
         inkscape:rounded="0"
         inkscape:randomized="0"
         d="m -38.664429,-1039.638 -2.123897,3.6787 -2.123898,-3.6787 z"
         inkscape:transform-center-y="-0.61315249"
         transform="rotate(180,0.30935923,4.9497477)" />
      <rect
         style="opacity:1;fill:#ffffff;fill-opacity:1;fill-rule:nonzero;stroke:none;stroke-width:0;stroke-miterlimit:4;stroke-dasharray:none;stroke-opacity:1"
         id="rect4225"
         width="1.8125"
         height="6.375"
         x="40.497147"
         y="1047.9247"
         ry="0.038506106" />
    </g>
    <path
       style="fill:none;stroke:#bf0000;stroke-width:1.91806;stroke-linecap:butt;stroke-linejoin:miter;stroke-miterlimit:4;stroke-dasharray:none;stroke-opacity:1"
       d="M 0.05494497,1075.4038 46.984263,1027.3872"
       id="path826"
       inkscape:connector-curvature="0" />
  </g>
</svg>
