<?xml version="1.0" encoding="UTF-8" standalone="no"?>
<svg
   xmlns:dc="http://purl.org/dc/elements/1.1/"
   xmlns:cc="http://creativecommons.org/ns#"
   xmlns:rdf="http://www.w3.org/1999/02/22-rdf-syntax-ns#"
   xmlns:svg="http://www.w3.org/2000/svg"
   xmlns="http://www.w3.org/2000/svg"
   xmlns:sodipodi="http://sodipodi.sourceforge.net/DTD/sodipodi-0.dtd"
   xmlns:inkscape="http://www.inkscape.org/namespaces/inkscape"
   width="54"
   height="25"
   viewBox="0 0 54 25"
   id="svg2"
   version="1.1"
   inkscape:version="1.0.1 (3bc2e813f5, 2020-09-07)"
   sodipodi:docname="sifaWarn2.svg">
  <defs
     id="defs4" />
  <sodipodi:namedview
     id="base"
     pagecolor="#ffffff"
     bordercolor="#666666"
     borderopacity="1.0"
     inkscape:pageopacity="0.0"
     inkscape:pageshadow="2"
     inkscape:zoom="22.627416"
     inkscape:cx="12.086363"
     inkscape:cy="14.546819"
     inkscape:document-units="px"
     inkscape:current-layer="layer1"
     showgrid="false"
     units="px"
     inkscape:window-width="3440"
     inkscape:window-height="1377"
     inkscape:window-x="-8"
     inkscape:window-y="-8"
     inkscape:window-maximized="1"
     inkscape:document-rotation="0" />
  <metadata
     id="metadata7">
    <rdf:RDF>
      <cc:Work
         rdf:about="">
        <dc:format>image/svg+xml</dc:format>
        <dc:type
           rdf:resource="http://purl.org/dc/dcmitype/StillImage" />
        <dc:title />
      </cc:Work>
    </rdf:RDF>
  </metadata>
  <g
     inkscape:label="Ebene 1"
     inkscape:groupmode="layer"
     id="layer1"
     transform="translate(0,-1027.3623)">
    <path
       id="rect836"
       style="fill:#dfdf00;fill-opacity:1;stroke-width:57.7854"
       d="m 0,1027.3623 h 54 v 25 H 0 Z" />
    <path
       style="fill:#000000"
       d=""
       id="path4173"
       inkscape:connector-curvature="0" />
    <path
       style="fill:#000000"
       d=""
       id="path4171"
       inkscape:connector-curvature="0" />
    <path
       style="fill:#000000;fill-opacity:1"
       d="M 5.1153217,1048.7718 V 1048.25 H 8.698151 c 3.515421,0 3.593345,-0.01 4.141883,-0.3066 0.307479,-0.1687 7.878019,-3.9858 16.823423,-8.4827 l 16.264369,-8.176 0.205324,0.2932 c 0.112927,0.1612 0.205322,0.3667 0.205322,0.4567 0,0.09 -3.859778,2.1024 -8.577285,4.4721 -4.717507,2.3697 -11.87888,5.9667 -15.914162,7.9933 l -7.336877,3.6848 17.805731,0.033 17.805731,0.033 v 0.5213 0.5214 H 27.618466 5.1153217 v -0.5219 z m 6.0095073,-1.8317 c -0.757705,-0.599 -2.0787925,-2.2269 -2.8443559,-3.505 -0.7957451,-1.3285 -1.1480478,-2.4691 -1.5592529,-5.0479 -0.087036,-0.5459 0.3153156,-0.8513 1.403989,-1.066 0.4611618,-0.091 1.1026436,-0.2298 1.4255148,-0.3086 0.3228712,-0.079 0.845868,-0.195 1.162213,-0.2581 1.640656,-0.3271 3.071347,-1.5309 3.931531,-3.308 0.283654,-0.5861 0.515735,-1.164 0.515735,-1.2843 0,-0.2664 -0.114698,-0.2713 1.120597,0.048 2.554407,0.6593 6.644566,0.8595 9.446097,0.4622 2.815244,-0.3991 5.568917,-1.5449 7.195054,-2.441 0,0 1.06148,-0.5883 2.2498,0.01 1.44768,0.5378 1.553988,0.7874 2.455831,1.7119 0.761839,0.781 0.808458,0.8652 0.858004,1.5502 0.04241,0.5863 0.0057,0.7665 -0.192518,0.9459 -0.134701,0.1219 -5.849656,2.9457 -12.699898,6.275 -6.850244,3.3294 -12.759209,6.2077 -13.131035,6.3963 l -0.676046,0.3429 -0.66126,-0.5227 z"
       id="path4190"
       inkscape:connector-curvature="0"
       sodipodi:nodetypes="ccscsccsssccccccccccscccccsccscssccsccc" />
    <path
       sodipodi:type="star"
       style="opacity:1;fill:#000000;fill-opacity:1;fill-rule:nonzero;stroke:none;stroke-width:0;stroke-miterlimit:4;stroke-dasharray:none;stroke-opacity:1"
       id="path4208"
       sodipodi:sides="3"
       sodipodi:cx="40.787854"
       sodipodi:cy="1044.9419"
       sodipodi:r1="2.4524653"
       sodipodi:r2="1.2262326"
       sodipodi:arg1="-0.52359878"
       sodipodi:arg2="0.52359878"
       inkscape:flatsided="true"
       inkscape:rounded="0"
       inkscape:randomized="0"
       d="m 42.91175,1043.7157 -2.123897,3.6787 -2.123897,-3.6787 z"
       inkscape:transform-center-y="0.61320222" />
    <path
       sodipodi:type="star"
       style="opacity:1;fill:#000000;fill-opacity:1;fill-rule:nonzero;stroke:none;stroke-width:0;stroke-miterlimit:4;stroke-dasharray:none;stroke-opacity:1"
       id="path4208-3"
       sodipodi:sides="3"
       sodipodi:cx="-40.788328"
       sodipodi:cy="-1038.4117"
       sodipodi:r1="2.4524653"
       sodipodi:r2="1.2262326"
       sodipodi:arg1="-0.52359878"
       sodipodi:arg2="0.52359878"
       inkscape:flatsided="true"
       inkscape:rounded="0"
       inkscape:randomized="0"
       d="m -38.664429,-1039.638 -2.123897,3.6787 -2.123898,-3.6787 z"
       inkscape:transform-center-y="-0.61315249"
       transform="scale(-1)" />
    <rect
       style="opacity:1;fill:#000000;fill-opacity:1;fill-rule:nonzero;stroke:none;stroke-width:0;stroke-miterlimit:4;stroke-dasharray:none;stroke-opacity:1"
       id="rect4225"
       width="1.8125"
       height="6.375"
       x="39.878429"
       y="1038.0251"
       ry="0.038506106" />
  </g>
</svg>
