<?xml version="1.0" encoding="UTF-8" standalone="no"?>
<svg
   xmlns:dc="http://purl.org/dc/elements/1.1/"
   xmlns:cc="http://creativecommons.org/ns#"
   xmlns:rdf="http://www.w3.org/1999/02/22-rdf-syntax-ns#"
   xmlns:svg="http://www.w3.org/2000/svg"
   xmlns="http://www.w3.org/2000/svg"
   xmlns:sodipodi="http://sodipodi.sourceforge.net/DTD/sodipodi-0.dtd"
   xmlns:inkscape="http://www.inkscape.org/namespaces/inkscape"
   width="350"
   height="142"
   viewBox="0 0 350 142"
   id="svg2"
   version="1.1"
   inkscape:version="1.0.1 (3bc2e813f5, 2020-09-07)"
   sodipodi:docname="ST_02.svg">
  <defs
     id="defs4" />
  <sodipodi:namedview
     id="base"
     pagecolor="#ffffff"
     bordercolor="#666666"
     borderopacity="1.0"
     inkscape:pageopacity="0.0"
     inkscape:pageshadow="2"
     inkscape:zoom="2.8"
     inkscape:cx="403.61633"
     inkscape:cy="128.15281"
     inkscape:document-units="px"
     inkscape:current-layer="text54"
     showgrid="false"
     inkscape:window-width="3440"
     inkscape:window-height="1377"
     inkscape:window-x="1072"
     inkscape:window-y="275"
     inkscape:window-maximized="1"
     units="px"
     inkscape:document-rotation="0" />
  <metadata
     id="metadata7">
    <rdf:RDF>
      <cc:Work
         rdf:about="">
        <dc:format>image/svg+xml</dc:format>
        <dc:type
           rdf:resource="http://purl.org/dc/dcmitype/StillImage" />
        <dc:title></dc:title>
      </cc:Work>
    </rdf:RDF>
  </metadata>
  <g
     inkscape:label="Ebene 1"
     inkscape:groupmode="layer"
     id="layer1"
     transform="translate(0,-910.3621)">
    <path
       style="fill:#000000"
       d=""
       id="path4220"
       inkscape:connector-curvature="0" />
    <path
       style="fill:#000000"
       d=""
       id="path4218"
       inkscape:connector-curvature="0" />
    <g
       aria-label="0"
       id="text54"
       style="font-size:87.2646px;line-height:1.25;font-family:FreeSans;-inkscape-font-specification:FreeSans;fill:#c3c3c3;fill-opacity:1;stroke-width:2.18162">
      <path
         style="fill:#c4c4c4;stroke-width:0.334705;fill-opacity:1"
         d="m 22.5,1030.2465 v -9.4354 H 48.005815 73.51163 l -12.733337,-12.734 -12.733336,-12.73407 15.763738,-15.76374 15.76374,-15.76374 v 12.61875 12.61874 h 36.932535 36.93253 l -7.75639,-7.78609 c -7.16754,-7.19498 -7.79042,-7.8618 -8.20454,-8.78332 l -0.44815,-0.99724 v -14.1914 -14.1914 l 0.50527,-1.07394 c 0.47859,-1.01723 1.04983,-1.61733 10.81615,-11.36276 11.15211,-11.12825 10.86106,-10.87455 12.90885,-11.25227 1.17963,-0.21759 26.3902,-0.23429 27.52944,-0.0182 2.01273,0.38171 1.58057,0.004 12.78515,11.17967 9.31918,9.29528 10.43939,10.46431 10.89286,11.36745 l 0.50544,1.00667 v 14.34805 14.34804 l -0.5198,1.07072 c -0.47888,0.98637 -1.11904,1.67199 -8.12637,8.70339 l -7.60654,7.63267 h 36.85434 36.85436 v -12.61856 -12.61856 l 15.80228,15.80173 15.80228,15.80172 -12.69518,12.69579 -12.69516,12.6959 H 302.0709 327.5 v 9.4354 9.4353 H 175 22.5 Z m 247.92757,-19.0242 v -9.5888 H 175 79.572435 v 9.5888 9.5888 H 175 270.42757 Z m -77.593,-36.09159 7.63324,-7.6321 v -10.12577 -10.12576 l -7.70882,-7.70995 -7.70881,-7.70995 h -10.04905 -10.04905 l -7.70994,7.70882 -7.70995,7.70881 v 10.04905 10.04905 l 7.70882,7.70995 7.70881,7.70994 h 10.12575 10.12576 z"
         id="path851" />
      <path
         style="fill:#000000;stroke-width:0.328515"
         id="path878"
         d="" />
      <path
         style="fill:#000000;stroke-width:0.334705"
         id="path849"
         d="" />
    </g>
  </g>
</svg>
