<?xml version="1.0" encoding="UTF-8" standalone="no"?>
<svg
   xmlns:dc="http://purl.org/dc/elements/1.1/"
   xmlns:cc="http://creativecommons.org/ns#"
   xmlns:rdf="http://www.w3.org/1999/02/22-rdf-syntax-ns#"
   xmlns:svg="http://www.w3.org/2000/svg"
   xmlns="http://www.w3.org/2000/svg"
   xmlns:sodipodi="http://sodipodi.sourceforge.net/DTD/sodipodi-0.dtd"
   xmlns:inkscape="http://www.inkscape.org/namespaces/inkscape"
   width="350"
   height="142"
   viewBox="0 0 350 142"
   id="svg2"
   version="1.1"
   inkscape:version="1.0.1 (3bc2e813f5, 2020-09-07)"
   sodipodi:docname="ST_03.svg">
  <defs
     id="defs4" />
  <sodipodi:namedview
     id="base"
     pagecolor="#ffffff"
     bordercolor="#666666"
     borderopacity="1.0"
     inkscape:pageopacity="0.0"
     inkscape:pageshadow="2"
     inkscape:zoom="2.8"
     inkscape:cx="473.09853"
     inkscape:cy="-14.32462"
     inkscape:document-units="px"
     inkscape:current-layer="text54"
     showgrid="false"
     inkscape:window-width="3440"
     inkscape:window-height="1377"
     inkscape:window-x="1072"
     inkscape:window-y="275"
     inkscape:window-maximized="1"
     units="px"
     inkscape:document-rotation="0" />
  <metadata
     id="metadata7">
    <rdf:RDF>
      <cc:Work
         rdf:about="">
        <dc:format>image/svg+xml</dc:format>
        <dc:type
           rdf:resource="http://purl.org/dc/dcmitype/StillImage" />
        <dc:title />
      </cc:Work>
    </rdf:RDF>
  </metadata>
  <g
     inkscape:label="Ebene 1"
     inkscape:groupmode="layer"
     id="layer1"
     transform="translate(0,-910.3621)">
    <path
       style="fill:#000000"
       d=""
       id="path4220"
       inkscape:connector-curvature="0" />
    <path
       style="fill:#000000"
       d=""
       id="path4218"
       inkscape:connector-curvature="0" />
    <g
       aria-label="0"
       id="text54"
       style="font-size:87.2646px;line-height:1.25;font-family:FreeSans;-inkscape-font-specification:FreeSans;fill:#c3c3c3;fill-opacity:1;stroke-width:2.18162">
      <path
         style="fill:#c4c4c4;fill-opacity:1;stroke-width:0.328515"
         d="m 70.587816,1039.6236 c -5.70069,-1.5892 -8.52494,-7.9254 -5.9084,-13.2556 0.42337,-0.8624 0.86654,-1.4506 1.77384,-2.3543 1.208,-1.2032 1.22206,-1.2117 11.59971,-6.9511 5.71464,-3.1605 11.11707,-6.1421 12.0054,-6.6257 l 1.61516,-0.8792 -0.034,-28.7569 -0.034,-28.75689 -11.06787,-5.98026 c -6.08732,-3.28914 -11.56801,-6.27272 -12.17929,-6.63017 -2.85173,-1.66757 -4.6808,-4.8342 -4.6808,-8.10379 0,-4.24989 2.9797,-8.05012 7.14147,-9.10802 1.9542,-0.49675 4.4802,-0.20329 6.40579,0.74421 1.69071,0.83192 27.577724,14.84086 28.713834,15.53869 1.40839,0.86507 2.8675,2.44558 3.55715,3.8531 1.0149,2.07135 1.00792,1.95888 1.00792,16.2214 v 12.80608 l 71.71526,-0.0378 71.71527,-0.0378 0.0382,-21.72163 0.0382,-21.72163 h 9.33565 9.33565 v 52.93001 52.93 h -9.33616 -9.33616 v -21.7593 -21.75925 h -71.75291 -71.75291 l -0.003,12.83725 c -0.003,14.3532 0.0197,14.0052 -1.05156,16.1786 -0.7255,1.4719 -1.74452,2.632 -3.12577,3.5583 -1.56219,1.0477 -29.014314,16.1951 -30.139124,16.63 -1.35288,0.5232 -4.10579,0.6273 -5.59678,0.2117 z"
         id="path880" />
      <path
         style="fill:#000000;stroke-width:0.328515"
         id="path878"
         d="" />
    </g>
  </g>
</svg>
