<?xml version="1.0" encoding="UTF-8" standalone="no"?>
<!-- Created with Inkscape (http://www.inkscape.org/) -->

<svg
   xmlns:dc="http://purl.org/dc/elements/1.1/"
   xmlns:cc="http://creativecommons.org/ns#"
   xmlns:rdf="http://www.w3.org/1999/02/22-rdf-syntax-ns#"
   xmlns:svg="http://www.w3.org/2000/svg"
   xmlns="http://www.w3.org/2000/svg"
   xmlns:sodipodi="http://sodipodi.sourceforge.net/DTD/sodipodi-0.dtd"
   xmlns:inkscape="http://www.inkscape.org/namespaces/inkscape"
   width="54"
   height="221"
   viewBox="0 0 53.999997 221"
   id="svg2"
   version="1.1"
   inkscape:version="0.91 r13725"
   sodipodi:docname="targetDistDb4000m.svg">
  <defs
     id="defs4" />
  <sodipodi:namedview
     id="base"
     pagecolor="#ffffff"
     bordercolor="#666666"
     borderopacity="1.0"
     inkscape:pageopacity="0.0"
     inkscape:pageshadow="2"
     inkscape:zoom="4"
     inkscape:cx="123.22856"
     inkscape:cy="94.481169"
     inkscape:document-units="px"
     inkscape:current-layer="layer1"
     showgrid="true"
     units="px"
     inkscape:window-width="1920"
     inkscape:window-height="1029"
     inkscape:window-x="0"
     inkscape:window-y="0"
     inkscape:window-maximized="1"
     objecttolerance="10000"
     gridtolerance="1">
    <inkscape:grid
       type="xygrid"
       id="grid4601" />
  </sodipodi:namedview>
  <metadata
     id="metadata7">
    <rdf:RDF>
      <cc:Work
         rdf:about="">
        <dc:format>image/svg+xml</dc:format>
        <dc:type
           rdf:resource="http://purl.org/dc/dcmitype/StillImage" />
        <dc:title />
      </cc:Work>
    </rdf:RDF>
  </metadata>
  <g
     inkscape:label="Ebene 1"
     inkscape:groupmode="layer"
     id="layer1"
     transform="translate(0,-831.36216)">
    <path
       style="opacity:1;fill:#ffffff;fill-opacity:1;fill-rule:nonzero;stroke:none;stroke-width:3;stroke-linejoin:miter;stroke-miterlimit:4;stroke-dasharray:none;stroke-opacity:1"
       d="m 29.999998,867.36218 6,0 0,1 -6,0 z"
       id="rect4147-35-0-0-6-2-6-1" />
    <path
       style="opacity:1;fill:#555555;fill-opacity:1;fill-rule:nonzero;stroke:none;stroke-width:3;stroke-linejoin:miter;stroke-miterlimit:4;stroke-dasharray:none;stroke-opacity:1"
       d="m 29.999998,872.36218 6,0 0,1 -6,0 z"
       id="rect4147-35-0-0-6-2-6-1-7" />
    <path
       style="opacity:1;fill:#555555;fill-opacity:1;fill-rule:nonzero;stroke:none;stroke-width:3;stroke-linejoin:miter;stroke-miterlimit:4;stroke-dasharray:none;stroke-opacity:1"
       d="m 30.046871,876.40906 6,0 0,1 -6,0 z"
       id="rect4147-35-0-0-6-2-6-1-7-2" />
    <path
       style="opacity:1;fill:#555555;fill-opacity:1;fill-rule:nonzero;stroke:none;stroke-width:3;stroke-linejoin:miter;stroke-miterlimit:4;stroke-dasharray:none;stroke-opacity:1"
       d="m 29.999998,881.36218 6,0 0,1 -6,0 z"
       id="rect4147-35-0-0-6-2-6-1-7-2-0" />
    <path
       style="opacity:1;fill:#555555;fill-opacity:1;fill-rule:nonzero;stroke:none;stroke-width:3;stroke-linejoin:miter;stroke-miterlimit:4;stroke-dasharray:none;stroke-opacity:1"
       d="m 29.999998,886.36218 6,0 0,1 -6,0 z"
       id="rect4147-35-0-0-6-2-6-1-7-2-0-2" />
    <path
       style="opacity:1;fill:#555555;fill-opacity:1;fill-rule:nonzero;stroke:none;stroke-width:3;stroke-linejoin:miter;stroke-miterlimit:4;stroke-dasharray:none;stroke-opacity:1"
       d="m 29.999998,895.36218 6,0 0,1 -6,0 z"
       id="rect4147-35-0-0-6-2-6-1-7-2-0-2-3" />
    <path
       style="opacity:1;fill:#555555;fill-opacity:1;fill-rule:nonzero;stroke:none;stroke-width:3;stroke-linejoin:miter;stroke-miterlimit:4;stroke-dasharray:none;stroke-opacity:1"
       d="m 29.999998,905.36218 6,0 0,1 -6,0 z"
       id="rect4147-35-0-0-6-2-6-1-7-2-0-2-3-7" />
    <path
       style="opacity:1;fill:#555555;fill-opacity:1;fill-rule:nonzero;stroke:none;stroke-width:3;stroke-linejoin:miter;stroke-miterlimit:4;stroke-dasharray:none;stroke-opacity:1"
       d="m 29.999996,900.36218 6,0 0,1 -6,0 z"
       id="rect4147-35-0-0-6-2-6-1-7-2-0-2-3-7-5" />
    <path
       style="opacity:1;fill:#555555;fill-opacity:1;fill-rule:nonzero;stroke:none;stroke-width:3;stroke-linejoin:miter;stroke-miterlimit:4;stroke-dasharray:none;stroke-opacity:1"
       d="m 29.999998,910.36218 6,0 0,1 -6,0 z"
       id="rect4147-35-0-0-6-2-6-1-7-2-0-2-3-7-5-9" />
    <path
       style="opacity:1;fill:#555555;fill-opacity:1;fill-rule:nonzero;stroke:none;stroke-width:3;stroke-linejoin:miter;stroke-miterlimit:4;stroke-dasharray:none;stroke-opacity:1"
       d="m 29.999998,919.36218 6,0 0,1 -6,0 z"
       id="rect4147-35-0-0-6-2-6-1-7-2-0-2-3-7-5-9-2" />
    <path
       style="opacity:1;fill:#555555;fill-opacity:1;fill-rule:nonzero;stroke:none;stroke-width:3;stroke-linejoin:miter;stroke-miterlimit:4;stroke-dasharray:none;stroke-opacity:1"
       d="m 29.999998,924.36218 6,0 0,1 -6,0 z"
       id="rect4147-35-0-0-6-2-6-1-7-2-0-2-3-7-5-9-2-2" />
    <path
       style="opacity:1;fill:#555555;fill-opacity:1;fill-rule:nonzero;stroke:none;stroke-width:3;stroke-linejoin:miter;stroke-miterlimit:4;stroke-dasharray:none;stroke-opacity:1"
       d="m 29.999998,929.36218 6,0 0,1 -6,0 z"
       id="rect4147-35-0-0-6-2-6-1-7-2-0-2-3-7-5-9-2-2-8" />
    <path
       style="opacity:1;fill:#555555;fill-opacity:1;fill-rule:nonzero;stroke:none;stroke-width:3;stroke-linejoin:miter;stroke-miterlimit:4;stroke-dasharray:none;stroke-opacity:1"
       d="m 29.999998,934.36218 6,0 0,1 -6,0 z"
       id="rect4147-35-0-0-6-2-6-1-7-2-0-2-3-7-5-9-2-2-9" />
    <path
       style="opacity:1;fill:#555555;fill-opacity:1;fill-rule:nonzero;stroke:none;stroke-width:3;stroke-linejoin:miter;stroke-miterlimit:4;stroke-dasharray:none;stroke-opacity:1"
       d="m 29.999998,943.36218 6,0 0,1 -6,0 z"
       id="rect4147-35-0-0-6-2-6-1-7-2-0-2-3-7-5-9-2-2-9-7" />
    <path
       style="opacity:1;fill:#555555;fill-opacity:1;fill-rule:nonzero;stroke:none;stroke-width:3;stroke-linejoin:miter;stroke-miterlimit:4;stroke-dasharray:none;stroke-opacity:1"
       d="m 29.999998,948.36218 6,0 0,1 -6,0 z"
       id="rect4147-35-0-0-6-2-6-1-7-2-0-2-3-7-5-9-2-2-9-7-3" />
    <path
       style="opacity:1;fill:#555555;fill-opacity:1;fill-rule:nonzero;stroke:none;stroke-width:3;stroke-linejoin:miter;stroke-miterlimit:4;stroke-dasharray:none;stroke-opacity:1"
       d="m 29.999998,953.36218 6,0 0,1 -6,0 z"
       id="rect4147-35-0-0-6-2-6-1-7-2-0-2-3-7-5-9-2-2-9-7-3-6" />
    <path
       style="opacity:1;fill:#555555;fill-opacity:1;fill-rule:nonzero;stroke:none;stroke-width:3;stroke-linejoin:miter;stroke-miterlimit:4;stroke-dasharray:none;stroke-opacity:1"
       d="m 29.999998,958.36218 6,0 0,1 -6,0 z"
       id="rect4147-35-0-0-6-2-6-1-7-2-0-2-3-7-5-9-2-2-9-7-3-6-1" />
    <path
       style="opacity:1;fill:#555555;fill-opacity:1;fill-rule:nonzero;stroke:none;stroke-width:3;stroke-linejoin:miter;stroke-miterlimit:4;stroke-dasharray:none;stroke-opacity:1"
       d="m 29.999998,967.36218 6,0 0,1 -6,0 z"
       id="rect4147-35-0-0-6-2-6-1-7-2-0-2-3-7-5-9-2-2-9-7-3-6-1-2" />
    <path
       style="opacity:1;fill:#555555;fill-opacity:1;fill-rule:nonzero;stroke:none;stroke-width:3;stroke-linejoin:miter;stroke-miterlimit:4;stroke-dasharray:none;stroke-opacity:1"
       d="m 29.999998,972.36218 6,0 0,1 -6,0 z"
       id="rect4147-35-0-0-6-2-6-1-7-2-0-2-3-7-5-9-2-2-9-7-3-6-1-2-9" />
    <path
       style="opacity:1;fill:#555555;fill-opacity:1;fill-rule:nonzero;stroke:none;stroke-width:3;stroke-linejoin:miter;stroke-miterlimit:4;stroke-dasharray:none;stroke-opacity:1"
       d="m 29.999998,977.36218 6,0 0,1 -6,0 z"
       id="rect4147-35-0-0-6-2-6-1-7-2-0-2-3-7-5-9-2-2-9-7-3-6-1-2-9-3" />
    <path
       style="opacity:1;fill:#555555;fill-opacity:1;fill-rule:nonzero;stroke:none;stroke-width:3;stroke-linejoin:miter;stroke-miterlimit:4;stroke-dasharray:none;stroke-opacity:1"
       d="m 29.999998,982.36218 6,0 0,1 -6,0 z"
       id="rect4147-35-0-0-6-2-6-1-7-2-0-2-3-7-5-9-2-2-9-7-3-6-1-2-9-3-9" />
    <path
       style="opacity:1;fill:#555555;fill-opacity:1;fill-rule:nonzero;stroke:none;stroke-width:3;stroke-linejoin:miter;stroke-miterlimit:4;stroke-dasharray:none;stroke-opacity:1"
       d="m 29.999998,991.36218 6,0 0,1 -6,0 z"
       id="rect4147-35-0-0-6-2-6-1-7-2-0-2-3-7-5-9-2-2-9-7-3-6-1-2-9-3-9-4" />
    <path
       style="opacity:1;fill:#555555;fill-opacity:1;fill-rule:nonzero;stroke:none;stroke-width:3;stroke-linejoin:miter;stroke-miterlimit:4;stroke-dasharray:none;stroke-opacity:1"
       d="m 29.999998,996.36218 6,0 0,1 -6,0 z"
       id="rect4147-35-0-0-6-2-6-1-7-2-0-2-3-7-5-9-2-2-9-7-3-6-1-2-9-3-9-4-7" />
    <path
       style="opacity:1;fill:#555555;fill-opacity:1;fill-rule:nonzero;stroke:none;stroke-width:3;stroke-linejoin:miter;stroke-miterlimit:4;stroke-dasharray:none;stroke-opacity:1"
       d="m 29.999998,1001.3622 6,0 0,1 -6,0 z"
       id="rect4147-35-0-0-6-2-6-1-7-2-0-2-3-7-5-9-2-2-9-7-3-6-1-2-9-3-9-4-7-8" />
    <path
       style="opacity:1;fill:#555555;fill-opacity:1;fill-rule:nonzero;stroke:none;stroke-width:3;stroke-linejoin:miter;stroke-miterlimit:4;stroke-dasharray:none;stroke-opacity:1"
       d="m 29.999998,1006.3622 6,0 0,1 -6,0 z"
       id="rect4147-35-0-0-6-2-6-1-7-2-0-2-3-7-5-9-2-2-9-7-3-6-1-2-9-3-9-4-7-8-4" />
    <path
       style="opacity:1;fill:#555555;fill-opacity:1;fill-rule:nonzero;stroke:none;stroke-width:3;stroke-linejoin:miter;stroke-miterlimit:4;stroke-dasharray:none;stroke-opacity:1"
       d="m 29.999998,1015.3622 6,0 0,1 -6,0 z"
       id="rect4147-35-0-0-6-2-6-1-7-2-0-2-3-7-5-9-2-2-9-7-3-6-1-2-9-3-9-4-7-8-4-5" />
    <path
       style="opacity:1;fill:#555555;fill-opacity:1;fill-rule:nonzero;stroke:none;stroke-width:3;stroke-linejoin:miter;stroke-miterlimit:4;stroke-dasharray:none;stroke-opacity:1"
       d="m 29.999998,1020.3622 6,0 0,1 -6,0 z"
       id="rect4147-35-0-0-6-2-6-1-7-2-0-2-3-7-5-9-2-2-9-7-3-6-1-2-9-3-9-4-7-8-4-5-0" />
    <path
       style="opacity:1;fill:#555555;fill-opacity:1;fill-rule:nonzero;stroke:none;stroke-width:3;stroke-linejoin:miter;stroke-miterlimit:4;stroke-dasharray:none;stroke-opacity:1"
       d="m 29.999998,1030.3622 6,0 0,1 -6,0 z"
       id="rect4147-35-0-0-6-2-6-1-7-2-0-2-3-7-5-9-2-2-9-7-3-6-1-2-9-3-9-4-7-8-4-5-0-3" />
    <path
       style="opacity:1;fill:#555555;fill-opacity:1;fill-rule:nonzero;stroke:none;stroke-width:3;stroke-linejoin:miter;stroke-miterlimit:4;stroke-dasharray:none;stroke-opacity:1"
       d="m 29.999998,1034.3622 6,0 0,1 -6,0 z"
       id="rect4147-35-0-0-6-2-6-1-7-2-0-2-3-7-5-9-2-2-9-7-3-6-1-2-9-3-9-4-7-8-4-5-0-3-6" />
    <path
       style="opacity:1;fill:#555555;fill-opacity:1;fill-rule:nonzero;stroke:none;stroke-width:3;stroke-linejoin:miter;stroke-miterlimit:4;stroke-dasharray:none;stroke-opacity:1"
       d="m 29.999998,1039.3622 6,0 0,1 -6,0 z"
       id="rect4147-35-0-0-6-2-6-1-7-2-0-2-3-7-5-9-2-2-9-7-3-6-1-2-9-3-9-4-7-8-4-5-0-3-6-1" />
    <path
       style="opacity:1;fill:#ffffff;fill-opacity:1;fill-rule:nonzero;stroke:none;stroke-width:3;stroke-linejoin:miter;stroke-miterlimit:4;stroke-dasharray:none;stroke-opacity:1"
       d="m 29.999998,891.36218 6,0 0,1 -6,0 z"
       id="rect4147-35-0-0-6-2-6-1-0" />
    <path
       style="opacity:1;fill:#ffffff;fill-opacity:1;fill-rule:nonzero;stroke:none;stroke-width:3;stroke-linejoin:miter;stroke-miterlimit:4;stroke-dasharray:none;stroke-opacity:1"
       d="m 29.999998,915.36218 6,0 0,1 -6,0 z"
       id="rect4147-35-0-0-6-2-6-1-0-6" />
    <path
       style="opacity:1;fill:#ffffff;fill-opacity:1;fill-rule:nonzero;stroke:none;stroke-width:3;stroke-linejoin:miter;stroke-miterlimit:4;stroke-dasharray:none;stroke-opacity:1"
       d="m 29.999998,939.36218 6,0 0,1 -6,0 z"
       id="rect4147-35-0-0-6-2-6-1-0-6-3" />
    <path
       style="opacity:1;fill:#ffffff;fill-opacity:1;fill-rule:nonzero;stroke:none;stroke-width:3;stroke-linejoin:miter;stroke-miterlimit:4;stroke-dasharray:none;stroke-opacity:1"
       d="m 29.999998,963.36218 6,0 0,1 -6,0 z"
       id="rect4147-35-0-0-6-2-6-1-0-6-3-2" />
    <path
       style="opacity:1;fill:#ffffff;fill-opacity:1;fill-rule:nonzero;stroke:none;stroke-width:3;stroke-linejoin:miter;stroke-miterlimit:4;stroke-dasharray:none;stroke-opacity:1"
       d="m 29.999998,987.36218 6,0 0,1 -6,0 z"
       id="rect4147-35-0-0-6-2-6-1-0-6-3-2-0" />
    <path
       style="opacity:1;fill:#ffffff;fill-opacity:1;fill-rule:nonzero;stroke:none;stroke-width:3;stroke-linejoin:miter;stroke-miterlimit:4;stroke-dasharray:none;stroke-opacity:1"
       d="m 29.999998,1011.3622 6,0 0,1 -6,0 z"
       id="rect4147-35-0-0-6-2-6-1-0-6-3-2-0-6" />
    <path
       style="opacity:1;fill:#ffffff;fill-opacity:1;fill-rule:nonzero;stroke:none;stroke-width:3;stroke-linejoin:miter;stroke-miterlimit:4;stroke-dasharray:none;stroke-opacity:1"
       d="m 29.999998,1025.3622 6,0 0,1 -6,0 z"
       id="rect4147-35-0-0-6-2-6-1-0-6-3-2-0-6-1" />
    <path
       style="opacity:1;fill:#ffffff;fill-opacity:1;fill-rule:nonzero;stroke:none;stroke-width:3;stroke-linejoin:miter;stroke-miterlimit:4;stroke-dasharray:none;stroke-opacity:1"
       d="m 29.999998,1044.3622 6,0 0,1 -6,0 z"
       id="rect4147-35-0-0-6-2-6-1-0-6-3-2-0-6-1-5" />
    <g
       style="font-style:normal;font-variant:normal;font-weight:normal;font-stretch:normal;font-size:40px;line-height:125%;font-family:FreeSans;-inkscape-font-specification:FreeSans;letter-spacing:0px;word-spacing:0px;fill:#000000;fill-opacity:1;stroke:none;stroke-width:1px;stroke-linecap:butt;stroke-linejoin:miter;stroke-opacity:1"
       id="text5166">
      <path
         d="m 8.4731231,869.58406 -2.99,0 0,-0.93 3.22,-4.46 0.65,0 0,4.6 1.0499999,0 0,0.79 -1.0499999,0 0,1.7 -0.88,0 0,-1.7 z m 0,-0.79 0,-3.1 -2.22,3.1 2.22,0 z"
         style="font-style:normal;font-variant:normal;font-weight:normal;font-stretch:normal;font-size:10px;font-family:FreeSans;-inkscape-font-specification:FreeSans;fill:#ffffff"
         id="path5377" />
      <path
         d="m 11.199529,867.85406 q 0,-0.89 0.15,-1.57 0.15,-0.68 0.38,-1.06 0.23,-0.39 0.55,-0.63 0.32,-0.24 0.61,-0.32 0.3,-0.08 0.63,-0.08 2.32,0 2.32,3.72 0,1.75 -0.6,2.68 -0.59,0.92 -1.72,0.92 -1.14,0 -1.73,-0.93 -0.59,-0.94 -0.59,-2.73 z m 3.74,-0.02 q 0,-2.86 -1.42,-2.86 -1.42,0 -1.42,2.89 0,2.92 1.4,2.92 0.74,0 1.09,-0.72 0.35,-0.72 0.35,-2.23 z"
         style="font-style:normal;font-variant:normal;font-weight:normal;font-stretch:normal;font-size:10px;font-family:FreeSans;-inkscape-font-specification:FreeSans;fill:#ffffff"
         id="path5379" />
      <path
         d="m 16.765936,867.85406 q 0,-0.89 0.15,-1.57 0.15,-0.68 0.38,-1.06 0.23,-0.39 0.55,-0.63 0.32,-0.24 0.61,-0.32 0.3,-0.08 0.63,-0.08 2.32,0 2.32,3.72 0,1.75 -0.6,2.68 -0.59,0.92 -1.72,0.92 -1.14,0 -1.73,-0.93 -0.59,-0.94 -0.59,-2.73 z m 3.74,-0.02 q 0,-2.86 -1.42,-2.86 -1.42,0 -1.42,2.89 0,2.92 1.4,2.92 0.74,0 1.09,-0.72 0.35,-0.72 0.35,-2.23 z"
         style="font-style:normal;font-variant:normal;font-weight:normal;font-stretch:normal;font-size:10px;font-family:FreeSans;-inkscape-font-specification:FreeSans;fill:#ffffff"
         id="path5381" />
      <path
         d="m 22.332342,867.85406 q 0,-0.89 0.15,-1.57 0.15,-0.68 0.38,-1.06 0.23,-0.39 0.55,-0.63 0.32,-0.24 0.61,-0.32 0.3,-0.08 0.63,-0.08 2.32,0 2.32,3.72 0,1.75 -0.6,2.68 -0.59,0.92 -1.72,0.92 -1.14,0 -1.73,-0.93 -0.59,-0.94 -0.59,-2.73 z m 3.74,-0.02 q 0,-2.86 -1.42,-2.86 -1.42,0 -1.42,2.89 0,2.92 1.4,2.92 0.74,0 1.09,-0.72 0.35,-0.72 0.35,-2.23 z"
         style="font-style:normal;font-variant:normal;font-weight:normal;font-stretch:normal;font-size:10px;font-family:FreeSans;-inkscape-font-specification:FreeSans;fill:#ffffff"
         id="path5383" />
    </g>
    <g
       style="font-style:normal;font-variant:normal;font-weight:normal;font-stretch:normal;font-size:40px;line-height:125%;font-family:FreeSans;-inkscape-font-specification:FreeSans;letter-spacing:0px;word-spacing:0px;fill:#000000;fill-opacity:1;stroke:none;stroke-width:1px;stroke-linecap:butt;stroke-linejoin:miter;stroke-opacity:1"
       id="text5166-3">
      <path
         d="m 7.8941385,888.84718 q -0.76,0 -1.05,0.42 -0.28,0.41 -0.3,1.1 l -0.88,0 q 0.05,-2.29 2.22,-2.29 1.01,0 1.58,0.52 0.5800005,0.52 0.5800005,1.43 0,1.08 -0.9900005,1.47 0.64,0.22 0.92,0.62 0.2800005,0.39 0.2800005,1.07 0,1.01 -0.6600005,1.61 -0.65,0.6 -1.74,0.6 -2.18,0 -2.34,-2.29 l 0.88,0 q 0.05,0.77 0.41,1.14 0.36,0.37 1.08,0.37 0.69,0 1.08,-0.37 0.39,-0.38 0.39,-1.05 0,-1.29 -1.47,-1.29 l -0.37,0.01 -0.11,0 0,-0.75 q 0.95,-0.02 1.34,-0.24 0.4,-0.22 0.4,-0.87 0,-0.56 -0.34,-0.88 -0.33,-0.33 -0.91,-0.33 z"
         style="font-style:normal;font-variant:normal;font-weight:normal;font-stretch:normal;font-size:10px;font-family:FreeSans;-inkscape-font-specification:FreeSans;fill:#ffffff"
         id="path5368" />
      <path
         d="m 11.190545,891.73718 q 0,-0.89 0.15,-1.57 0.15,-0.68 0.38,-1.06 0.23,-0.39 0.55,-0.63 0.32,-0.24 0.61,-0.32 0.3,-0.08 0.63,-0.08 2.32,0 2.32,3.72 0,1.75 -0.6,2.68 -0.59,0.92 -1.72,0.92 -1.14,0 -1.73,-0.93 -0.59,-0.94 -0.59,-2.73 z m 3.74,-0.02 q 0,-2.86 -1.42,-2.86 -1.42,0 -1.42,2.89 0,2.92 1.4,2.92 0.74,0 1.09,-0.72 0.35,-0.72 0.35,-2.23 z"
         style="font-style:normal;font-variant:normal;font-weight:normal;font-stretch:normal;font-size:10px;font-family:FreeSans;-inkscape-font-specification:FreeSans;fill:#ffffff"
         id="path5370" />
      <path
         d="m 16.756951,891.73718 q 0,-0.89 0.15,-1.57 0.15,-0.68 0.38,-1.06 0.23,-0.39 0.55,-0.63 0.32,-0.24 0.61,-0.32 0.3,-0.08 0.63,-0.08 2.32,0 2.32,3.72 0,1.75 -0.6,2.68 -0.59,0.92 -1.72,0.92 -1.14,0 -1.73,-0.93 -0.59,-0.94 -0.59,-2.73 z m 3.74,-0.02 q 0,-2.86 -1.42,-2.86 -1.42,0 -1.42,2.89 0,2.92 1.4,2.92 0.74,0 1.09,-0.72 0.35,-0.72 0.35,-2.23 z"
         style="font-style:normal;font-variant:normal;font-weight:normal;font-stretch:normal;font-size:10px;font-family:FreeSans;-inkscape-font-specification:FreeSans;fill:#ffffff"
         id="path5372" />
      <path
         d="m 22.323357,891.73718 q 0,-0.89 0.15,-1.57 0.15,-0.68 0.38,-1.06 0.23,-0.39 0.55,-0.63 0.32,-0.24 0.61,-0.32 0.3,-0.08 0.63,-0.08 2.32,0 2.32,3.72 0,1.75 -0.6,2.68 -0.59,0.92 -1.72,0.92 -1.14,0 -1.73,-0.93 -0.59,-0.94 -0.59,-2.73 z m 3.74,-0.02 q 0,-2.86 -1.42,-2.86 -1.42,0 -1.42,2.89 0,2.92 1.4,2.92 0.74,0 1.09,-0.72 0.35,-0.72 0.35,-2.23 z"
         style="font-style:normal;font-variant:normal;font-weight:normal;font-stretch:normal;font-size:10px;font-family:FreeSans;-inkscape-font-specification:FreeSans;fill:#ffffff"
         id="path5374" />
    </g>
    <g
       style="font-style:normal;font-variant:normal;font-weight:normal;font-stretch:normal;font-size:40px;line-height:125%;font-family:FreeSans;-inkscape-font-specification:FreeSans;letter-spacing:0px;word-spacing:0px;fill:#000000;fill-opacity:1;stroke:none;stroke-width:1px;stroke-linecap:butt;stroke-linejoin:miter;stroke-opacity:1"
       id="text5166-3-1">
      <path
         d="m 5.721014,914.66218 q 0.07,-2.46 2.34,-2.46 1.01,0 1.64,0.58 0.63,0.58 0.63,1.5 0,1.32 -1.5,2.14 l -1,0.54 q -0.65,0.35 -0.93,0.68 -0.28,0.33 -0.35,0.78 l 3.73,0 0,0.87 -4.72,0 q 0.06,-1.17 0.47,-1.8 0.41,-0.64 1.52,-1.27 l 0.92,-0.52 q 0.96,-0.55 0.96,-1.4 0,-0.57 -0.4,-0.95 -0.4,-0.38 -1,-0.38 -1.33,0 -1.43,1.69 l -0.88,0 z"
         style="font-style:normal;font-variant:normal;font-weight:normal;font-stretch:normal;font-size:10px;font-family:FreeSans;-inkscape-font-specification:FreeSans;fill:#ffffff"
         id="path5359" />
      <path
         d="m 11.21742,915.86218 q 0,-0.89 0.15,-1.57 0.15,-0.68 0.38,-1.06 0.23,-0.39 0.55,-0.63 0.32,-0.24 0.61,-0.32 0.3,-0.08 0.63,-0.08 2.32,0 2.32,3.72 0,1.75 -0.6,2.68 -0.59,0.92 -1.72,0.92 -1.14,0 -1.73,-0.93 -0.59,-0.94 -0.59,-2.73 z m 3.74,-0.02 q 0,-2.86 -1.42,-2.86 -1.42,0 -1.42,2.89 0,2.92 1.4,2.92 0.74,0 1.09,-0.72 0.35,-0.72 0.35,-2.23 z"
         style="font-style:normal;font-variant:normal;font-weight:normal;font-stretch:normal;font-size:10px;font-family:FreeSans;-inkscape-font-specification:FreeSans;fill:#ffffff"
         id="path5361" />
      <path
         d="m 16.783827,915.86218 q 0,-0.89 0.15,-1.57 0.15,-0.68 0.38,-1.06 0.23,-0.39 0.55,-0.63 0.32,-0.24 0.61,-0.32 0.3,-0.08 0.63,-0.08 2.32,0 2.32,3.72 0,1.75 -0.6,2.68 -0.59,0.92 -1.72,0.92 -1.14,0 -1.73,-0.93 -0.59,-0.94 -0.59,-2.73 z m 3.74,-0.02 q 0,-2.86 -1.42,-2.86 -1.42,0 -1.42,2.89 0,2.92 1.4,2.92 0.74,0 1.09,-0.72 0.35,-0.72 0.35,-2.23 z"
         style="font-style:normal;font-variant:normal;font-weight:normal;font-stretch:normal;font-size:10px;font-family:FreeSans;-inkscape-font-specification:FreeSans;fill:#ffffff"
         id="path5363" />
      <path
         d="m 22.350233,915.86218 q 0,-0.89 0.15,-1.57 0.15,-0.68 0.38,-1.06 0.23,-0.39 0.55,-0.63 0.32,-0.24 0.61,-0.32 0.3,-0.08 0.63,-0.08 2.32,0 2.32,3.72 0,1.75 -0.6,2.68 -0.59,0.92 -1.72,0.92 -1.14,0 -1.73,-0.93 -0.59,-0.94 -0.59,-2.73 z m 3.74,-0.02 q 0,-2.86 -1.42,-2.86 -1.42,0 -1.42,2.89 0,2.92 1.4,2.92 0.74,0 1.09,-0.72 0.35,-0.72 0.35,-2.23 z"
         style="font-style:normal;font-variant:normal;font-weight:normal;font-stretch:normal;font-size:10px;font-family:FreeSans;-inkscape-font-specification:FreeSans;fill:#ffffff"
         id="path5365" />
    </g>
    <g
       style="font-style:normal;font-variant:normal;font-weight:normal;font-stretch:normal;font-size:40px;line-height:125%;font-family:FreeSans;-inkscape-font-specification:FreeSans;letter-spacing:0px;word-spacing:0px;fill:#000000;fill-opacity:1;stroke:none;stroke-width:1px;stroke-linecap:butt;stroke-linejoin:miter;stroke-opacity:1"
       id="text5166-3-1-0">
      <path
         d="m 11.191795,939.86218 q 0,-0.89 0.15,-1.57 0.15,-0.68 0.38,-1.06 0.23,-0.39 0.55,-0.63 0.32,-0.24 0.61,-0.32 0.3,-0.08 0.63,-0.08 2.32,0 2.32,3.72 0,1.75 -0.6,2.68 -0.59,0.92 -1.72,0.92 -1.14,0 -1.73,-0.93 -0.59,-0.94 -0.59,-2.73 z m 3.74,-0.02 q 0,-2.86 -1.42,-2.86 -1.42,0 -1.42,2.89 0,2.92 1.4,2.92 0.74,0 1.09,-0.72 0.35,-0.72 0.35,-2.23 z"
         style="font-style:normal;font-variant:normal;font-weight:normal;font-stretch:normal;font-size:10px;font-family:FreeSans;-inkscape-font-specification:FreeSans;fill:#ffffff"
         id="path5352" />
      <path
         d="m 16.758201,939.86218 q 0,-0.89 0.15,-1.57 0.15,-0.68 0.38,-1.06 0.23,-0.39 0.55,-0.63 0.32,-0.24 0.61,-0.32 0.3,-0.08 0.63,-0.08 2.32,0 2.32,3.72 0,1.75 -0.6,2.68 -0.59,0.92 -1.72,0.92 -1.14,0 -1.73,-0.93 -0.59,-0.94 -0.59,-2.73 z m 3.74,-0.02 q 0,-2.86 -1.42,-2.86 -1.42,0 -1.42,2.89 0,2.92 1.4,2.92 0.74,0 1.09,-0.72 0.35,-0.72 0.35,-2.23 z"
         style="font-style:normal;font-variant:normal;font-weight:normal;font-stretch:normal;font-size:10px;font-family:FreeSans;-inkscape-font-specification:FreeSans;fill:#ffffff"
         id="path5354" />
      <path
         d="m 22.324608,939.86218 q 0,-0.89 0.15,-1.57 0.15,-0.68 0.38,-1.06 0.23,-0.39 0.55,-0.63 0.32,-0.24 0.61,-0.32 0.3,-0.08 0.63,-0.08 2.32,0 2.32,3.72 0,1.75 -0.6,2.68 -0.59,0.92 -1.72,0.92 -1.14,0 -1.73,-0.93 -0.59,-0.94 -0.59,-2.73 z m 3.74,-0.02 q 0,-2.86 -1.42,-2.86 -1.42,0 -1.42,2.89 0,2.92 1.4,2.92 0.74,0 1.09,-0.72 0.35,-0.72 0.35,-2.23 z"
         style="font-style:normal;font-variant:normal;font-weight:normal;font-stretch:normal;font-size:10px;font-family:FreeSans;-inkscape-font-specification:FreeSans;fill:#ffffff"
         id="path5356" />
    </g>
    <g
       style="font-style:normal;font-variant:normal;font-weight:normal;font-stretch:normal;font-size:40px;line-height:125%;font-family:FreeSans;-inkscape-font-specification:FreeSans;letter-spacing:0px;word-spacing:0px;fill:#000000;fill-opacity:1;stroke:none;stroke-width:1px;stroke-linecap:butt;stroke-linejoin:miter;stroke-opacity:1"
       id="text5166-3-1-0-3">
      <path
         d="m 14.989139,960.17093 0,0.74 q -1.2,1.6 -1.9,3.13 -0.69,1.52 -0.98,3.22 l -0.94,0 q 0.4,-1.75 1.02,-3.08 0.62,-1.33 1.89,-3.14 l -3.83,0 0,-0.87 4.74,0 z"
         style="font-style:normal;font-variant:normal;font-weight:normal;font-stretch:normal;font-size:10px;font-family:FreeSans;-inkscape-font-specification:FreeSans;fill:#ffffff"
         id="path5343" />
      <path
         d="m 20.115545,960.17093 0,0.87 -2.95,0 -0.28,1.98 q 0.59,-0.43 1.31,-0.43 1.02,0 1.65,0.66 0.64,0.65 0.64,1.7 0,1.12 -0.68,1.83 -0.68,0.71 -1.75,0.71 -0.41,0 -0.76,-0.09 -0.34,-0.09 -0.57,-0.21 -0.22,-0.13 -0.41,-0.33 -0.18,-0.21 -0.28,-0.36 -0.09,-0.16 -0.18,-0.39 -0.08,-0.24 -0.1,-0.33 -0.02,-0.09 -0.05,-0.26 l 0.88,0 q 0.31,1.19 1.45,1.19 0.72,0 1.13,-0.44 0.42,-0.44 0.42,-1.2 0,-0.79 -0.42,-1.24 -0.42,-0.46 -1.13,-0.46 -0.41,0 -0.7,0.15 -0.29,0.14 -0.6,0.51 l -0.81,0 0.53,-3.86 3.66,0 z"
         style="font-style:normal;font-variant:normal;font-weight:normal;font-stretch:normal;font-size:10px;font-family:FreeSans;-inkscape-font-specification:FreeSans;fill:#ffffff"
         id="path5345" />
      <path
         d="m 21.351951,963.83093 q 0,-0.89 0.15,-1.57 0.15,-0.68 0.38,-1.06 0.23,-0.39 0.55,-0.63 0.32,-0.24 0.61,-0.32 0.3,-0.08 0.63,-0.08 2.32,0 2.32,3.72 0,1.75 -0.6,2.68 -0.59,0.92 -1.72,0.92 -1.14,0 -1.73,-0.93 -0.59,-0.94 -0.59,-2.73 z m 3.74,-0.02 q 0,-2.86 -1.42,-2.86 -1.42,0 -1.42,2.89 0,2.92 1.4,2.92 0.74,0 1.09,-0.72 0.35,-0.72 0.35,-2.23 z"
         style="font-style:normal;font-variant:normal;font-weight:normal;font-stretch:normal;font-size:10px;font-family:FreeSans;-inkscape-font-specification:FreeSans;fill:#ffffff"
         id="path5347" />
    </g>
    <g
       style="font-style:normal;font-variant:normal;font-weight:normal;font-stretch:normal;font-size:40px;line-height:125%;font-family:FreeSans;-inkscape-font-specification:FreeSans;letter-spacing:0px;word-spacing:0px;fill:#000000;fill-opacity:1;stroke:none;stroke-width:1px;stroke-linecap:butt;stroke-linejoin:miter;stroke-opacity:1"
       id="text5166-3-1-0-3-6">
      <path
         d="m 15.537967,984.10843 0,0.87 -2.95,0 -0.28,1.98 q 0.59,-0.43 1.31,-0.43 1.02,0 1.65,0.66 0.64,0.65 0.64,1.7 0,1.12 -0.68,1.83 -0.68,0.71 -1.75,0.71 -0.41,0 -0.76,-0.09 -0.34,-0.09 -0.57,-0.21 -0.22,-0.13 -0.41,-0.33 -0.18,-0.21 -0.28,-0.36 -0.09,-0.16 -0.18,-0.39 -0.08,-0.24 -0.1,-0.33 -0.02,-0.09 -0.05,-0.26 l 0.88,0 q 0.31,1.19 1.45,1.19 0.72,0 1.13,-0.44 0.42,-0.44 0.42,-1.2 0,-0.79 -0.42,-1.24 -0.42,-0.46 -1.13,-0.46 -0.41,0 -0.7,0.15 -0.29,0.14 -0.6,0.51 l -0.81,0 0.53,-3.86 3.66,0 z"
         style="font-style:normal;font-variant:normal;font-weight:normal;font-stretch:normal;font-size:10px;font-family:FreeSans;-inkscape-font-specification:FreeSans;fill:#ffffff"
         id="path5336" />
      <path
         d="m 16.774374,987.76843 q 0,-0.89 0.15,-1.57 0.15,-0.68 0.38,-1.06 0.23,-0.39 0.55,-0.63 0.32,-0.24 0.61,-0.32 0.3,-0.08 0.63,-0.08 2.32,0 2.32,3.72 0,1.75 -0.6,2.68 -0.59,0.92 -1.72,0.92 -1.14,0 -1.73,-0.93 -0.59,-0.94 -0.59,-2.73 z m 3.74,-0.02 q 0,-2.86 -1.42,-2.86 -1.42,0 -1.42,2.89 0,2.92 1.4,2.92 0.74,0 1.09,-0.72 0.35,-0.72 0.35,-2.23 z"
         style="font-style:normal;font-variant:normal;font-weight:normal;font-stretch:normal;font-size:10px;font-family:FreeSans;-inkscape-font-specification:FreeSans;fill:#ffffff"
         id="path5338" />
      <path
         d="m 22.34078,987.76843 q 0,-0.89 0.15,-1.57 0.15,-0.68 0.38,-1.06 0.23,-0.39 0.55,-0.63 0.32,-0.24 0.61,-0.32 0.3,-0.08 0.63,-0.08 2.32,0 2.32,3.72 0,1.75 -0.6,2.68 -0.59,0.92 -1.72,0.92 -1.14,0 -1.73,-0.93 -0.59,-0.94 -0.59,-2.73 z m 3.74,-0.02 q 0,-2.86 -1.42,-2.86 -1.42,0 -1.42,2.89 0,2.92 1.4,2.92 0.74,0 1.09,-0.72 0.35,-0.72 0.35,-2.23 z"
         style="font-style:normal;font-variant:normal;font-weight:normal;font-stretch:normal;font-size:10px;font-family:FreeSans;-inkscape-font-specification:FreeSans;fill:#ffffff"
         id="path5340" />
    </g>
    <g
       style="font-style:normal;font-variant:normal;font-weight:normal;font-stretch:normal;font-size:40px;line-height:125%;font-family:FreeSans;-inkscape-font-specification:FreeSans;letter-spacing:0px;word-spacing:0px;fill:#000000;fill-opacity:1;stroke:none;stroke-width:1px;stroke-linecap:butt;stroke-linejoin:miter;stroke-opacity:1"
       id="text5166-3-1-0-3-6-9">
      <path
         d="m 11.286092,1010.5684 q 0.07,-2.46 2.34,-2.46 1.01,0 1.64,0.58 0.63,0.58 0.63,1.5 0,1.32 -1.5,2.14 l -1,0.54 q -0.65,0.35 -0.93,0.68 -0.28,0.33 -0.35,0.78 l 3.73,0 0,0.87 -4.72,0 q 0.06,-1.17 0.47,-1.8 0.41,-0.64 1.52,-1.27 l 0.92,-0.52 q 0.96,-0.55 0.96,-1.4 0,-0.57 -0.4,-0.95 -0.4,-0.38 -1,-0.38 -1.33,0 -1.43,1.69 l -0.88,0 z"
         style="font-style:normal;font-variant:normal;font-weight:normal;font-stretch:normal;font-size:10px;font-family:FreeSans;-inkscape-font-specification:FreeSans;fill:#ffffff"
         id="path5329" />
      <path
         d="m 21.112498,1008.1084 0,0.87 -2.95,0 -0.28,1.98 q 0.59,-0.43 1.31,-0.43 1.02,0 1.65,0.66 0.64,0.65 0.64,1.7 0,1.12 -0.68,1.83 -0.68,0.71 -1.75,0.71 -0.41,0 -0.76,-0.09 -0.34,-0.09 -0.57,-0.21 -0.22,-0.13 -0.41,-0.33 -0.18,-0.21 -0.28,-0.36 -0.09,-0.16 -0.18,-0.39 -0.08,-0.24 -0.1,-0.33 -0.02,-0.09 -0.05,-0.26 l 0.88,0 q 0.31,1.19 1.45,1.19 0.72,0 1.13,-0.44 0.42,-0.44 0.42,-1.2 0,-0.79 -0.42,-1.24 -0.42,-0.46 -1.13,-0.46 -0.41,0 -0.7,0.15 -0.29,0.14 -0.6,0.51 l -0.81,0 0.53,-3.86 3.66,0 z"
         style="font-style:normal;font-variant:normal;font-weight:normal;font-stretch:normal;font-size:10px;font-family:FreeSans;-inkscape-font-specification:FreeSans;fill:#ffffff"
         id="path5331" />
      <path
         d="m 22.348904,1011.7684 q 0,-0.89 0.15,-1.57 0.15,-0.68 0.38,-1.06 0.23,-0.39 0.55,-0.63 0.32,-0.24 0.61,-0.32 0.3,-0.08 0.63,-0.08 2.32,0 2.32,3.72 0,1.75 -0.6,2.68 -0.59,0.92 -1.72,0.92 -1.14,0 -1.73,-0.93 -0.59,-0.94 -0.59,-2.73 z m 3.74,-0.02 q 0,-2.86 -1.42,-2.86 -1.42,0 -1.42,2.89 0,2.92 1.4,2.92 0.74,0 1.09,-0.72 0.35,-0.72 0.35,-2.23 z"
         style="font-style:normal;font-variant:normal;font-weight:normal;font-stretch:normal;font-size:10px;font-family:FreeSans;-inkscape-font-specification:FreeSans;fill:#ffffff"
         id="path5333" />
    </g>
    <g
       style="font-style:normal;font-variant:normal;font-weight:normal;font-stretch:normal;font-size:40px;line-height:125%;font-family:FreeSans;-inkscape-font-specification:FreeSans;letter-spacing:0px;word-spacing:0px;fill:#000000;fill-opacity:1;stroke:none;stroke-width:1px;stroke-linecap:butt;stroke-linejoin:miter;stroke-opacity:1"
       id="text5166-3-1-0-3-6-9-0">
      <path
         d="m 13.313592,1024.289 -1.57,0 0,-0.63 q 1.02,-0.13 1.33,-0.36 0.31,-0.23 0.54,-1.05 l 0.58,0 0,7.09 -0.88,0 0,-5.05 z"
         style="font-style:normal;font-variant:normal;font-weight:normal;font-stretch:normal;font-size:10px;font-family:FreeSans;-inkscape-font-specification:FreeSans;fill:#ffffff"
         id="path5322" />
      <path
         d="m 16.719998,1025.909 q 0,-0.89 0.15,-1.57 0.15,-0.68 0.38,-1.06 0.23,-0.39 0.55,-0.63 0.32,-0.24 0.61,-0.32 0.3,-0.08 0.63,-0.08 2.32,0 2.32,3.72 0,1.75 -0.6,2.68 -0.59,0.92 -1.72,0.92 -1.14,0 -1.73,-0.93 -0.59,-0.94 -0.59,-2.73 z m 3.74,-0.02 q 0,-2.86 -1.42,-2.86 -1.42,0 -1.42,2.89 0,2.92 1.4,2.92 0.74,0 1.09,-0.72 0.35,-0.72 0.35,-2.23 z"
         style="font-style:normal;font-variant:normal;font-weight:normal;font-stretch:normal;font-size:10px;font-family:FreeSans;-inkscape-font-specification:FreeSans;fill:#ffffff"
         id="path5324" />
      <path
         d="m 22.286404,1025.909 q 0,-0.89 0.15,-1.57 0.15,-0.68 0.38,-1.06 0.23,-0.39 0.55,-0.63 0.32,-0.24 0.61,-0.32 0.3,-0.08 0.63,-0.08 2.32,0 2.32,3.72 0,1.75 -0.6,2.68 -0.59,0.92 -1.72,0.92 -1.14,0 -1.73,-0.93 -0.59,-0.94 -0.59,-2.73 z m 3.74,-0.02 q 0,-2.86 -1.42,-2.86 -1.42,0 -1.42,2.89 0,2.92 1.4,2.92 0.74,0 1.09,-0.72 0.35,-0.72 0.35,-2.23 z"
         style="font-style:normal;font-variant:normal;font-weight:normal;font-stretch:normal;font-size:10px;font-family:FreeSans;-inkscape-font-specification:FreeSans;fill:#ffffff"
         id="path5326" />
      <path
         inkscape:connector-curvature="0"
         d="m 7.798123,938.21653 -1.57,0 0,-0.63 q 1.02,-0.13 1.33,-0.36 0.31,-0.23 0.54,-1.05 l 0.58,0 0,7.09 -0.88,0 0,-5.05 z"
         style="font-style:normal;font-variant:normal;font-weight:normal;font-stretch:normal;font-size:10px;line-height:125%;font-family:FreeSans;-inkscape-font-specification:FreeSans;letter-spacing:0px;word-spacing:0px;fill:#ffffff;fill-opacity:1;stroke:none;stroke-width:1px;stroke-linecap:butt;stroke-linejoin:miter;stroke-opacity:1"
         id="path5322-3" />
    </g>
    <g
       style="font-style:normal;font-variant:normal;font-weight:normal;font-stretch:normal;font-size:40px;line-height:125%;font-family:FreeSans;-inkscape-font-specification:FreeSans;letter-spacing:0px;word-spacing:0px;fill:#000000;fill-opacity:1;stroke:none;stroke-width:1px;stroke-linecap:butt;stroke-linejoin:miter;stroke-opacity:1"
       id="text5166-3-1-0-3-6-9-0-6">
      <path
         d="m 22.302967,1043.6746 q 0,-0.89 0.15,-1.57 0.15,-0.68 0.38,-1.06 0.23,-0.39 0.55,-0.63 0.32,-0.24 0.61,-0.32 0.3,-0.08 0.63,-0.08 2.32,0 2.32,3.72 0,1.75 -0.6,2.68 -0.59,0.92 -1.72,0.92 -1.14,0 -1.73,-0.93 -0.59,-0.94 -0.59,-2.73 z m 3.74,-0.02 q 0,-2.86 -1.42,-2.86 -1.42,0 -1.42,2.89 0,2.92 1.4,2.92 0.74,0 1.09,-0.72 0.35,-0.72 0.35,-2.23 z"
         style="font-style:normal;font-variant:normal;font-weight:normal;font-stretch:normal;font-size:10px;font-family:FreeSans;-inkscape-font-specification:FreeSans;fill:#ffffff"
         id="path5319" />
    </g>
  </g>
</svg>
