<?xml version="1.0" encoding="UTF-8" standalone="no"?>
<!-- Created with Inkscape (http://www.inkscape.org/) -->

<svg
   xmlns:dc="http://purl.org/dc/elements/1.1/"
   xmlns:cc="http://creativecommons.org/ns#"
   xmlns:rdf="http://www.w3.org/1999/02/22-rdf-syntax-ns#"
   xmlns:svg="http://www.w3.org/2000/svg"
   xmlns="http://www.w3.org/2000/svg"
   xmlns:sodipodi="http://sodipodi.sourceforge.net/DTD/sodipodi-0.dtd"
   xmlns:inkscape="http://www.inkscape.org/namespaces/inkscape"
   width="350"
   height="350"
   viewBox="0 0 350.00002 350.00001"
   id="svg2"
   version="1.1"
   inkscape:version="0.92.3 (2405546, 2018-03-11)"
   sodipodi:docname="tool.svg">
  <defs
     id="defs4" />
  <sodipodi:namedview
     id="base"
     pagecolor="#ffffff"
     bordercolor="#666666"
     borderopacity="1.0"
     inkscape:pageopacity="0.0"
     inkscape:pageshadow="2"
     inkscape:zoom="1.8101934"
     inkscape:cx="369.44429"
     inkscape:cy="131.72138"
     inkscape:document-units="px"
     inkscape:current-layer="layer1"
     showgrid="false"
     inkscape:window-width="1920"
     inkscape:window-height="1027"
     inkscape:window-x="-8"
     inkscape:window-y="-8"
     inkscape:window-maximized="1"
     units="px" />
  <metadata
     id="metadata7">
    <rdf:RDF>
      <cc:Work
         rdf:about="">
        <dc:format>image/svg+xml</dc:format>
        <dc:type
           rdf:resource="http://purl.org/dc/dcmitype/StillImage" />
        <dc:title />
      </cc:Work>
    </rdf:RDF>
  </metadata>
  <g
     inkscape:label="Ebene 1"
     inkscape:groupmode="layer"
     id="layer1"
     transform="translate(0,-702.3622)">
    <path
       style="fill:#c3c3c3;fill-opacity:1;stroke-width:8.58998489"
       d="m 85.950946,1028.114 v -5.4656 l 11.194738,-11.1674 11.194736,-11.1681 V 989.1292 977.94555 L 91.418294,961.05678 74.496174,944.16715 H 63.299905 52.103637 l -11.186064,11.17678 -11.186065,11.17679 h -5.474491 -5.474493 v -16.64245 -16.64158 l 11.071767,-11.04546 11.071767,-11.04547 h 16.796544 16.796543 l 5.580013,5.58839 5.580011,5.5884 h 5.606835 5.606825 l 61.697501,-61.59848 61.69747,-61.59935 v -5.59612 -5.59611 l -5.59737,-5.57037 -5.59737,-5.57122 v -16.77805 -16.77806 l 11.07177,-11.04461 11.07177,-11.04546 h 16.40623 16.40623 v 5.71971 5.71972 l -10.94033,10.91328 -10.9403,10.91414 v 11.43772 11.43771 l 16.66774,16.63556 16.66774,16.63472 h 11.45065 11.45066 l 11.18606,-11.17678 11.18606,-11.17679 h 5.22007 5.22007 v 16.64244 16.64244 l -11.07177,11.0446 -11.07178,11.04547 h -16.5421 -16.54211 l -5.58003,-5.58839 -5.58,-5.5884 h -5.86127 -5.86126 l -61.44305,61.34529 -61.44306,61.34443 v 5.85017 5.85018 l 5.59737,5.57122 5.59737,5.57037 v 16.52402 16.52385 l -11.3261,11.2988 -11.3261,11.2995 H 102.35726 85.950946 Z"
       id="path4145"
       inkscape:connector-curvature="0" />
  </g>
</svg>
