<?xml version="1.0" encoding="UTF-8" standalone="no"?>
<svg
   xmlns:dc="http://purl.org/dc/elements/1.1/"
   xmlns:cc="http://creativecommons.org/ns#"
   xmlns:rdf="http://www.w3.org/1999/02/22-rdf-syntax-ns#"
   xmlns:svg="http://www.w3.org/2000/svg"
   xmlns="http://www.w3.org/2000/svg"
   xmlns:sodipodi="http://sodipodi.sourceforge.net/DTD/sodipodi-0.dtd"
   xmlns:inkscape="http://www.inkscape.org/namespaces/inkscape"
   width="350"
   height="350"
   viewBox="0 0 349.99999 350.00001"
   id="svg2"
   version="1.1"
   inkscape:version="1.0.1 (3bc2e813f5, 2020-09-07)"
   sodipodi:docname="X.svg">
  <defs
     id="defs4" />
  <sodipodi:namedview
     id="base"
     pagecolor="#ffffff"
     bordercolor="#666666"
     borderopacity="1.0"
     inkscape:pageopacity="0.0"
     inkscape:pageshadow="2"
     inkscape:zoom="1.4"
     inkscape:cx="141.13242"
     inkscape:cy="172.43298"
     inkscape:document-units="px"
     inkscape:current-layer="layer1"
     showgrid="false"
     inkscape:window-width="1920"
     inkscape:window-height="1017"
     inkscape:window-x="-8"
     inkscape:window-y="-8"
     inkscape:window-maximized="1"
     units="px"
     inkscape:document-rotation="0" />
  <metadata
     id="metadata7">
    <rdf:RDF>
      <cc:Work
         rdf:about="">
        <dc:format>image/svg+xml</dc:format>
        <dc:type
           rdf:resource="http://purl.org/dc/dcmitype/StillImage" />
        <dc:title />
      </cc:Work>
    </rdf:RDF>
  </metadata>
  <g
     inkscape:label="Ebene 1"
     inkscape:groupmode="layer"
     id="layer1"
     transform="translate(0,-702.3621)">
    <path
       style="fill:#c3c3c3;fill-opacity:1;stroke-width:0.890097"
       d="m 53.483828,1009.9413 c -7.431276,-2.0759 -12.136046,-8.5275 -11.669187,-16.00202 0.416478,-6.6678 -3.015564,-2.88311 56.588439,-62.40223 L 152.64296,877.37443 98.196402,822.96739 C 45.484856,770.2941 43.715636,768.46767 42.676285,765.65223 c -2.148016,-5.81865 -0.480329,-12.97611 3.955482,-16.97631 4.817294,-4.34423 11.402734,-5.45108 17.223645,-2.8949 2.59931,1.14146 7.610382,6.00111 56.993738,55.27152 l 54.14386,54.02003 53.89521,-53.81641 c 60.46531,-60.37691 56.54073,-56.86799 63.5235,-56.79578 6.23273,0.0644 11.66051,3.48332 14.40699,9.0747 0.97512,1.98521 1.19254,3.16841 1.20233,6.54326 0.0103,3.56957 -0.16979,4.47588 -1.34884,6.7856 -1.11615,2.18652 -11.06745,12.3595 -55.35189,56.58496 l -53.99109,53.91917 53.97014,53.92345 c 44.29706,44.25872 54.21363,54.40124 55.32862,56.58923 1.16315,2.28247 1.3616,3.25811 1.38022,6.78557 0.0191,3.62002 -0.1512,4.46116 -1.40373,6.93308 -2.37889,4.6949 -7.13167,8.0614 -12.46496,8.8292 -2.75765,0.3971 -7.43157,-0.7137 -10.01023,-2.3789 -1.00729,-0.6505 -25.97503,-25.30152 -55.48387,-54.78014 l -53.65242,-53.59747 -54.38663,54.20906 c -47.545732,47.39045 -54.700149,54.33885 -56.879134,55.24125 -3.367627,1.3945 -7.111352,1.6938 -10.243398,0.8189 z"
       id="path4166"
       inkscape:connector-curvature="0" />
    <path
       style="fill:#000000"
       d=""
       id="path4220"
       inkscape:connector-curvature="0" />
    <path
       style="fill:#000000"
       d=""
       id="path4218"
       inkscape:connector-curvature="0" />
  </g>
</svg>
